solid 
   facet normal 0.000000e+00 0.000000e+00 -1.000000e+00
      outer loop
         vertex 8.000000e+00 1.290000e+01 0.000000e+00
         vertex 8.000000e+00 1.108479e+01 0.000000e+00
         vertex 1.342339e+00 1.412500e+01 0.000000e+00
      endloop
   endfacet
   facet normal 0.000000e+00 0.000000e+00 -1.000000e+00
      outer loop
         vertex -8.000000e+00 1.108479e+01 0.000000e+00
         vertex -8.000000e+00 1.290000e+01 0.000000e+00
         vertex -1.342339e+00 1.412500e+01 0.000000e+00
      endloop
   endfacet
   facet normal 0.000000e+00 -0.000000e+00 -1.000000e+00
      outer loop
         vertex -7.608452e+00 1.537214e+01 0.000000e+00
         vertex -6.472136e+00 1.760228e+01 0.000000e+00
         vertex -1.526452e+00 1.516916e+01 0.000000e+00
      endloop
   endfacet
   facet normal 0.000000e+00 -0.000000e+00 -1.000000e+00
      outer loop
         vertex -4.702282e+00 1.937214e+01 0.000000e+00
         vertex -2.472136e+00 2.050845e+01 0.000000e+00
         vertex -9.963208e-01 1.608737e+01 0.000000e+00
      endloop
   endfacet
   facet normal -0.000000e+00 0.000000e+00 -1.000000e+00
      outer loop
         vertex 7.080935e-14 2.090000e+01 0.000000e+00
         vertex 2.472136e+00 2.050845e+01 0.000000e+00
         vertex 5.310089e-14 1.645000e+01 0.000000e+00
      endloop
   endfacet
   facet normal -0.000000e+00 0.000000e+00 -1.000000e+00
      outer loop
         vertex 4.702282e+00 1.937214e+01 0.000000e+00
         vertex 6.472136e+00 1.760228e+01 0.000000e+00
         vertex 1.526452e+00 1.516916e+01 0.000000e+00
      endloop
   endfacet
   facet normal 0.000000e+00 0.000000e+00 -1.000000e+00
      outer loop
         vertex 7.608452e+00 1.537214e+01 0.000000e+00
         vertex 8.000000e+00 1.290000e+01 0.000000e+00
         vertex 1.342339e+00 1.412500e+01 0.000000e+00
      endloop
   endfacet
   facet normal 0.000000e+00 0.000000e+00 -1.000000e+00
      outer loop
         vertex 5.310089e-14 1.645000e+01 0.000000e+00
         vertex -9.963208e-01 1.608737e+01 0.000000e+00
         vertex -2.472136e+00 2.050845e+01 0.000000e+00
      endloop
   endfacet
   facet normal 0.000000e+00 0.000000e+00 -1.000000e+00
      outer loop
         vertex -1.526452e+00 1.516916e+01 0.000000e+00
         vertex -1.342339e+00 1.412500e+01 0.000000e+00
         vertex -7.608452e+00 1.537214e+01 0.000000e+00
      endloop
   endfacet
   facet normal -0.000000e+00 -0.000000e+00 -1.000000e+00
      outer loop
         vertex -5.301312e-01 1.344348e+01 0.000000e+00
         vertex 5.301312e-01 1.344348e+01 0.000000e+00
         vertex 8.000000e+00 1.108479e+01 0.000000e+00
      endloop
   endfacet
   facet normal 0.000000e+00 -0.000000e+00 -1.000000e+00
      outer loop
         vertex 1.342339e+00 1.412500e+01 0.000000e+00
         vertex 1.526452e+00 1.516916e+01 0.000000e+00
         vertex 7.608452e+00 1.537214e+01 0.000000e+00
      endloop
   endfacet
   facet normal 0.000000e+00 0.000000e+00 -1.000000e+00
      outer loop
         vertex 1.342339e+00 1.412500e+01 0.000000e+00
         vertex 8.000000e+00 1.108479e+01 0.000000e+00
         vertex 5.301312e-01 1.344348e+01 0.000000e+00
      endloop
   endfacet
   facet normal 0.000000e+00 0.000000e+00 -1.000000e+00
      outer loop
         vertex -1.526452e+00 1.516916e+01 0.000000e+00
         vertex -6.472136e+00 1.760228e+01 0.000000e+00
         vertex -4.702282e+00 1.937214e+01 0.000000e+00
      endloop
   endfacet
   facet normal 1.459366e-15 -8.889477e-16 -1.000000e+00
      outer loop
         vertex 5.310089e-14 1.645000e+01 0.000000e+00
         vertex 2.472136e+00 2.050845e+01 0.000000e+00
         vertex 9.963208e-01 1.608737e+01 1.776357e-15
      endloop
   endfacet
   facet normal 0.000000e+00 0.000000e+00 -1.000000e+00
      outer loop
         vertex 5.310089e-14 1.645000e+01 0.000000e+00
         vertex -2.472136e+00 2.050845e+01 0.000000e+00
         vertex 7.080935e-14 2.090000e+01 0.000000e+00
      endloop
   endfacet
   facet normal 0.000000e+00 0.000000e+00 -1.000000e+00
      outer loop
         vertex -1.526452e+00 1.516916e+01 0.000000e+00
         vertex -4.702282e+00 1.937214e+01 0.000000e+00
         vertex -9.963208e-01 1.608737e+01 0.000000e+00
      endloop
   endfacet
   facet normal 0.000000e+00 0.000000e+00 -1.000000e+00
      outer loop
         vertex 8.000000e+00 1.108479e+01 0.000000e+00
         vertex -8.000000e+00 1.108479e+01 0.000000e+00
         vertex -5.301312e-01 1.344348e+01 0.000000e+00
      endloop
   endfacet
   facet normal -1.749644e-16 -3.433868e-16 -1.000000e+00
      outer loop
         vertex 2.472136e+00 2.050845e+01 0.000000e+00
         vertex 4.702282e+00 1.937214e+01 0.000000e+00
         vertex 9.963208e-01 1.608737e+01 1.776357e-15
      endloop
   endfacet
   facet normal -0.000000e+00 0.000000e+00 -1.000000e+00
      outer loop
         vertex -1.342339e+00 1.412500e+01 0.000000e+00
         vertex -5.301312e-01 1.344348e+01 0.000000e+00
         vertex -8.000000e+00 1.108479e+01 0.000000e+00
      endloop
   endfacet
   facet normal 0.000000e+00 0.000000e+00 -1.000000e+00
      outer loop
         vertex -1.342339e+00 1.412500e+01 0.000000e+00
         vertex -8.000000e+00 1.290000e+01 0.000000e+00
         vertex -7.608452e+00 1.537214e+01 0.000000e+00
      endloop
   endfacet
   facet normal 0.000000e+00 0.000000e+00 -1.000000e+00
      outer loop
         vertex 7.608452e+00 1.537214e+01 0.000000e+00
         vertex 1.526452e+00 1.516916e+01 0.000000e+00
         vertex 6.472136e+00 1.760228e+01 0.000000e+00
      endloop
   endfacet
   facet normal -1.451335e-15 1.096648e-15 -1.000000e+00
      outer loop
         vertex 1.526452e+00 1.516916e+01 0.000000e+00
         vertex 9.963208e-01 1.608737e+01 1.776357e-15
         vertex 4.702282e+00 1.937214e+01 0.000000e+00
      endloop
   endfacet
   facet normal -1.000000e+00 0.000000e+00 0.000000e+00
      outer loop
         vertex -8.000000e+00 1.290000e+01 0.000000e+00
         vertex -8.000000e+00 1.108479e+01 0.000000e+00
         vertex -8.000000e+00 1.228393e+01 2.884213e+00
      endloop
   endfacet
   facet normal -1.000000e+00 0.000000e+00 0.000000e+00
      outer loop
         vertex -8.000000e+00 1.274582e+01 5.973433e+00
         vertex -8.000000e+00 1.244273e+01 9.082253e+00
         vertex -8.000000e+00 1.290000e+01 2.300000e+01
      endloop
   endfacet
   facet normal -1.000000e+00 0.000000e+00 0.000000e+00
      outer loop
         vertex -8.000000e+00 1.139286e+01 1.202409e+01
         vertex -8.000000e+00 9.659219e+00 1.462238e+01
         vertex -8.000000e+00 1.290000e+01 2.300000e+01
      endloop
   endfacet
   facet normal -1.000000e+00 0.000000e+00 0.000000e+00
      outer loop
         vertex -8.000000e+00 7.345852e+00 1.672118e+01
         vertex -8.000000e+00 4.591605e+00 1.819452e+01
         vertex -8.000000e+00 1.290000e+01 2.300000e+01
      endloop
   endfacet
   facet normal -1.000000e+00 0.000000e+00 0.000000e+00
      outer loop
         vertex -8.000000e+00 1.561780e+00 1.895399e+01
         vertex -8.000000e+00 -1.561780e+00 1.895399e+01
         vertex -8.000000e+00 1.290000e+01 2.300000e+01
      endloop
   endfacet
   facet normal -1.000000e+00 0.000000e+00 0.000000e+00
      outer loop
         vertex -8.000000e+00 -4.591605e+00 1.819452e+01
         vertex -8.000000e+00 -7.345852e+00 1.672118e+01
         vertex -8.000000e+00 -1.290000e+01 2.300000e+01
      endloop
   endfacet
   facet normal -1.000000e+00 0.000000e+00 0.000000e+00
      outer loop
         vertex -8.000000e+00 -9.659219e+00 1.462238e+01
         vertex -8.000000e+00 -1.139286e+01 1.202409e+01
         vertex -8.000000e+00 -1.290000e+01 2.300000e+01
      endloop
   endfacet
   facet normal -1.000000e+00 0.000000e+00 0.000000e+00
      outer loop
         vertex -8.000000e+00 -1.244273e+01 9.082253e+00
         vertex -8.000000e+00 -1.274582e+01 5.973433e+00
         vertex -8.000000e+00 -1.290000e+01 2.300000e+01
      endloop
   endfacet
   facet normal -1.000000e+00 0.000000e+00 0.000000e+00
      outer loop
         vertex -8.000000e+00 -1.228393e+01 2.884213e+00
         vertex -8.000000e+00 -1.108479e+01 0.000000e+00
         vertex -8.000000e+00 -1.290000e+01 0.000000e+00
      endloop
   endfacet
   facet normal -1.000000e+00 -0.000000e+00 0.000000e+00
      outer loop
         vertex -8.000000e+00 -1.290000e+01 2.300000e+01
         vertex -8.000000e+00 1.290000e+01 2.300000e+01
         vertex -8.000000e+00 -1.561780e+00 1.895399e+01
      endloop
   endfacet
   facet normal -1.000000e+00 0.000000e+00 0.000000e+00
      outer loop
         vertex -8.000000e+00 1.290000e+01 0.000000e+00
         vertex -8.000000e+00 1.228393e+01 2.884213e+00
         vertex -8.000000e+00 1.274582e+01 5.973433e+00
      endloop
   endfacet
   facet normal -1.000000e+00 0.000000e+00 0.000000e+00
      outer loop
         vertex -8.000000e+00 1.139286e+01 1.202409e+01
         vertex -8.000000e+00 1.290000e+01 2.300000e+01
         vertex -8.000000e+00 1.244273e+01 9.082253e+00
      endloop
   endfacet
   facet normal -1.000000e+00 0.000000e+00 0.000000e+00
      outer loop
         vertex -8.000000e+00 1.561780e+00 1.895399e+01
         vertex -8.000000e+00 1.290000e+01 2.300000e+01
         vertex -8.000000e+00 4.591605e+00 1.819452e+01
      endloop
   endfacet
   facet normal -1.000000e+00 -0.000000e+00 0.000000e+00
      outer loop
         vertex -8.000000e+00 -1.290000e+01 2.300000e+01
         vertex -8.000000e+00 -1.139286e+01 1.202409e+01
         vertex -8.000000e+00 -1.244273e+01 9.082253e+00
      endloop
   endfacet
   facet normal -1.000000e+00 -0.000000e+00 0.000000e+00
      outer loop
         vertex -8.000000e+00 -1.290000e+01 2.300000e+01
         vertex -8.000000e+00 -1.561780e+00 1.895399e+01
         vertex -8.000000e+00 -4.591605e+00 1.819452e+01
      endloop
   endfacet
   facet normal -1.000000e+00 0.000000e+00 0.000000e+00
      outer loop
         vertex -8.000000e+00 9.659219e+00 1.462238e+01
         vertex -8.000000e+00 7.345852e+00 1.672118e+01
         vertex -8.000000e+00 1.290000e+01 2.300000e+01
      endloop
   endfacet
   facet normal -1.000000e+00 -0.000000e+00 0.000000e+00
      outer loop
         vertex -8.000000e+00 -1.274582e+01 5.973433e+00
         vertex -8.000000e+00 -1.228393e+01 2.884213e+00
         vertex -8.000000e+00 -1.290000e+01 0.000000e+00
      endloop
   endfacet
   facet normal -1.000000e+00 0.000000e+00 0.000000e+00
      outer loop
         vertex -8.000000e+00 1.290000e+01 2.300000e+01
         vertex -8.000000e+00 1.290000e+01 0.000000e+00
         vertex -8.000000e+00 1.274582e+01 5.973433e+00
      endloop
   endfacet
   facet normal -1.000000e+00 0.000000e+00 0.000000e+00
      outer loop
         vertex -8.000000e+00 -9.659219e+00 1.462238e+01
         vertex -8.000000e+00 -1.290000e+01 2.300000e+01
         vertex -8.000000e+00 -7.345852e+00 1.672118e+01
      endloop
   endfacet
   facet normal -1.000000e+00 0.000000e+00 0.000000e+00
      outer loop
         vertex -8.000000e+00 -1.290000e+01 0.000000e+00
         vertex -8.000000e+00 -1.290000e+01 2.300000e+01
         vertex -8.000000e+00 -1.274582e+01 5.973433e+00
      endloop
   endfacet
   facet normal 1.000000e+00 0.000000e+00 0.000000e+00
      outer loop
         vertex 8.000000e+00 -1.290000e+01 0.000000e+00
         vertex 8.000000e+00 -1.108479e+01 0.000000e+00
         vertex 8.000000e+00 -1.228393e+01 2.884213e+00
      endloop
   endfacet
   facet normal 1.000000e+00 0.000000e+00 0.000000e+00
      outer loop
         vertex 8.000000e+00 -1.274582e+01 5.973433e+00
         vertex 8.000000e+00 -1.244273e+01 9.082253e+00
         vertex 8.000000e+00 -1.290000e+01 2.300000e+01
      endloop
   endfacet
   facet normal 1.000000e+00 0.000000e+00 0.000000e+00
      outer loop
         vertex 8.000000e+00 -1.139286e+01 1.202409e+01
         vertex 8.000000e+00 -9.659219e+00 1.462238e+01
         vertex 8.000000e+00 -1.290000e+01 2.300000e+01
      endloop
   endfacet
   facet normal 1.000000e+00 0.000000e+00 0.000000e+00
      outer loop
         vertex 8.000000e+00 -7.345852e+00 1.672118e+01
         vertex 8.000000e+00 -4.591605e+00 1.819452e+01
         vertex 8.000000e+00 -1.290000e+01 2.300000e+01
      endloop
   endfacet
   facet normal 1.000000e+00 0.000000e+00 -0.000000e+00
      outer loop
         vertex 8.000000e+00 -1.561780e+00 1.895399e+01
         vertex 8.000000e+00 1.561780e+00 1.895399e+01
         vertex 8.000000e+00 1.290000e+01 2.300000e+01
      endloop
   endfacet
   facet normal 1.000000e+00 0.000000e+00 -0.000000e+00
      outer loop
         vertex 8.000000e+00 4.591605e+00 1.819452e+01
         vertex 8.000000e+00 7.345852e+00 1.672118e+01
         vertex 8.000000e+00 1.290000e+01 2.300000e+01
      endloop
   endfacet
   facet normal 1.000000e+00 0.000000e+00 -0.000000e+00
      outer loop
         vertex 8.000000e+00 9.659219e+00 1.462238e+01
         vertex 8.000000e+00 1.139286e+01 1.202409e+01
         vertex 8.000000e+00 1.290000e+01 2.300000e+01
      endloop
   endfacet
   facet normal 1.000000e+00 0.000000e+00 -0.000000e+00
      outer loop
         vertex 8.000000e+00 1.244273e+01 9.082253e+00
         vertex 8.000000e+00 1.274582e+01 5.973433e+00
         vertex 8.000000e+00 1.290000e+01 2.300000e+01
      endloop
   endfacet
   facet normal 1.000000e+00 0.000000e+00 0.000000e+00
      outer loop
         vertex 8.000000e+00 1.228393e+01 2.884213e+00
         vertex 8.000000e+00 1.108479e+01 0.000000e+00
         vertex 8.000000e+00 1.290000e+01 0.000000e+00
      endloop
   endfacet
   facet normal 1.000000e+00 -0.000000e+00 0.000000e+00
      outer loop
         vertex 8.000000e+00 1.290000e+01 2.300000e+01
         vertex 8.000000e+00 -1.290000e+01 2.300000e+01
         vertex 8.000000e+00 -1.561780e+00 1.895399e+01
      endloop
   endfacet
   facet normal 1.000000e+00 0.000000e+00 0.000000e+00
      outer loop
         vertex 8.000000e+00 -1.290000e+01 0.000000e+00
         vertex 8.000000e+00 -1.228393e+01 2.884213e+00
         vertex 8.000000e+00 -1.274582e+01 5.973433e+00
      endloop
   endfacet
   facet normal 1.000000e+00 0.000000e+00 0.000000e+00
      outer loop
         vertex 8.000000e+00 -1.139286e+01 1.202409e+01
         vertex 8.000000e+00 -1.290000e+01 2.300000e+01
         vertex 8.000000e+00 -1.244273e+01 9.082253e+00
      endloop
   endfacet
   facet normal 1.000000e+00 -0.000000e+00 0.000000e+00
      outer loop
         vertex 8.000000e+00 1.290000e+01 2.300000e+01
         vertex 8.000000e+00 1.561780e+00 1.895399e+01
         vertex 8.000000e+00 4.591605e+00 1.819452e+01
      endloop
   endfacet
   facet normal 1.000000e+00 -0.000000e+00 0.000000e+00
      outer loop
         vertex 8.000000e+00 1.290000e+01 2.300000e+01
         vertex 8.000000e+00 1.139286e+01 1.202409e+01
         vertex 8.000000e+00 1.244273e+01 9.082253e+00
      endloop
   endfacet
   facet normal 1.000000e+00 0.000000e+00 0.000000e+00
      outer loop
         vertex 8.000000e+00 -1.561780e+00 1.895399e+01
         vertex 8.000000e+00 -1.290000e+01 2.300000e+01
         vertex 8.000000e+00 -4.591605e+00 1.819452e+01
      endloop
   endfacet
   facet normal 1.000000e+00 0.000000e+00 0.000000e+00
      outer loop
         vertex 8.000000e+00 -9.659219e+00 1.462238e+01
         vertex 8.000000e+00 -7.345852e+00 1.672118e+01
         vertex 8.000000e+00 -1.290000e+01 2.300000e+01
      endloop
   endfacet
   facet normal 1.000000e+00 -0.000000e+00 0.000000e+00
      outer loop
         vertex 8.000000e+00 1.274582e+01 5.973433e+00
         vertex 8.000000e+00 1.228393e+01 2.884213e+00
         vertex 8.000000e+00 1.290000e+01 0.000000e+00
      endloop
   endfacet
   facet normal 1.000000e+00 0.000000e+00 0.000000e+00
      outer loop
         vertex 8.000000e+00 -1.290000e+01 2.300000e+01
         vertex 8.000000e+00 -1.290000e+01 0.000000e+00
         vertex 8.000000e+00 -1.274582e+01 5.973433e+00
      endloop
   endfacet
   facet normal 1.000000e+00 0.000000e+00 0.000000e+00
      outer loop
         vertex 8.000000e+00 9.659219e+00 1.462238e+01
         vertex 8.000000e+00 1.290000e+01 2.300000e+01
         vertex 8.000000e+00 7.345852e+00 1.672118e+01
      endloop
   endfacet
   facet normal 1.000000e+00 0.000000e+00 0.000000e+00
      outer loop
         vertex 8.000000e+00 1.290000e+01 0.000000e+00
         vertex 8.000000e+00 1.290000e+01 2.300000e+01
         vertex 8.000000e+00 1.274582e+01 5.973433e+00
      endloop
   endfacet
   facet normal 0.000000e+00 0.000000e+00 -1.000000e+00
      outer loop
         vertex -8.000000e+00 -1.290000e+01 0.000000e+00
         vertex -8.000000e+00 -1.108479e+01 0.000000e+00
         vertex -9.963208e-01 -1.371263e+01 0.000000e+00
      endloop
   endfacet
   facet normal -0.000000e+00 0.000000e+00 -1.000000e+00
      outer loop
         vertex 8.000000e+00 -1.108479e+01 0.000000e+00
         vertex 8.000000e+00 -1.290000e+01 0.000000e+00
         vertex 9.963208e-01 -1.371263e+01 0.000000e+00
      endloop
   endfacet
   facet normal 0.000000e+00 0.000000e+00 -1.000000e+00
      outer loop
         vertex 7.608452e+00 -1.537214e+01 0.000000e+00
         vertex 6.472136e+00 -1.760228e+01 0.000000e+00
         vertex 1.526452e+00 -1.463085e+01 0.000000e+00
      endloop
   endfacet
   facet normal 1.673286e-16 -3.284007e-16 -1.000000e+00
      outer loop
         vertex 4.702282e+00 -1.937214e+01 0.000000e+00
         vertex 2.472136e+00 -2.050845e+01 0.000000e+00
         vertex 1.342339e+00 -1.567500e+01 -1.776357e-15
      endloop
   endfacet
   facet normal 0.000000e+00 0.000000e+00 -1.000000e+00
      outer loop
         vertex 4.838388e-16 -2.090000e+01 0.000000e+00
         vertex -2.472136e+00 -2.050845e+01 0.000000e+00
         vertex -5.301312e-01 -1.635652e+01 0.000000e+00
      endloop
   endfacet
   facet normal -2.517129e-16 -2.517126e-16 -1.000000e+00
      outer loop
         vertex -4.702282e+00 -1.937214e+01 0.000000e+00
         vertex -6.472136e+00 -1.760228e+01 0.000000e+00
         vertex -1.342339e+00 -1.567500e+01 -1.776357e-15
      endloop
   endfacet
   facet normal 0.000000e+00 0.000000e+00 -1.000000e+00
      outer loop
         vertex -7.608452e+00 -1.537214e+01 0.000000e+00
         vertex -8.000000e+00 -1.290000e+01 0.000000e+00
         vertex -1.526452e+00 -1.463085e+01 0.000000e+00
      endloop
   endfacet
   facet normal 0.000000e+00 0.000000e+00 -1.000000e+00
      outer loop
         vertex -1.898203e-16 -1.335000e+01 0.000000e+00
         vertex -9.963208e-01 -1.371263e+01 0.000000e+00
         vertex -8.000000e+00 -1.108479e+01 0.000000e+00
      endloop
   endfacet
   facet normal -9.242167e-16 1.538274e-15 -1.000000e+00
      outer loop
         vertex -1.526452e+00 -1.463085e+01 0.000000e+00
         vertex -1.342339e+00 -1.567500e+01 -1.776357e-15
         vertex -6.472136e+00 -1.760228e+01 0.000000e+00
      endloop
   endfacet
   facet normal -0.000000e+00 0.000000e+00 -1.000000e+00
      outer loop
         vertex -5.301312e-01 -1.635652e+01 0.000000e+00
         vertex 5.301312e-01 -1.635652e+01 0.000000e+00
         vertex 4.838388e-16 -2.090000e+01 0.000000e+00
      endloop
   endfacet
   facet normal 9.242167e-16 1.538274e-15 -1.000000e+00
      outer loop
         vertex 1.342339e+00 -1.567500e+01 -1.776357e-15
         vertex 1.526452e+00 -1.463085e+01 0.000000e+00
         vertex 6.472136e+00 -1.760228e+01 0.000000e+00
      endloop
   endfacet
   facet normal -0.000000e+00 0.000000e+00 -1.000000e+00
      outer loop
         vertex -8.000000e+00 -1.290000e+01 0.000000e+00
         vertex -9.963208e-01 -1.371263e+01 0.000000e+00
         vertex -1.526452e+00 -1.463085e+01 0.000000e+00
      endloop
   endfacet
   facet normal 0.000000e+00 0.000000e+00 -1.000000e+00
      outer loop
         vertex 7.608452e+00 -1.537214e+01 0.000000e+00
         vertex 1.526452e+00 -1.463085e+01 0.000000e+00
         vertex 8.000000e+00 -1.290000e+01 0.000000e+00
      endloop
   endfacet
   facet normal 1.570634e-15 -7.346412e-16 -1.000000e+00
      outer loop
         vertex -5.301312e-01 -1.635652e+01 0.000000e+00
         vertex -2.472136e+00 -2.050845e+01 0.000000e+00
         vertex -1.342339e+00 -1.567500e+01 -1.776357e-15
      endloop
   endfacet
   facet normal 0.000000e+00 0.000000e+00 -1.000000e+00
      outer loop
         vertex -1.898203e-16 -1.335000e+01 0.000000e+00
         vertex -8.000000e+00 -1.108479e+01 0.000000e+00
         vertex 8.000000e+00 -1.108479e+01 0.000000e+00
      endloop
   endfacet
   facet normal 2.517129e-16 -2.517126e-16 -1.000000e+00
      outer loop
         vertex 1.342339e+00 -1.567500e+01 -1.776357e-15
         vertex 6.472136e+00 -1.760228e+01 0.000000e+00
         vertex 4.702282e+00 -1.937214e+01 0.000000e+00
      endloop
   endfacet
   facet normal 0.000000e+00 0.000000e+00 -1.000000e+00
      outer loop
         vertex 2.472136e+00 -2.050845e+01 0.000000e+00
         vertex 4.838388e-16 -2.090000e+01 0.000000e+00
         vertex 5.301312e-01 -1.635652e+01 0.000000e+00
      endloop
   endfacet
   facet normal 0.000000e+00 0.000000e+00 -1.000000e+00
      outer loop
         vertex -6.472136e+00 -1.760228e+01 0.000000e+00
         vertex -7.608452e+00 -1.537214e+01 0.000000e+00
         vertex -1.526452e+00 -1.463085e+01 0.000000e+00
      endloop
   endfacet
   facet normal -1.570634e-15 -7.346412e-16 -1.000000e+00
      outer loop
         vertex 5.301312e-01 -1.635652e+01 0.000000e+00
         vertex 1.342339e+00 -1.567500e+01 -1.776357e-15
         vertex 2.472136e+00 -2.050845e+01 0.000000e+00
      endloop
   endfacet
   facet normal 0.000000e+00 0.000000e+00 -1.000000e+00
      outer loop
         vertex 8.000000e+00 -1.108479e+01 0.000000e+00
         vertex 9.963208e-01 -1.371263e+01 0.000000e+00
         vertex -1.898203e-16 -1.335000e+01 0.000000e+00
      endloop
   endfacet
   facet normal 0.000000e+00 0.000000e+00 -1.000000e+00
      outer loop
         vertex 8.000000e+00 -1.290000e+01 0.000000e+00
         vertex 1.526452e+00 -1.463085e+01 0.000000e+00
         vertex 9.963208e-01 -1.371263e+01 0.000000e+00
      endloop
   endfacet
   facet normal -1.673286e-16 -3.284007e-16 -1.000000e+00
      outer loop
         vertex -2.472136e+00 -2.050845e+01 0.000000e+00
         vertex -4.702282e+00 -1.937214e+01 0.000000e+00
         vertex -1.342339e+00 -1.567500e+01 -1.776357e-15
      endloop
   endfacet
   facet normal 0.000000e+00 9.233736e-01 3.839025e-01
      outer loop
         vertex -8.000000e+00 -1.108479e+01 0.000000e+00
         vertex 8.000000e+00 -1.228393e+01 2.884213e+00
         vertex 8.000000e+00 -1.108479e+01 0.000000e+00
      endloop
   endfacet
   facet normal 0.000000e+00 9.952813e-01 -9.703204e-02
      outer loop
         vertex -8.000000e+00 -1.274582e+01 5.973433e+00
         vertex 8.000000e+00 -1.244273e+01 9.082253e+00
         vertex 8.000000e+00 -1.274582e+01 5.973433e+00
      endloop
   endfacet
   facet normal 0.000000e+00 8.318359e-01 -5.550217e-01
      outer loop
         vertex -8.000000e+00 -1.139286e+01 1.202409e+01
         vertex 8.000000e+00 -9.659219e+00 1.462238e+01
         vertex 8.000000e+00 -1.139286e+01 1.202409e+01
      endloop
   endfacet
   facet normal 0.000000e+00 4.716877e-01 -8.817657e-01
      outer loop
         vertex -8.000000e+00 -7.345852e+00 1.672118e+01
         vertex 8.000000e+00 -4.591605e+00 1.819452e+01
         vertex 8.000000e+00 -7.345852e+00 1.672118e+01
      endloop
   endfacet
   facet normal 0.000000e+00 -0.000000e+00 -1.000000e+00
      outer loop
         vertex -8.000000e+00 -1.561780e+00 1.895399e+01
         vertex 8.000000e+00 1.561780e+00 1.895399e+01
         vertex 8.000000e+00 -1.561780e+00 1.895399e+01
      endloop
   endfacet
   facet normal 0.000000e+00 -4.716877e-01 -8.817657e-01
      outer loop
         vertex -8.000000e+00 4.591605e+00 1.819452e+01
         vertex 8.000000e+00 7.345852e+00 1.672118e+01
         vertex 8.000000e+00 4.591605e+00 1.819452e+01
      endloop
   endfacet
   facet normal 0.000000e+00 -8.318359e-01 -5.550217e-01
      outer loop
         vertex -8.000000e+00 9.659219e+00 1.462238e+01
         vertex 8.000000e+00 1.139286e+01 1.202409e+01
         vertex 8.000000e+00 9.659219e+00 1.462238e+01
      endloop
   endfacet
   facet normal -0.000000e+00 -9.952813e-01 -9.703204e-02
      outer loop
         vertex -8.000000e+00 1.274582e+01 5.973433e+00
         vertex 8.000000e+00 1.274582e+01 5.973433e+00
         vertex 8.000000e+00 1.244273e+01 9.082253e+00
      endloop
   endfacet
   facet normal 0.000000e+00 -9.233736e-01 3.839025e-01
      outer loop
         vertex -8.000000e+00 1.228393e+01 2.884213e+00
         vertex 8.000000e+00 1.108479e+01 0.000000e+00
         vertex 8.000000e+00 1.228393e+01 2.884213e+00
      endloop
   endfacet
   facet normal 0.000000e+00 -9.233736e-01 3.839025e-01
      outer loop
         vertex 8.000000e+00 1.108479e+01 0.000000e+00
         vertex -8.000000e+00 1.228393e+01 2.884213e+00
         vertex -8.000000e+00 1.108479e+01 0.000000e+00
      endloop
   endfacet
   facet normal 0.000000e+00 -9.418216e-01 -3.361132e-01
      outer loop
         vertex 8.000000e+00 1.139286e+01 1.202409e+01
         vertex -8.000000e+00 1.139286e+01 1.202409e+01
         vertex -8.000000e+00 1.244273e+01 9.082253e+00
      endloop
   endfacet
   facet normal 0.000000e+00 -6.719256e-01 -7.406186e-01
      outer loop
         vertex 8.000000e+00 9.659219e+00 1.462238e+01
         vertex -8.000000e+00 7.345852e+00 1.672118e+01
         vertex -8.000000e+00 9.659219e+00 1.462238e+01
      endloop
   endfacet
   facet normal 0.000000e+00 -2.431401e-01 -9.699912e-01
      outer loop
         vertex 8.000000e+00 4.591605e+00 1.819452e+01
         vertex -8.000000e+00 1.561780e+00 1.895399e+01
         vertex -8.000000e+00 4.591605e+00 1.819452e+01
      endloop
   endfacet
   facet normal 0.000000e+00 2.431401e-01 -9.699912e-01
      outer loop
         vertex 8.000000e+00 -1.561780e+00 1.895399e+01
         vertex -8.000000e+00 -4.591605e+00 1.819452e+01
         vertex -8.000000e+00 -1.561780e+00 1.895399e+01
      endloop
   endfacet
   facet normal 0.000000e+00 6.719256e-01 -7.406186e-01
      outer loop
         vertex 8.000000e+00 -7.345852e+00 1.672118e+01
         vertex -8.000000e+00 -9.659219e+00 1.462238e+01
         vertex -8.000000e+00 -7.345852e+00 1.672118e+01
      endloop
   endfacet
   facet normal 0.000000e+00 9.418216e-01 -3.361132e-01
      outer loop
         vertex 8.000000e+00 -1.139286e+01 1.202409e+01
         vertex -8.000000e+00 -1.244273e+01 9.082253e+00
         vertex -8.000000e+00 -1.139286e+01 1.202409e+01
      endloop
   endfacet
   facet normal 0.000000e+00 9.890064e-01 1.478724e-01
      outer loop
         vertex 8.000000e+00 -1.274582e+01 5.973433e+00
         vertex -8.000000e+00 -1.228393e+01 2.884213e+00
         vertex -8.000000e+00 -1.274582e+01 5.973433e+00
      endloop
   endfacet
   facet normal 0.000000e+00 9.233736e-01 3.839025e-01
      outer loop
         vertex -8.000000e+00 -1.228393e+01 2.884213e+00
         vertex 8.000000e+00 -1.228393e+01 2.884213e+00
         vertex -8.000000e+00 -1.108479e+01 0.000000e+00
      endloop
   endfacet
   facet normal 0.000000e+00 4.716877e-01 -8.817657e-01
      outer loop
         vertex -8.000000e+00 -4.591605e+00 1.819452e+01
         vertex 8.000000e+00 -4.591605e+00 1.819452e+01
         vertex -8.000000e+00 -7.345852e+00 1.672118e+01
      endloop
   endfacet
   facet normal -0.000000e+00 -8.318359e-01 -5.550217e-01
      outer loop
         vertex -8.000000e+00 1.139286e+01 1.202409e+01
         vertex 8.000000e+00 1.139286e+01 1.202409e+01
         vertex -8.000000e+00 9.659219e+00 1.462238e+01
      endloop
   endfacet
   facet normal 0.000000e+00 -9.890064e-01 1.478724e-01
      outer loop
         vertex 8.000000e+00 1.274582e+01 5.973433e+00
         vertex -8.000000e+00 1.228393e+01 2.884213e+00
         vertex 8.000000e+00 1.228393e+01 2.884213e+00
      endloop
   endfacet
   facet normal 0.000000e+00 -2.431401e-01 -9.699912e-01
      outer loop
         vertex 8.000000e+00 1.561780e+00 1.895399e+01
         vertex -8.000000e+00 1.561780e+00 1.895399e+01
         vertex 8.000000e+00 4.591605e+00 1.819452e+01
      endloop
   endfacet
   facet normal 0.000000e+00 9.418216e-01 -3.361132e-01
      outer loop
         vertex 8.000000e+00 -1.244273e+01 9.082253e+00
         vertex -8.000000e+00 -1.244273e+01 9.082253e+00
         vertex 8.000000e+00 -1.139286e+01 1.202409e+01
      endloop
   endfacet
   facet normal 0.000000e+00 2.431401e-01 -9.699912e-01
      outer loop
         vertex 8.000000e+00 -1.561780e+00 1.895399e+01
         vertex 8.000000e+00 -4.591605e+00 1.819452e+01
         vertex -8.000000e+00 -4.591605e+00 1.819452e+01
      endloop
   endfacet
   facet normal 0.000000e+00 9.890064e-01 1.478724e-01
      outer loop
         vertex -8.000000e+00 -1.228393e+01 2.884213e+00
         vertex 8.000000e+00 -1.274582e+01 5.973433e+00
         vertex 8.000000e+00 -1.228393e+01 2.884213e+00
      endloop
   endfacet
   facet normal 0.000000e+00 -6.719256e-01 -7.406186e-01
      outer loop
         vertex -8.000000e+00 7.345852e+00 1.672118e+01
         vertex 8.000000e+00 9.659219e+00 1.462238e+01
         vertex 8.000000e+00 7.345852e+00 1.672118e+01
      endloop
   endfacet
   facet normal 0.000000e+00 -9.890064e-01 1.478724e-01
      outer loop
         vertex 8.000000e+00 1.274582e+01 5.973433e+00
         vertex -8.000000e+00 1.274582e+01 5.973433e+00
         vertex -8.000000e+00 1.228393e+01 2.884213e+00
      endloop
   endfacet
   facet normal 0.000000e+00 -4.716877e-01 -8.817657e-01
      outer loop
         vertex 8.000000e+00 7.345852e+00 1.672118e+01
         vertex -8.000000e+00 4.591605e+00 1.819452e+01
         vertex -8.000000e+00 7.345852e+00 1.672118e+01
      endloop
   endfacet
   facet normal 0.000000e+00 8.318359e-01 -5.550217e-01
      outer loop
         vertex 8.000000e+00 -9.659219e+00 1.462238e+01
         vertex -8.000000e+00 -1.139286e+01 1.202409e+01
         vertex -8.000000e+00 -9.659219e+00 1.462238e+01
      endloop
   endfacet
   facet normal 0.000000e+00 9.952813e-01 -9.703204e-02
      outer loop
         vertex -8.000000e+00 -1.244273e+01 9.082253e+00
         vertex 8.000000e+00 -1.244273e+01 9.082253e+00
         vertex -8.000000e+00 -1.274582e+01 5.973433e+00
      endloop
   endfacet
   facet normal 0.000000e+00 -9.418216e-01 -3.361132e-01
      outer loop
         vertex 8.000000e+00 1.244273e+01 9.082253e+00
         vertex 8.000000e+00 1.139286e+01 1.202409e+01
         vertex -8.000000e+00 1.244273e+01 9.082253e+00
      endloop
   endfacet
   facet normal 0.000000e+00 6.719256e-01 -7.406186e-01
      outer loop
         vertex 8.000000e+00 -7.345852e+00 1.672118e+01
         vertex 8.000000e+00 -9.659219e+00 1.462238e+01
         vertex -8.000000e+00 -9.659219e+00 1.462238e+01
      endloop
   endfacet
   facet normal 0.000000e+00 -9.952813e-01 -9.703204e-02
      outer loop
         vertex 8.000000e+00 1.244273e+01 9.082253e+00
         vertex -8.000000e+00 1.244273e+01 9.082253e+00
         vertex -8.000000e+00 1.274582e+01 5.973433e+00
      endloop
   endfacet
   facet normal -0.000000e+00 0.000000e+00 -1.000000e+00
      outer loop
         vertex -8.000000e+00 1.561780e+00 1.895399e+01
         vertex 8.000000e+00 1.561780e+00 1.895399e+01
         vertex -8.000000e+00 -1.561780e+00 1.895399e+01
      endloop
   endfacet
   facet normal 9.876883e-01 1.564344e-01 0.000000e+00
      outer loop
         vertex 7.608452e+00 1.537214e+01 2.300000e+01
         vertex 8.000000e+00 1.290000e+01 2.300000e+01
         vertex 8.000000e+00 1.290000e+01 0.000000e+00
      endloop
   endfacet
   facet normal 8.910065e-01 4.539906e-01 0.000000e+00
      outer loop
         vertex 7.608452e+00 1.537214e+01 0.000000e+00
         vertex 6.472136e+00 1.760228e+01 0.000000e+00
         vertex 7.608452e+00 1.537214e+01 2.300000e+01
      endloop
   endfacet
   facet normal 4.539906e-01 8.910065e-01 -0.000000e+00
      outer loop
         vertex 4.702282e+00 1.937214e+01 0.000000e+00
         vertex 2.472136e+00 2.050845e+01 0.000000e+00
         vertex 2.472136e+00 2.050845e+01 2.300000e+01
      endloop
   endfacet
   facet normal -1.564338e-01 9.876884e-01 0.000000e+00
      outer loop
         vertex 7.080935e-14 2.090000e+01 0.000000e+00
         vertex -2.472136e+00 2.050845e+01 0.000000e+00
         vertex -2.472136e+00 2.050845e+01 2.300000e+01
      endloop
   endfacet
   facet normal -7.071071e-01 7.071065e-01 0.000000e+00
      outer loop
         vertex -4.702282e+00 1.937214e+01 0.000000e+00
         vertex -6.472136e+00 1.760228e+01 0.000000e+00
         vertex -6.472136e+00 1.760228e+01 2.300000e+01
      endloop
   endfacet
   facet normal -9.876883e-01 1.564344e-01 0.000000e+00
      outer loop
         vertex -7.608452e+00 1.537214e+01 0.000000e+00
         vertex -8.000000e+00 1.290000e+01 0.000000e+00
         vertex -8.000000e+00 1.290000e+01 2.300000e+01
      endloop
   endfacet
   facet normal -8.910065e-01 4.539906e-01 0.000000e+00
      outer loop
         vertex -7.608452e+00 1.537214e+01 2.300000e+01
         vertex -6.472136e+00 1.760228e+01 2.300000e+01
         vertex -6.472136e+00 1.760228e+01 0.000000e+00
      endloop
   endfacet
   facet normal -4.539906e-01 8.910065e-01 0.000000e+00
      outer loop
         vertex -4.702282e+00 1.937214e+01 2.300000e+01
         vertex -2.472136e+00 2.050845e+01 2.300000e+01
         vertex -2.472136e+00 2.050845e+01 0.000000e+00
      endloop
   endfacet
   facet normal 1.564338e-01 9.876884e-01 0.000000e+00
      outer loop
         vertex 7.056442e-14 2.090000e+01 2.300000e+01
         vertex 2.472136e+00 2.050845e+01 2.300000e+01
         vertex 2.472136e+00 2.050845e+01 0.000000e+00
      endloop
   endfacet
   facet normal 7.071071e-01 7.071065e-01 0.000000e+00
      outer loop
         vertex 4.702282e+00 1.937214e+01 2.300000e+01
         vertex 6.472136e+00 1.760228e+01 2.300000e+01
         vertex 6.472136e+00 1.760228e+01 0.000000e+00
      endloop
   endfacet
   facet normal 9.876883e-01 1.564344e-01 0.000000e+00
      outer loop
         vertex 7.608452e+00 1.537214e+01 2.300000e+01
         vertex 8.000000e+00 1.290000e+01 0.000000e+00
         vertex 7.608452e+00 1.537214e+01 0.000000e+00
      endloop
   endfacet
   facet normal -1.564338e-01 9.876884e-01 0.000000e+00
      outer loop
         vertex 7.080935e-14 2.090000e+01 0.000000e+00
         vertex -2.472136e+00 2.050845e+01 2.300000e+01
         vertex 7.056442e-14 2.090000e+01 2.300000e+01
      endloop
   endfacet
   facet normal -8.910065e-01 4.539906e-01 0.000000e+00
      outer loop
         vertex -7.608452e+00 1.537214e+01 2.300000e+01
         vertex -6.472136e+00 1.760228e+01 0.000000e+00
         vertex -7.608452e+00 1.537214e+01 0.000000e+00
      endloop
   endfacet
   facet normal 7.071071e-01 7.071065e-01 0.000000e+00
      outer loop
         vertex 4.702282e+00 1.937214e+01 2.300000e+01
         vertex 6.472136e+00 1.760228e+01 0.000000e+00
         vertex 4.702282e+00 1.937214e+01 0.000000e+00
      endloop
   endfacet
   facet normal -9.876883e-01 1.564344e-01 0.000000e+00
      outer loop
         vertex -7.608452e+00 1.537214e+01 2.300000e+01
         vertex -7.608452e+00 1.537214e+01 0.000000e+00
         vertex -8.000000e+00 1.290000e+01 2.300000e+01
      endloop
   endfacet
   facet normal 1.564338e-01 9.876884e-01 1.665871e-18
      outer loop
         vertex 2.472136e+00 2.050845e+01 0.000000e+00
         vertex 7.080935e-14 2.090000e+01 0.000000e+00
         vertex 7.056442e-14 2.090000e+01 2.300000e+01
      endloop
   endfacet
   facet normal -7.071071e-01 7.071065e-01 0.000000e+00
      outer loop
         vertex -6.472136e+00 1.760228e+01 2.300000e+01
         vertex -4.702282e+00 1.937214e+01 2.300000e+01
         vertex -4.702282e+00 1.937214e+01 0.000000e+00
      endloop
   endfacet
   facet normal 8.910065e-01 4.539906e-01 0.000000e+00
      outer loop
         vertex 6.472136e+00 1.760228e+01 2.300000e+01
         vertex 7.608452e+00 1.537214e+01 2.300000e+01
         vertex 6.472136e+00 1.760228e+01 0.000000e+00
      endloop
   endfacet
   facet normal -4.539906e-01 8.910065e-01 0.000000e+00
      outer loop
         vertex -4.702282e+00 1.937214e+01 2.300000e+01
         vertex -2.472136e+00 2.050845e+01 0.000000e+00
         vertex -4.702282e+00 1.937214e+01 0.000000e+00
      endloop
   endfacet
   facet normal 4.539906e-01 8.910065e-01 0.000000e+00
      outer loop
         vertex 2.472136e+00 2.050845e+01 2.300000e+01
         vertex 4.702282e+00 1.937214e+01 2.300000e+01
         vertex 4.702282e+00 1.937214e+01 0.000000e+00
      endloop
   endfacet
   facet normal 3.420199e-01 -9.396927e-01 0.000000e+00
      outer loop
         vertex -9.963208e-01 1.608737e+01 0.000000e+00
         vertex 5.310089e-14 1.645000e+01 0.000000e+00
         vertex 5.310089e-14 1.645000e+01 1.900000e+01
      endloop
   endfacet
   facet normal 9.848078e-01 1.736481e-01 -0.000000e+00
      outer loop
         vertex -1.342339e+00 1.412500e+01 1.900000e+01
         vertex -1.342339e+00 1.412500e+01 0.000000e+00
         vertex -1.526452e+00 1.516916e+01 0.000000e+00
      endloop
   endfacet
   facet normal 0.000000e+00 1.000000e+00 -0.000000e+00
      outer loop
         vertex 5.301312e-01 1.344348e+01 1.900000e+01
         vertex 5.301312e-01 1.344348e+01 0.000000e+00
         vertex -5.301312e-01 1.344348e+01 0.000000e+00
      endloop
   endfacet
   facet normal -9.848078e-01 1.736481e-01 0.000000e+00
      outer loop
         vertex 1.526452e+00 1.516916e+01 1.900000e+01
         vertex 1.526452e+00 1.516916e+01 0.000000e+00
         vertex 1.342339e+00 1.412500e+01 0.000000e+00
      endloop
   endfacet
   facet normal -3.420199e-01 -9.396927e-01 0.000000e+00
      outer loop
         vertex 5.310089e-14 1.645000e+01 1.900000e+01
         vertex 5.310089e-14 1.645000e+01 0.000000e+00
         vertex 9.963208e-01 1.608737e+01 1.776357e-15
      endloop
   endfacet
   facet normal -8.660255e-01 -4.999998e-01 0.000000e+00
      outer loop
         vertex 9.963208e-01 1.608737e+01 1.776357e-15
         vertex 1.526452e+00 1.516916e+01 1.900000e+01
         vertex 9.963208e-01 1.608737e+01 1.900000e+01
      endloop
   endfacet
   facet normal -6.427875e-01 7.660446e-01 0.000000e+00
      outer loop
         vertex 5.301312e-01 1.344348e+01 0.000000e+00
         vertex 5.301312e-01 1.344348e+01 1.900000e+01
         vertex 1.342339e+00 1.412500e+01 1.900000e+01
      endloop
   endfacet
   facet normal 6.427875e-01 7.660446e-01 0.000000e+00
      outer loop
         vertex -1.342339e+00 1.412500e+01 0.000000e+00
         vertex -1.342339e+00 1.412500e+01 1.900000e+01
         vertex -5.301312e-01 1.344348e+01 1.900000e+01
      endloop
   endfacet
   facet normal 8.660255e-01 -4.999998e-01 0.000000e+00
      outer loop
         vertex -9.963208e-01 1.608737e+01 0.000000e+00
         vertex -9.963208e-01 1.608737e+01 1.900000e+01
         vertex -1.526452e+00 1.516916e+01 1.900000e+01
      endloop
   endfacet
   facet normal 3.420199e-01 -9.396927e-01 0.000000e+00
      outer loop
         vertex -9.963208e-01 1.608737e+01 1.900000e+01
         vertex -9.963208e-01 1.608737e+01 0.000000e+00
         vertex 5.310089e-14 1.645000e+01 1.900000e+01
      endloop
   endfacet
   facet normal -9.848078e-01 1.736481e-01 0.000000e+00
      outer loop
         vertex 1.342339e+00 1.412500e+01 1.900000e+01
         vertex 1.526452e+00 1.516916e+01 1.900000e+01
         vertex 1.342339e+00 1.412500e+01 0.000000e+00
      endloop
   endfacet
   facet normal -3.420199e-01 -9.396927e-01 0.000000e+00
      outer loop
         vertex 5.310089e-14 1.645000e+01 1.900000e+01
         vertex 9.963208e-01 1.608737e+01 1.776357e-15
         vertex 9.963208e-01 1.608737e+01 1.900000e+01
      endloop
   endfacet
   facet normal 8.660255e-01 -4.999998e-01 0.000000e+00
      outer loop
         vertex -1.526452e+00 1.516916e+01 0.000000e+00
         vertex -9.963208e-01 1.608737e+01 0.000000e+00
         vertex -1.526452e+00 1.516916e+01 1.900000e+01
      endloop
   endfacet
   facet normal 6.427875e-01 7.660446e-01 -0.000000e+00
      outer loop
         vertex -5.301312e-01 1.344348e+01 1.900000e+01
         vertex -5.301312e-01 1.344348e+01 0.000000e+00
         vertex -1.342339e+00 1.412500e+01 0.000000e+00
      endloop
   endfacet
   facet normal -8.660255e-01 -4.999998e-01 0.000000e+00
      outer loop
         vertex 1.526452e+00 1.516916e+01 1.900000e+01
         vertex 9.963208e-01 1.608737e+01 1.776357e-15
         vertex 1.526452e+00 1.516916e+01 0.000000e+00
      endloop
   endfacet
   facet normal 9.848078e-01 1.736481e-01 0.000000e+00
      outer loop
         vertex -1.526452e+00 1.516916e+01 0.000000e+00
         vertex -1.526452e+00 1.516916e+01 1.900000e+01
         vertex -1.342339e+00 1.412500e+01 1.900000e+01
      endloop
   endfacet
   facet normal -6.427875e-01 7.660446e-01 0.000000e+00
      outer loop
         vertex 1.342339e+00 1.412500e+01 0.000000e+00
         vertex 5.301312e-01 1.344348e+01 0.000000e+00
         vertex 1.342339e+00 1.412500e+01 1.900000e+01
      endloop
   endfacet
   facet normal -0.000000e+00 1.000000e+00 0.000000e+00
      outer loop
         vertex -5.301312e-01 1.344348e+01 0.000000e+00
         vertex -5.301312e-01 1.344348e+01 1.900000e+01
         vertex 5.301312e-01 1.344348e+01 1.900000e+01
      endloop
   endfacet
   facet normal 9.876883e-01 -1.564344e-01 0.000000e+00
      outer loop
         vertex 8.000000e+00 -1.290000e+01 0.000000e+00
         vertex 8.000000e+00 -1.290000e+01 2.300000e+01
         vertex 7.608452e+00 -1.537214e+01 2.300000e+01
      endloop
   endfacet
   facet normal 7.071071e-01 -7.071065e-01 0.000000e+00
      outer loop
         vertex 6.472136e+00 -1.760228e+01 2.300000e+01
         vertex 4.702282e+00 -1.937214e+01 2.300000e+01
         vertex 4.702282e+00 -1.937214e+01 0.000000e+00
      endloop
   endfacet
   facet normal 1.564338e-01 -9.876884e-01 -3.290815e-18
      outer loop
         vertex 2.472136e+00 -2.050845e+01 2.300000e+01
         vertex 9.676775e-16 -2.090000e+01 2.300000e+01
         vertex 4.838388e-16 -2.090000e+01 0.000000e+00
      endloop
   endfacet
   facet normal -4.539906e-01 -8.910065e-01 -0.000000e+00
      outer loop
         vertex -2.472136e+00 -2.050845e+01 2.300000e+01
         vertex -4.702282e+00 -1.937214e+01 2.300000e+01
         vertex -4.702282e+00 -1.937214e+01 0.000000e+00
      endloop
   endfacet
   facet normal -8.910065e-01 -4.539906e-01 -0.000000e+00
      outer loop
         vertex -6.472136e+00 -1.760228e+01 2.300000e+01
         vertex -7.608452e+00 -1.537214e+01 2.300000e+01
         vertex -7.608452e+00 -1.537214e+01 0.000000e+00
      endloop
   endfacet
   facet normal -9.876883e-01 -1.564344e-01 0.000000e+00
      outer loop
         vertex -8.000000e+00 -1.290000e+01 2.300000e+01
         vertex -8.000000e+00 -1.290000e+01 0.000000e+00
         vertex -7.608452e+00 -1.537214e+01 2.300000e+01
      endloop
   endfacet
   facet normal -7.071071e-01 -7.071065e-01 0.000000e+00
      outer loop
         vertex -6.472136e+00 -1.760228e+01 0.000000e+00
         vertex -4.702282e+00 -1.937214e+01 0.000000e+00
         vertex -4.702282e+00 -1.937214e+01 2.300000e+01
      endloop
   endfacet
   facet normal -1.564338e-01 -9.876884e-01 3.290815e-18
      outer loop
         vertex -2.472136e+00 -2.050845e+01 0.000000e+00
         vertex 4.838388e-16 -2.090000e+01 0.000000e+00
         vertex 9.676775e-16 -2.090000e+01 2.300000e+01
      endloop
   endfacet
   facet normal 4.539906e-01 -8.910065e-01 0.000000e+00
      outer loop
         vertex 2.472136e+00 -2.050845e+01 0.000000e+00
         vertex 4.702282e+00 -1.937214e+01 0.000000e+00
         vertex 4.702282e+00 -1.937214e+01 2.300000e+01
      endloop
   endfacet
   facet normal 8.910065e-01 -4.539906e-01 0.000000e+00
      outer loop
         vertex 6.472136e+00 -1.760228e+01 0.000000e+00
         vertex 7.608452e+00 -1.537214e+01 0.000000e+00
         vertex 7.608452e+00 -1.537214e+01 2.300000e+01
      endloop
   endfacet
   facet normal 9.876883e-01 -1.564344e-01 0.000000e+00
      outer loop
         vertex 8.000000e+00 -1.290000e+01 0.000000e+00
         vertex 7.608452e+00 -1.537214e+01 2.300000e+01
         vertex 7.608452e+00 -1.537214e+01 0.000000e+00
      endloop
   endfacet
   facet normal -4.539906e-01 -8.910065e-01 0.000000e+00
      outer loop
         vertex -2.472136e+00 -2.050845e+01 2.300000e+01
         vertex -4.702282e+00 -1.937214e+01 0.000000e+00
         vertex -2.472136e+00 -2.050845e+01 0.000000e+00
      endloop
   endfacet
   facet normal -9.876883e-01 -1.564344e-01 0.000000e+00
      outer loop
         vertex -7.608452e+00 -1.537214e+01 2.300000e+01
         vertex -8.000000e+00 -1.290000e+01 0.000000e+00
         vertex -7.608452e+00 -1.537214e+01 0.000000e+00
      endloop
   endfacet
   facet normal 8.910065e-01 -4.539906e-01 0.000000e+00
      outer loop
         vertex 6.472136e+00 -1.760228e+01 0.000000e+00
         vertex 7.608452e+00 -1.537214e+01 2.300000e+01
         vertex 6.472136e+00 -1.760228e+01 2.300000e+01
      endloop
   endfacet
   facet normal 4.539906e-01 -8.910065e-01 0.000000e+00
      outer loop
         vertex 4.702282e+00 -1.937214e+01 2.300000e+01
         vertex 2.472136e+00 -2.050845e+01 2.300000e+01
         vertex 2.472136e+00 -2.050845e+01 0.000000e+00
      endloop
   endfacet
   facet normal -7.071071e-01 -7.071065e-01 -0.000000e+00
      outer loop
         vertex -4.702282e+00 -1.937214e+01 2.300000e+01
         vertex -6.472136e+00 -1.760228e+01 2.300000e+01
         vertex -6.472136e+00 -1.760228e+01 0.000000e+00
      endloop
   endfacet
   facet normal 1.564338e-01 -9.876884e-01 0.000000e+00
      outer loop
         vertex 4.838388e-16 -2.090000e+01 0.000000e+00
         vertex 2.472136e+00 -2.050845e+01 0.000000e+00
         vertex 2.472136e+00 -2.050845e+01 2.300000e+01
      endloop
   endfacet
   facet normal 7.071071e-01 -7.071065e-01 0.000000e+00
      outer loop
         vertex 6.472136e+00 -1.760228e+01 2.300000e+01
         vertex 4.702282e+00 -1.937214e+01 0.000000e+00
         vertex 6.472136e+00 -1.760228e+01 0.000000e+00
      endloop
   endfacet
   facet normal -1.564338e-01 -9.876884e-01 0.000000e+00
      outer loop
         vertex -2.472136e+00 -2.050845e+01 2.300000e+01
         vertex -2.472136e+00 -2.050845e+01 0.000000e+00
         vertex 9.676775e-16 -2.090000e+01 2.300000e+01
      endloop
   endfacet
   facet normal -8.910065e-01 -4.539906e-01 0.000000e+00
      outer loop
         vertex -7.608452e+00 -1.537214e+01 0.000000e+00
         vertex -6.472136e+00 -1.760228e+01 0.000000e+00
         vertex -6.472136e+00 -1.760228e+01 2.300000e+01
      endloop
   endfacet
   facet normal 0.000000e+00 0.000000e+00 1.000000e+00
      outer loop
         vertex 8.000000e+00 -1.290000e+01 2.300000e+01
         vertex -8.000000e+00 1.290000e+01 2.300000e+01
         vertex -8.000000e+00 -1.290000e+01 2.300000e+01
      endloop
   endfacet
   facet normal -0.000000e+00 0.000000e+00 1.000000e+00
      outer loop
         vertex -4.702282e+00 1.937214e+01 2.300000e+01
         vertex -6.472136e+00 1.760228e+01 2.300000e+01
         vertex -7.608452e+00 1.537214e+01 2.300000e+01
      endloop
   endfacet
   facet normal 0.000000e+00 0.000000e+00 1.000000e+00
      outer loop
         vertex -4.702282e+00 1.937214e+01 2.300000e+01
         vertex 7.056442e-14 2.090000e+01 2.300000e+01
         vertex -2.472136e+00 2.050845e+01 2.300000e+01
      endloop
   endfacet
   facet normal 0.000000e+00 0.000000e+00 1.000000e+00
      outer loop
         vertex 7.056442e-14 2.090000e+01 2.300000e+01
         vertex 6.472136e+00 1.760228e+01 2.300000e+01
         vertex 4.702282e+00 1.937214e+01 2.300000e+01
      endloop
   endfacet
   facet normal 0.000000e+00 0.000000e+00 1.000000e+00
      outer loop
         vertex -8.000000e+00 1.290000e+01 2.300000e+01
         vertex 8.000000e+00 1.290000e+01 2.300000e+01
         vertex 7.608452e+00 1.537214e+01 2.300000e+01
      endloop
   endfacet
   facet normal 0.000000e+00 -0.000000e+00 1.000000e+00
      outer loop
         vertex 6.472136e+00 -1.760228e+01 2.300000e+01
         vertex 7.608452e+00 -1.537214e+01 2.300000e+01
         vertex 8.000000e+00 -1.290000e+01 2.300000e+01
      endloop
   endfacet
   facet normal 0.000000e+00 -0.000000e+00 1.000000e+00
      outer loop
         vertex 9.676775e-16 -2.090000e+01 2.300000e+01
         vertex 2.472136e+00 -2.050845e+01 2.300000e+01
         vertex 4.702282e+00 -1.937214e+01 2.300000e+01
      endloop
   endfacet
   facet normal 0.000000e+00 0.000000e+00 1.000000e+00
      outer loop
         vertex 9.676775e-16 -2.090000e+01 2.300000e+01
         vertex -4.702282e+00 -1.937214e+01 2.300000e+01
         vertex -2.472136e+00 -2.050845e+01 2.300000e+01
      endloop
   endfacet
   facet normal 0.000000e+00 0.000000e+00 1.000000e+00
      outer loop
         vertex -4.702282e+00 -1.937214e+01 2.300000e+01
         vertex -8.000000e+00 -1.290000e+01 2.300000e+01
         vertex -7.608452e+00 -1.537214e+01 2.300000e+01
      endloop
   endfacet
   facet normal -0.000000e+00 0.000000e+00 1.000000e+00
      outer loop
         vertex 8.000000e+00 1.290000e+01 2.300000e+01
         vertex -8.000000e+00 1.290000e+01 2.300000e+01
         vertex 8.000000e+00 -1.290000e+01 2.300000e+01
      endloop
   endfacet
   facet normal 0.000000e+00 0.000000e+00 1.000000e+00
      outer loop
         vertex 2.472136e+00 2.050845e+01 2.300000e+01
         vertex 7.056442e-14 2.090000e+01 2.300000e+01
         vertex 4.702282e+00 1.937214e+01 2.300000e+01
      endloop
   endfacet
   facet normal 0.000000e+00 0.000000e+00 1.000000e+00
      outer loop
         vertex 6.472136e+00 -1.760228e+01 2.300000e+01
         vertex 9.676775e-16 -2.090000e+01 2.300000e+01
         vertex 4.702282e+00 -1.937214e+01 2.300000e+01
      endloop
   endfacet
   facet normal 0.000000e+00 0.000000e+00 1.000000e+00
      outer loop
         vertex 6.472136e+00 -1.760228e+01 2.300000e+01
         vertex -8.000000e+00 -1.290000e+01 2.300000e+01
         vertex -4.702282e+00 -1.937214e+01 2.300000e+01
      endloop
   endfacet
   facet normal 0.000000e+00 0.000000e+00 1.000000e+00
      outer loop
         vertex 9.676775e-16 -2.090000e+01 2.300000e+01
         vertex 6.472136e+00 -1.760228e+01 2.300000e+01
         vertex -4.702282e+00 -1.937214e+01 2.300000e+01
      endloop
   endfacet
   facet normal -0.000000e+00 0.000000e+00 1.000000e+00
      outer loop
         vertex 7.608452e+00 1.537214e+01 2.300000e+01
         vertex -7.608452e+00 1.537214e+01 2.300000e+01
         vertex -8.000000e+00 1.290000e+01 2.300000e+01
      endloop
   endfacet
   facet normal -0.000000e+00 -0.000000e+00 1.000000e+00
      outer loop
         vertex -7.608452e+00 -1.537214e+01 2.300000e+01
         vertex -6.472136e+00 -1.760228e+01 2.300000e+01
         vertex -4.702282e+00 -1.937214e+01 2.300000e+01
      endloop
   endfacet
   facet normal -0.000000e+00 0.000000e+00 1.000000e+00
      outer loop
         vertex 7.056442e-14 2.090000e+01 2.300000e+01
         vertex -4.702282e+00 1.937214e+01 2.300000e+01
         vertex -7.608452e+00 1.537214e+01 2.300000e+01
      endloop
   endfacet
   facet normal 0.000000e+00 -0.000000e+00 1.000000e+00
      outer loop
         vertex -8.000000e+00 -1.290000e+01 2.300000e+01
         vertex 6.472136e+00 -1.760228e+01 2.300000e+01
         vertex 8.000000e+00 -1.290000e+01 2.300000e+01
      endloop
   endfacet
   facet normal 0.000000e+00 0.000000e+00 1.000000e+00
      outer loop
         vertex -7.608452e+00 1.537214e+01 2.300000e+01
         vertex 7.608452e+00 1.537214e+01 2.300000e+01
         vertex 6.472136e+00 1.760228e+01 2.300000e+01
      endloop
   endfacet
   facet normal 0.000000e+00 0.000000e+00 1.000000e+00
      outer loop
         vertex 6.472136e+00 1.760228e+01 2.300000e+01
         vertex 7.056442e-14 2.090000e+01 2.300000e+01
         vertex -7.608452e+00 1.537214e+01 2.300000e+01
      endloop
   endfacet
   facet normal 3.420199e-01 -9.396927e-01 0.000000e+00
      outer loop
         vertex -9.963208e-01 -1.371263e+01 0.000000e+00
         vertex -1.898203e-16 -1.335000e+01 0.000000e+00
         vertex -1.898203e-16 -1.335000e+01 1.900000e+01
      endloop
   endfacet
   facet normal 9.848078e-01 1.736481e-01 -0.000000e+00
      outer loop
         vertex -1.342339e+00 -1.567500e+01 1.900000e+01
         vertex -1.342339e+00 -1.567500e+01 -1.776357e-15
         vertex -1.526452e+00 -1.463085e+01 0.000000e+00
      endloop
   endfacet
   facet normal 0.000000e+00 1.000000e+00 -0.000000e+00
      outer loop
         vertex 5.301312e-01 -1.635652e+01 1.900000e+01
         vertex 5.301312e-01 -1.635652e+01 0.000000e+00
         vertex -5.301312e-01 -1.635652e+01 0.000000e+00
      endloop
   endfacet
   facet normal -9.848078e-01 1.736481e-01 0.000000e+00
      outer loop
         vertex 1.342339e+00 -1.567500e+01 1.900000e+01
         vertex 1.526452e+00 -1.463085e+01 0.000000e+00
         vertex 1.342339e+00 -1.567500e+01 -1.776357e-15
      endloop
   endfacet
   facet normal -3.420199e-01 -9.396927e-01 0.000000e+00
      outer loop
         vertex -1.898203e-16 -1.335000e+01 1.900000e+01
         vertex -1.898203e-16 -1.335000e+01 0.000000e+00
         vertex 9.963208e-01 -1.371263e+01 0.000000e+00
      endloop
   endfacet
   facet normal -8.660253e-01 -5.000002e-01 -0.000000e+00
      outer loop
         vertex 1.526452e+00 -1.463085e+01 0.000000e+00
         vertex 1.526452e+00 -1.463085e+01 1.900000e+01
         vertex 9.963208e-01 -1.371263e+01 1.900000e+01
      endloop
   endfacet
   facet normal -6.427875e-01 7.660446e-01 0.000000e+00
      outer loop
         vertex 5.301312e-01 -1.635652e+01 0.000000e+00
         vertex 5.301312e-01 -1.635652e+01 1.900000e+01
         vertex 1.342339e+00 -1.567500e+01 1.900000e+01
      endloop
   endfacet
   facet normal 6.427875e-01 7.660446e-01 0.000000e+00
      outer loop
         vertex -5.301312e-01 -1.635652e+01 0.000000e+00
         vertex -1.342339e+00 -1.567500e+01 1.900000e+01
         vertex -5.301312e-01 -1.635652e+01 1.900000e+01
      endloop
   endfacet
   facet normal 8.660253e-01 -5.000002e-01 0.000000e+00
      outer loop
         vertex -9.963208e-01 -1.371263e+01 0.000000e+00
         vertex -9.963208e-01 -1.371263e+01 1.900000e+01
         vertex -1.526452e+00 -1.463085e+01 1.900000e+01
      endloop
   endfacet
   facet normal 3.420199e-01 -9.396927e-01 0.000000e+00
      outer loop
         vertex -9.963208e-01 -1.371263e+01 1.900000e+01
         vertex -9.963208e-01 -1.371263e+01 0.000000e+00
         vertex -1.898203e-16 -1.335000e+01 1.900000e+01
      endloop
   endfacet
   facet normal 0.000000e+00 1.000000e+00 0.000000e+00
      outer loop
         vertex -5.301312e-01 -1.635652e+01 1.900000e+01
         vertex 5.301312e-01 -1.635652e+01 1.900000e+01
         vertex -5.301312e-01 -1.635652e+01 0.000000e+00
      endloop
   endfacet
   facet normal -3.420199e-01 -9.396927e-01 0.000000e+00
      outer loop
         vertex 9.963208e-01 -1.371263e+01 1.900000e+01
         vertex -1.898203e-16 -1.335000e+01 1.900000e+01
         vertex 9.963208e-01 -1.371263e+01 0.000000e+00
      endloop
   endfacet
   facet normal -6.427875e-01 7.660446e-01 0.000000e+00
      outer loop
         vertex 1.342339e+00 -1.567500e+01 -1.776357e-15
         vertex 5.301312e-01 -1.635652e+01 0.000000e+00
         vertex 1.342339e+00 -1.567500e+01 1.900000e+01
      endloop
   endfacet
   facet normal 8.660253e-01 -5.000002e-01 0.000000e+00
      outer loop
         vertex -1.526452e+00 -1.463085e+01 1.900000e+01
         vertex -1.526452e+00 -1.463085e+01 0.000000e+00
         vertex -9.963208e-01 -1.371263e+01 0.000000e+00
      endloop
   endfacet
   facet normal -8.660253e-01 -5.000002e-01 0.000000e+00
      outer loop
         vertex 9.963208e-01 -1.371263e+01 1.900000e+01
         vertex 9.963208e-01 -1.371263e+01 0.000000e+00
         vertex 1.526452e+00 -1.463085e+01 0.000000e+00
      endloop
   endfacet
   facet normal 9.848078e-01 1.736481e-01 0.000000e+00
      outer loop
         vertex -1.526452e+00 -1.463085e+01 0.000000e+00
         vertex -1.526452e+00 -1.463085e+01 1.900000e+01
         vertex -1.342339e+00 -1.567500e+01 1.900000e+01
      endloop
   endfacet
   facet normal -9.848078e-01 1.736481e-01 0.000000e+00
      outer loop
         vertex 1.526452e+00 -1.463085e+01 1.900000e+01
         vertex 1.526452e+00 -1.463085e+01 0.000000e+00
         vertex 1.342339e+00 -1.567500e+01 1.900000e+01
      endloop
   endfacet
   facet normal 6.427875e-01 7.660446e-01 0.000000e+00
      outer loop
         vertex -1.342339e+00 -1.567500e+01 1.900000e+01
         vertex -5.301312e-01 -1.635652e+01 0.000000e+00
         vertex -1.342339e+00 -1.567500e+01 -1.776357e-15
      endloop
   endfacet
   facet normal 0.000000e+00 0.000000e+00 -1.000000e+00
      outer loop
         vertex -9.963208e-01 1.608737e+01 1.900000e+01
         vertex 5.310089e-14 1.645000e+01 1.900000e+01
         vertex -1.526452e+00 1.516916e+01 1.900000e+01
      endloop
   endfacet
   facet normal -0.000000e+00 0.000000e+00 -1.000000e+00
      outer loop
         vertex 9.963208e-01 1.608737e+01 1.900000e+01
         vertex 1.526452e+00 1.516916e+01 1.900000e+01
         vertex 1.342339e+00 1.412500e+01 1.900000e+01
      endloop
   endfacet
   facet normal 0.000000e+00 0.000000e+00 -1.000000e+00
      outer loop
         vertex 5.301312e-01 1.344348e+01 1.900000e+01
         vertex -5.301312e-01 1.344348e+01 1.900000e+01
         vertex 1.342339e+00 1.412500e+01 1.900000e+01
      endloop
   endfacet
   facet normal 0.000000e+00 -0.000000e+00 -1.000000e+00
      outer loop
         vertex -1.526452e+00 1.516916e+01 1.900000e+01
         vertex 5.310089e-14 1.645000e+01 1.900000e+01
         vertex 9.963208e-01 1.608737e+01 1.900000e+01
      endloop
   endfacet
   facet normal 0.000000e+00 0.000000e+00 -1.000000e+00
      outer loop
         vertex -1.526452e+00 1.516916e+01 1.900000e+01
         vertex 9.963208e-01 1.608737e+01 1.900000e+01
         vertex -1.342339e+00 1.412500e+01 1.900000e+01
      endloop
   endfacet
   facet normal 0.000000e+00 0.000000e+00 -1.000000e+00
      outer loop
         vertex -5.301312e-01 1.344348e+01 1.900000e+01
         vertex -1.342339e+00 1.412500e+01 1.900000e+01
         vertex 1.342339e+00 1.412500e+01 1.900000e+01
      endloop
   endfacet
   facet normal 0.000000e+00 -0.000000e+00 -1.000000e+00
      outer loop
         vertex -1.342339e+00 1.412500e+01 1.900000e+01
         vertex 9.963208e-01 1.608737e+01 1.900000e+01
         vertex 1.342339e+00 1.412500e+01 1.900000e+01
      endloop
   endfacet
   facet normal 0.000000e+00 -0.000000e+00 -1.000000e+00
      outer loop
         vertex -9.963208e-01 -1.371263e+01 1.900000e+01
         vertex -1.898203e-16 -1.335000e+01 1.900000e+01
         vertex 9.963208e-01 -1.371263e+01 1.900000e+01
      endloop
   endfacet
   facet normal 0.000000e+00 0.000000e+00 -1.000000e+00
      outer loop
         vertex 1.526452e+00 -1.463085e+01 1.900000e+01
         vertex 1.342339e+00 -1.567500e+01 1.900000e+01
         vertex -9.963208e-01 -1.371263e+01 1.900000e+01
      endloop
   endfacet
   facet normal 0.000000e+00 0.000000e+00 -1.000000e+00
      outer loop
         vertex 5.301312e-01 -1.635652e+01 1.900000e+01
         vertex -5.301312e-01 -1.635652e+01 1.900000e+01
         vertex -1.342339e+00 -1.567500e+01 1.900000e+01
      endloop
   endfacet
   facet normal 0.000000e+00 0.000000e+00 -1.000000e+00
      outer loop
         vertex -1.526452e+00 -1.463085e+01 1.900000e+01
         vertex -9.963208e-01 -1.371263e+01 1.900000e+01
         vertex -1.342339e+00 -1.567500e+01 1.900000e+01
      endloop
   endfacet
   facet normal -0.000000e+00 0.000000e+00 -1.000000e+00
      outer loop
         vertex -9.963208e-01 -1.371263e+01 1.900000e+01
         vertex 1.342339e+00 -1.567500e+01 1.900000e+01
         vertex 5.301312e-01 -1.635652e+01 1.900000e+01
      endloop
   endfacet
   facet normal 0.000000e+00 0.000000e+00 -1.000000e+00
      outer loop
         vertex -9.963208e-01 -1.371263e+01 1.900000e+01
         vertex 5.301312e-01 -1.635652e+01 1.900000e+01
         vertex -1.342339e+00 -1.567500e+01 1.900000e+01
      endloop
   endfacet
   facet normal 0.000000e+00 0.000000e+00 -1.000000e+00
      outer loop
         vertex 9.963208e-01 -1.371263e+01 1.900000e+01
         vertex 1.526452e+00 -1.463085e+01 1.900000e+01
         vertex -9.963208e-01 -1.371263e+01 1.900000e+01
      endloop
   endfacet
endsolid
