solid 
   facet normal -0.000000e+00 1.000000e+00 0.000000e+00
      outer loop
         vertex -4.767879e+00 1.400000e+00 -1.974920e+00
         vertex -5.160715e+00 1.400000e+00 0.000000e+00
         vertex -1.300000e+00 1.400000e+00 0.000000e+00
      endloop
   endfacet
   facet normal 0.000000e+00 1.000000e+00 0.000000e+00
      outer loop
         vertex -4.767879e+00 1.400000e+00 1.974920e+00
         vertex -3.649176e+00 1.400000e+00 3.649176e+00
         vertex -9.192388e-01 1.400000e+00 9.192388e-01
      endloop
   endfacet
   facet normal 0.000000e+00 1.000000e+00 0.000000e+00
      outer loop
         vertex -1.974920e+00 1.400000e+00 4.767879e+00
         vertex -4.942815e-16 1.400000e+00 5.160715e+00
         vertex -2.578809e-16 1.400000e+00 1.300000e+00
      endloop
   endfacet
   facet normal 0.000000e+00 1.000000e+00 0.000000e+00
      outer loop
         vertex 1.974920e+00 1.400000e+00 4.767879e+00
         vertex 3.649176e+00 1.400000e+00 3.649176e+00
         vertex 9.192388e-01 1.400000e+00 9.192388e-01
      endloop
   endfacet
   facet normal 0.000000e+00 1.000000e+00 0.000000e+00
      outer loop
         vertex 4.767879e+00 1.400000e+00 1.974920e+00
         vertex 5.160715e+00 1.400000e+00 6.320053e-16
         vertex 1.300000e+00 1.400000e+00 1.592041e-16
      endloop
   endfacet
   facet normal 0.000000e+00 1.000000e+00 -0.000000e+00
      outer loop
         vertex 4.767879e+00 1.400000e+00 -1.974920e+00
         vertex 3.649176e+00 1.400000e+00 -3.649176e+00
         vertex 9.192388e-01 1.400000e+00 -9.192388e-01
      endloop
   endfacet
   facet normal 0.000000e+00 1.000000e+00 -0.000000e+00
      outer loop
         vertex 1.974920e+00 1.400000e+00 -4.767879e+00
         vertex 7.697290e-16 1.400000e+00 -5.160715e+00
         vertex 6.052724e-17 1.400000e+00 -1.300000e+00
      endloop
   endfacet
   facet normal -0.000000e+00 1.000000e+00 0.000000e+00
      outer loop
         vertex -1.974920e+00 1.400000e+00 -4.767879e+00
         vertex -3.649176e+00 1.400000e+00 -3.649176e+00
         vertex -9.192388e-01 1.400000e+00 -9.192388e-01
      endloop
   endfacet
   facet normal 0.000000e+00 1.000000e+00 -0.000000e+00
      outer loop
         vertex -9.192388e-01 1.400000e+00 9.192388e-01
         vertex -1.300000e+00 1.400000e+00 0.000000e+00
         vertex -4.767879e+00 1.400000e+00 1.974920e+00
      endloop
   endfacet
   facet normal 0.000000e+00 1.000000e+00 0.000000e+00
      outer loop
         vertex -9.192388e-01 1.400000e+00 -9.192388e-01
         vertex 6.052724e-17 1.400000e+00 -1.300000e+00
         vertex -1.974920e+00 1.400000e+00 -4.767879e+00
      endloop
   endfacet
   facet normal 0.000000e+00 1.000000e+00 0.000000e+00
      outer loop
         vertex 9.192388e-01 1.400000e+00 -9.192388e-01
         vertex 1.300000e+00 1.400000e+00 1.592041e-16
         vertex 4.767879e+00 1.400000e+00 -1.974920e+00
      endloop
   endfacet
   facet normal -0.000000e+00 1.000000e+00 0.000000e+00
      outer loop
         vertex 9.192388e-01 1.400000e+00 9.192388e-01
         vertex -2.578809e-16 1.400000e+00 1.300000e+00
         vertex 1.974920e+00 1.400000e+00 4.767879e+00
      endloop
   endfacet
   facet normal 0.000000e+00 1.000000e+00 0.000000e+00
      outer loop
         vertex -4.767879e+00 1.400000e+00 -1.974920e+00
         vertex -1.300000e+00 1.400000e+00 0.000000e+00
         vertex -9.192388e-01 1.400000e+00 -9.192388e-01
      endloop
   endfacet
   facet normal 0.000000e+00 1.000000e+00 0.000000e+00
      outer loop
         vertex -1.974920e+00 1.400000e+00 4.767879e+00
         vertex -2.578809e-16 1.400000e+00 1.300000e+00
         vertex -9.192388e-01 1.400000e+00 9.192388e-01
      endloop
   endfacet
   facet normal 0.000000e+00 1.000000e+00 -0.000000e+00
      outer loop
         vertex 4.767879e+00 1.400000e+00 1.974920e+00
         vertex 1.300000e+00 1.400000e+00 1.592041e-16
         vertex 9.192388e-01 1.400000e+00 9.192388e-01
      endloop
   endfacet
   facet normal -0.000000e+00 1.000000e+00 0.000000e+00
      outer loop
         vertex 1.974920e+00 1.400000e+00 -4.767879e+00
         vertex 6.052724e-17 1.400000e+00 -1.300000e+00
         vertex 9.192388e-01 1.400000e+00 -9.192388e-01
      endloop
   endfacet
   facet normal 0.000000e+00 1.000000e+00 0.000000e+00
      outer loop
         vertex -4.767879e+00 1.400000e+00 1.974920e+00
         vertex -1.300000e+00 1.400000e+00 0.000000e+00
         vertex -5.160715e+00 1.400000e+00 0.000000e+00
      endloop
   endfacet
   facet normal 0.000000e+00 1.000000e+00 0.000000e+00
      outer loop
         vertex -4.767879e+00 1.400000e+00 -1.974920e+00
         vertex -9.192388e-01 1.400000e+00 -9.192388e-01
         vertex -3.649176e+00 1.400000e+00 -3.649176e+00
      endloop
   endfacet
   facet normal 0.000000e+00 1.000000e+00 0.000000e+00
      outer loop
         vertex -3.649176e+00 1.400000e+00 3.649176e+00
         vertex -1.974920e+00 1.400000e+00 4.767879e+00
         vertex -9.192388e-01 1.400000e+00 9.192388e-01
      endloop
   endfacet
   facet normal 0.000000e+00 1.000000e+00 0.000000e+00
      outer loop
         vertex 3.649176e+00 1.400000e+00 3.649176e+00
         vertex 4.767879e+00 1.400000e+00 1.974920e+00
         vertex 9.192388e-01 1.400000e+00 9.192388e-01
      endloop
   endfacet
   facet normal 0.000000e+00 1.000000e+00 -0.000000e+00
      outer loop
         vertex 3.649176e+00 1.400000e+00 -3.649176e+00
         vertex 1.974920e+00 1.400000e+00 -4.767879e+00
         vertex 9.192388e-01 1.400000e+00 -9.192388e-01
      endloop
   endfacet
   facet normal 0.000000e+00 1.000000e+00 0.000000e+00
      outer loop
         vertex -2.578809e-16 1.400000e+00 1.300000e+00
         vertex -4.942815e-16 1.400000e+00 5.160715e+00
         vertex 1.974920e+00 1.400000e+00 4.767879e+00
      endloop
   endfacet
   facet normal 0.000000e+00 1.000000e+00 0.000000e+00
      outer loop
         vertex -1.974920e+00 1.400000e+00 -4.767879e+00
         vertex 6.052724e-17 1.400000e+00 -1.300000e+00
         vertex 7.697290e-16 1.400000e+00 -5.160715e+00
      endloop
   endfacet
   facet normal 0.000000e+00 1.000000e+00 -0.000000e+00
      outer loop
         vertex 5.160715e+00 1.400000e+00 6.320053e-16
         vertex 4.767879e+00 1.400000e+00 -1.974920e+00
         vertex 1.300000e+00 1.400000e+00 1.592041e-16
      endloop
   endfacet
   facet normal -9.807853e-01 0.000000e+00 1.950904e-01
      outer loop
         vertex -4.767879e+00 1.400000e+00 1.974920e+00
         vertex -5.160715e+00 1.400000e+00 0.000000e+00
         vertex -5.160715e+00 -1.400000e+00 0.000000e+00
      endloop
   endfacet
   facet normal -8.314696e-01 0.000000e+00 5.555702e-01
      outer loop
         vertex -4.767879e+00 -1.400000e+00 1.974920e+00
         vertex -3.649176e+00 -1.400000e+00 3.649176e+00
         vertex -4.767879e+00 1.400000e+00 1.974920e+00
      endloop
   endfacet
   facet normal -1.950904e-01 1.194584e-17 9.807853e-01
      outer loop
         vertex -1.974920e+00 -1.400000e+00 4.767879e+00
         vertex -6.657321e-16 -1.400000e+00 5.160715e+00
         vertex -4.942815e-16 1.400000e+00 5.160715e+00
      endloop
   endfacet
   facet normal 5.555702e-01 -0.000000e+00 8.314696e-01
      outer loop
         vertex 1.974920e+00 -1.400000e+00 4.767879e+00
         vertex 3.649176e+00 -1.400000e+00 3.649176e+00
         vertex 3.649176e+00 1.400000e+00 3.649176e+00
      endloop
   endfacet
   facet normal 9.807853e-01 -0.000000e+00 1.950904e-01
      outer loop
         vertex 4.767879e+00 -1.400000e+00 1.974920e+00
         vertex 5.160715e+00 -1.400000e+00 6.320053e-16
         vertex 5.160715e+00 1.400000e+00 6.320053e-16
      endloop
   endfacet
   facet normal 8.314696e-01 0.000000e+00 -5.555702e-01
      outer loop
         vertex 4.767879e+00 -1.400000e+00 -1.974920e+00
         vertex 3.649176e+00 -1.400000e+00 -3.649176e+00
         vertex 3.649176e+00 1.400000e+00 -3.649176e+00
      endloop
   endfacet
   facet normal 1.950904e-01 -1.194584e-17 -9.807853e-01
      outer loop
         vertex 1.974920e+00 -1.400000e+00 -4.767879e+00
         vertex 5.982785e-16 -1.400000e+00 -5.160715e+00
         vertex 7.697290e-16 1.400000e+00 -5.160715e+00
      endloop
   endfacet
   facet normal -5.555702e-01 0.000000e+00 -8.314696e-01
      outer loop
         vertex -1.974920e+00 -1.400000e+00 -4.767879e+00
         vertex -3.649176e+00 -1.400000e+00 -3.649176e+00
         vertex -3.649176e+00 1.400000e+00 -3.649176e+00
      endloop
   endfacet
   facet normal -9.807853e-01 0.000000e+00 -1.950904e-01
      outer loop
         vertex -4.767879e+00 -1.400000e+00 -1.974920e+00
         vertex -5.160715e+00 -1.400000e+00 0.000000e+00
         vertex -5.160715e+00 1.400000e+00 0.000000e+00
      endloop
   endfacet
   facet normal -8.314696e-01 -0.000000e+00 -5.555702e-01
      outer loop
         vertex -4.767879e+00 1.400000e+00 -1.974920e+00
         vertex -3.649176e+00 1.400000e+00 -3.649176e+00
         vertex -3.649176e+00 -1.400000e+00 -3.649176e+00
      endloop
   endfacet
   facet normal -1.950904e-01 1.194584e-17 -9.807853e-01
      outer loop
         vertex -1.974920e+00 1.400000e+00 -4.767879e+00
         vertex 7.697290e-16 1.400000e+00 -5.160715e+00
         vertex 5.982785e-16 -1.400000e+00 -5.160715e+00
      endloop
   endfacet
   facet normal 5.555702e-01 0.000000e+00 -8.314696e-01
      outer loop
         vertex 1.974920e+00 1.400000e+00 -4.767879e+00
         vertex 3.649176e+00 1.400000e+00 -3.649176e+00
         vertex 3.649176e+00 -1.400000e+00 -3.649176e+00
      endloop
   endfacet
   facet normal 9.807853e-01 0.000000e+00 -1.950904e-01
      outer loop
         vertex 4.767879e+00 1.400000e+00 -1.974920e+00
         vertex 5.160715e+00 1.400000e+00 6.320053e-16
         vertex 5.160715e+00 -1.400000e+00 6.320053e-16
      endloop
   endfacet
   facet normal 8.314696e-01 0.000000e+00 5.555702e-01
      outer loop
         vertex 4.767879e+00 1.400000e+00 1.974920e+00
         vertex 3.649176e+00 1.400000e+00 3.649176e+00
         vertex 3.649176e+00 -1.400000e+00 3.649176e+00
      endloop
   endfacet
   facet normal 1.950904e-01 -1.194584e-17 9.807853e-01
      outer loop
         vertex 1.974920e+00 1.400000e+00 4.767879e+00
         vertex -4.942815e-16 1.400000e+00 5.160715e+00
         vertex -6.657321e-16 -1.400000e+00 5.160715e+00
      endloop
   endfacet
   facet normal -5.555702e-01 0.000000e+00 8.314696e-01
      outer loop
         vertex -1.974920e+00 1.400000e+00 4.767879e+00
         vertex -3.649176e+00 1.400000e+00 3.649176e+00
         vertex -3.649176e+00 -1.400000e+00 3.649176e+00
      endloop
   endfacet
   facet normal -9.807853e-01 0.000000e+00 1.950904e-01
      outer loop
         vertex -4.767879e+00 1.400000e+00 1.974920e+00
         vertex -5.160715e+00 -1.400000e+00 0.000000e+00
         vertex -4.767879e+00 -1.400000e+00 1.974920e+00
      endloop
   endfacet
   facet normal 5.555702e-01 0.000000e+00 8.314696e-01
      outer loop
         vertex 1.974920e+00 -1.400000e+00 4.767879e+00
         vertex 3.649176e+00 1.400000e+00 3.649176e+00
         vertex 1.974920e+00 1.400000e+00 4.767879e+00
      endloop
   endfacet
   facet normal 1.950904e-01 0.000000e+00 -9.807853e-01
      outer loop
         vertex 1.974920e+00 -1.400000e+00 -4.767879e+00
         vertex 7.697290e-16 1.400000e+00 -5.160715e+00
         vertex 1.974920e+00 1.400000e+00 -4.767879e+00
      endloop
   endfacet
   facet normal -8.314696e-01 0.000000e+00 -5.555702e-01
      outer loop
         vertex -4.767879e+00 1.400000e+00 -1.974920e+00
         vertex -3.649176e+00 -1.400000e+00 -3.649176e+00
         vertex -4.767879e+00 -1.400000e+00 -1.974920e+00
      endloop
   endfacet
   facet normal 9.807853e-01 0.000000e+00 -1.950904e-01
      outer loop
         vertex 4.767879e+00 1.400000e+00 -1.974920e+00
         vertex 5.160715e+00 -1.400000e+00 6.320053e-16
         vertex 4.767879e+00 -1.400000e+00 -1.974920e+00
      endloop
   endfacet
   facet normal -5.555702e-01 0.000000e+00 8.314696e-01
      outer loop
         vertex -1.974920e+00 1.400000e+00 4.767879e+00
         vertex -3.649176e+00 -1.400000e+00 3.649176e+00
         vertex -1.974920e+00 -1.400000e+00 4.767879e+00
      endloop
   endfacet
   facet normal 5.555702e-01 0.000000e+00 -8.314696e-01
      outer loop
         vertex 1.974920e+00 -1.400000e+00 -4.767879e+00
         vertex 1.974920e+00 1.400000e+00 -4.767879e+00
         vertex 3.649176e+00 -1.400000e+00 -3.649176e+00
      endloop
   endfacet
   facet normal 1.950904e-01 -0.000000e+00 9.807853e-01
      outer loop
         vertex -6.657321e-16 -1.400000e+00 5.160715e+00
         vertex 1.974920e+00 -1.400000e+00 4.767879e+00
         vertex 1.974920e+00 1.400000e+00 4.767879e+00
      endloop
   endfacet
   facet normal -1.950904e-01 0.000000e+00 -9.807853e-01
      outer loop
         vertex 5.982785e-16 -1.400000e+00 -5.160715e+00
         vertex -1.974920e+00 -1.400000e+00 -4.767879e+00
         vertex -1.974920e+00 1.400000e+00 -4.767879e+00
      endloop
   endfacet
   facet normal -5.555702e-01 -0.000000e+00 -8.314696e-01
      outer loop
         vertex -3.649176e+00 1.400000e+00 -3.649176e+00
         vertex -1.974920e+00 1.400000e+00 -4.767879e+00
         vertex -1.974920e+00 -1.400000e+00 -4.767879e+00
      endloop
   endfacet
   facet normal 9.807853e-01 0.000000e+00 1.950904e-01
      outer loop
         vertex 5.160715e+00 1.400000e+00 6.320053e-16
         vertex 4.767879e+00 1.400000e+00 1.974920e+00
         vertex 4.767879e+00 -1.400000e+00 1.974920e+00
      endloop
   endfacet
   facet normal -8.314696e-01 0.000000e+00 5.555702e-01
      outer loop
         vertex -3.649176e+00 1.400000e+00 3.649176e+00
         vertex -4.767879e+00 1.400000e+00 1.974920e+00
         vertex -3.649176e+00 -1.400000e+00 3.649176e+00
      endloop
   endfacet
   facet normal 8.314696e-01 0.000000e+00 -5.555702e-01
      outer loop
         vertex 4.767879e+00 -1.400000e+00 -1.974920e+00
         vertex 3.649176e+00 1.400000e+00 -3.649176e+00
         vertex 4.767879e+00 1.400000e+00 -1.974920e+00
      endloop
   endfacet
   facet normal -9.807853e-01 0.000000e+00 -1.950904e-01
      outer loop
         vertex -4.767879e+00 1.400000e+00 -1.974920e+00
         vertex -4.767879e+00 -1.400000e+00 -1.974920e+00
         vertex -5.160715e+00 1.400000e+00 0.000000e+00
      endloop
   endfacet
   facet normal 8.314696e-01 -0.000000e+00 5.555702e-01
      outer loop
         vertex 3.649176e+00 -1.400000e+00 3.649176e+00
         vertex 4.767879e+00 -1.400000e+00 1.974920e+00
         vertex 4.767879e+00 1.400000e+00 1.974920e+00
      endloop
   endfacet
   facet normal -1.950904e-01 0.000000e+00 9.807853e-01
      outer loop
         vertex -1.974920e+00 -1.400000e+00 4.767879e+00
         vertex -4.942815e-16 1.400000e+00 5.160715e+00
         vertex -1.974920e+00 1.400000e+00 4.767879e+00
      endloop
   endfacet
   facet normal 0.000000e+00 -1.000000e+00 0.000000e+00
      outer loop
         vertex -4.767879e+00 -1.400000e+00 1.974920e+00
         vertex -5.160715e+00 -1.400000e+00 0.000000e+00
         vertex -1.300000e+00 -1.400000e+00 0.000000e+00
      endloop
   endfacet
   facet normal 0.000000e+00 -1.000000e+00 0.000000e+00
      outer loop
         vertex -4.767879e+00 -1.400000e+00 -1.974920e+00
         vertex -3.649176e+00 -1.400000e+00 -3.649176e+00
         vertex -9.192388e-01 -1.400000e+00 -9.192388e-01
      endloop
   endfacet
   facet normal 0.000000e+00 -1.000000e+00 0.000000e+00
      outer loop
         vertex -1.974920e+00 -1.400000e+00 -4.767879e+00
         vertex 5.982785e-16 -1.400000e+00 -5.160715e+00
         vertex -1.109233e-16 -1.400000e+00 -1.300000e+00
      endloop
   endfacet
   facet normal -0.000000e+00 -1.000000e+00 0.000000e+00
      outer loop
         vertex 1.974920e+00 -1.400000e+00 -4.767879e+00
         vertex 3.649176e+00 -1.400000e+00 -3.649176e+00
         vertex 9.192388e-01 -1.400000e+00 -9.192388e-01
      endloop
   endfacet
   facet normal 0.000000e+00 -1.000000e+00 0.000000e+00
      outer loop
         vertex 4.767879e+00 -1.400000e+00 -1.974920e+00
         vertex 5.160715e+00 -1.400000e+00 6.320053e-16
         vertex 1.300000e+00 -1.400000e+00 1.592041e-16
      endloop
   endfacet
   facet normal 0.000000e+00 -1.000000e+00 -0.000000e+00
      outer loop
         vertex 4.767879e+00 -1.400000e+00 1.974920e+00
         vertex 3.649176e+00 -1.400000e+00 3.649176e+00
         vertex 9.192388e-01 -1.400000e+00 9.192388e-01
      endloop
   endfacet
   facet normal 0.000000e+00 -1.000000e+00 0.000000e+00
      outer loop
         vertex 1.974920e+00 -1.400000e+00 4.767879e+00
         vertex -6.657321e-16 -1.400000e+00 5.160715e+00
         vertex -4.293315e-16 -1.400000e+00 1.300000e+00
      endloop
   endfacet
   facet normal 0.000000e+00 -1.000000e+00 0.000000e+00
      outer loop
         vertex -1.974920e+00 -1.400000e+00 4.767879e+00
         vertex -3.649176e+00 -1.400000e+00 3.649176e+00
         vertex -9.192388e-01 -1.400000e+00 9.192388e-01
      endloop
   endfacet
   facet normal 0.000000e+00 -1.000000e+00 -0.000000e+00
      outer loop
         vertex -9.192388e-01 -1.400000e+00 -9.192388e-01
         vertex -1.300000e+00 -1.400000e+00 0.000000e+00
         vertex -4.767879e+00 -1.400000e+00 -1.974920e+00
      endloop
   endfacet
   facet normal -0.000000e+00 -1.000000e+00 0.000000e+00
      outer loop
         vertex -9.192388e-01 -1.400000e+00 9.192388e-01
         vertex -4.293315e-16 -1.400000e+00 1.300000e+00
         vertex -1.974920e+00 -1.400000e+00 4.767879e+00
      endloop
   endfacet
   facet normal 0.000000e+00 -1.000000e+00 0.000000e+00
      outer loop
         vertex 9.192388e-01 -1.400000e+00 9.192388e-01
         vertex 1.300000e+00 -1.400000e+00 1.592041e-16
         vertex 4.767879e+00 -1.400000e+00 1.974920e+00
      endloop
   endfacet
   facet normal 0.000000e+00 -1.000000e+00 0.000000e+00
      outer loop
         vertex 9.192388e-01 -1.400000e+00 -9.192388e-01
         vertex -1.109233e-16 -1.400000e+00 -1.300000e+00
         vertex 1.974920e+00 -1.400000e+00 -4.767879e+00
      endloop
   endfacet
   facet normal 0.000000e+00 -1.000000e+00 0.000000e+00
      outer loop
         vertex -4.767879e+00 -1.400000e+00 1.974920e+00
         vertex -1.300000e+00 -1.400000e+00 0.000000e+00
         vertex -9.192388e-01 -1.400000e+00 9.192388e-01
      endloop
   endfacet
   facet normal -0.000000e+00 -1.000000e+00 0.000000e+00
      outer loop
         vertex -1.974920e+00 -1.400000e+00 -4.767879e+00
         vertex -1.109233e-16 -1.400000e+00 -1.300000e+00
         vertex -9.192388e-01 -1.400000e+00 -9.192388e-01
      endloop
   endfacet
   facet normal 0.000000e+00 -1.000000e+00 -0.000000e+00
      outer loop
         vertex 4.767879e+00 -1.400000e+00 -1.974920e+00
         vertex 1.300000e+00 -1.400000e+00 1.592041e-16
         vertex 9.192388e-01 -1.400000e+00 -9.192388e-01
      endloop
   endfacet
   facet normal 0.000000e+00 -1.000000e+00 0.000000e+00
      outer loop
         vertex 1.974920e+00 -1.400000e+00 4.767879e+00
         vertex -4.293315e-16 -1.400000e+00 1.300000e+00
         vertex 9.192388e-01 -1.400000e+00 9.192388e-01
      endloop
   endfacet
   facet normal -0.000000e+00 -1.000000e+00 0.000000e+00
      outer loop
         vertex -4.767879e+00 -1.400000e+00 -1.974920e+00
         vertex -1.300000e+00 -1.400000e+00 0.000000e+00
         vertex -5.160715e+00 -1.400000e+00 0.000000e+00
      endloop
   endfacet
   facet normal 0.000000e+00 -1.000000e+00 0.000000e+00
      outer loop
         vertex -4.767879e+00 -1.400000e+00 1.974920e+00
         vertex -9.192388e-01 -1.400000e+00 9.192388e-01
         vertex -3.649176e+00 -1.400000e+00 3.649176e+00
      endloop
   endfacet
   facet normal 0.000000e+00 -1.000000e+00 0.000000e+00
      outer loop
         vertex -3.649176e+00 -1.400000e+00 -3.649176e+00
         vertex -1.974920e+00 -1.400000e+00 -4.767879e+00
         vertex -9.192388e-01 -1.400000e+00 -9.192388e-01
      endloop
   endfacet
   facet normal -0.000000e+00 -1.000000e+00 0.000000e+00
      outer loop
         vertex 3.649176e+00 -1.400000e+00 -3.649176e+00
         vertex 4.767879e+00 -1.400000e+00 -1.974920e+00
         vertex 9.192388e-01 -1.400000e+00 -9.192388e-01
      endloop
   endfacet
   facet normal 0.000000e+00 -1.000000e+00 -0.000000e+00
      outer loop
         vertex 3.649176e+00 -1.400000e+00 3.649176e+00
         vertex 1.974920e+00 -1.400000e+00 4.767879e+00
         vertex 9.192388e-01 -1.400000e+00 9.192388e-01
      endloop
   endfacet
   facet normal 0.000000e+00 -1.000000e+00 0.000000e+00
      outer loop
         vertex -1.109233e-16 -1.400000e+00 -1.300000e+00
         vertex 5.982785e-16 -1.400000e+00 -5.160715e+00
         vertex 1.974920e+00 -1.400000e+00 -4.767879e+00
      endloop
   endfacet
   facet normal 0.000000e+00 -1.000000e+00 0.000000e+00
      outer loop
         vertex -1.974920e+00 -1.400000e+00 4.767879e+00
         vertex -4.293315e-16 -1.400000e+00 1.300000e+00
         vertex -6.657321e-16 -1.400000e+00 5.160715e+00
      endloop
   endfacet
   facet normal 0.000000e+00 -1.000000e+00 -0.000000e+00
      outer loop
         vertex 5.160715e+00 -1.400000e+00 6.320053e-16
         vertex 4.767879e+00 -1.400000e+00 1.974920e+00
         vertex 1.300000e+00 -1.400000e+00 1.592041e-16
      endloop
   endfacet
   facet normal 9.238795e-01 0.000000e+00 -3.826834e-01
      outer loop
         vertex -9.192388e-01 -1.400000e+00 9.192388e-01
         vertex -1.300000e+00 -1.400000e+00 0.000000e+00
         vertex -1.300000e+00 1.400000e+00 0.000000e+00
      endloop
   endfacet
   facet normal 3.826834e-01 0.000000e+00 -9.238795e-01
      outer loop
         vertex -9.192388e-01 1.400000e+00 9.192388e-01
         vertex -2.578809e-16 1.400000e+00 1.300000e+00
         vertex -9.192388e-01 -1.400000e+00 9.192388e-01
      endloop
   endfacet
   facet normal -9.238795e-01 -0.000000e+00 -3.826834e-01
      outer loop
         vertex 9.192388e-01 1.400000e+00 9.192388e-01
         vertex 1.300000e+00 1.400000e+00 1.592041e-16
         vertex 1.300000e+00 -1.400000e+00 1.592041e-16
      endloop
   endfacet
   facet normal -3.826834e-01 2.343260e-17 9.238795e-01
      outer loop
         vertex 9.192388e-01 1.400000e+00 -9.192388e-01
         vertex 6.052724e-17 1.400000e+00 -1.300000e+00
         vertex -1.109233e-16 -1.400000e+00 -1.300000e+00
      endloop
   endfacet
   facet normal 9.238795e-01 0.000000e+00 3.826834e-01
      outer loop
         vertex -9.192388e-01 1.400000e+00 -9.192388e-01
         vertex -1.300000e+00 1.400000e+00 0.000000e+00
         vertex -1.300000e+00 -1.400000e+00 0.000000e+00
      endloop
   endfacet
   facet normal 3.826834e-01 -2.343260e-17 9.238795e-01
      outer loop
         vertex -9.192388e-01 -1.400000e+00 -9.192388e-01
         vertex -1.109233e-16 -1.400000e+00 -1.300000e+00
         vertex 6.052724e-17 1.400000e+00 -1.300000e+00
      endloop
   endfacet
   facet normal -9.238795e-01 0.000000e+00 3.826834e-01
      outer loop
         vertex 9.192388e-01 -1.400000e+00 -9.192388e-01
         vertex 1.300000e+00 -1.400000e+00 1.592041e-16
         vertex 1.300000e+00 1.400000e+00 1.592041e-16
      endloop
   endfacet
   facet normal -3.826834e-01 2.343260e-17 -9.238795e-01
      outer loop
         vertex 9.192388e-01 -1.400000e+00 9.192388e-01
         vertex -4.293315e-16 -1.400000e+00 1.300000e+00
         vertex -2.578809e-16 1.400000e+00 1.300000e+00
      endloop
   endfacet
   facet normal 9.238795e-01 0.000000e+00 -3.826834e-01
      outer loop
         vertex -9.192388e-01 -1.400000e+00 9.192388e-01
         vertex -1.300000e+00 1.400000e+00 0.000000e+00
         vertex -9.192388e-01 1.400000e+00 9.192388e-01
      endloop
   endfacet
   facet normal -3.826834e-01 0.000000e+00 9.238795e-01
      outer loop
         vertex 9.192388e-01 1.400000e+00 -9.192388e-01
         vertex -1.109233e-16 -1.400000e+00 -1.300000e+00
         vertex 9.192388e-01 -1.400000e+00 -9.192388e-01
      endloop
   endfacet
   facet normal -9.238795e-01 0.000000e+00 3.826834e-01
      outer loop
         vertex 9.192388e-01 -1.400000e+00 -9.192388e-01
         vertex 1.300000e+00 1.400000e+00 1.592041e-16
         vertex 9.192388e-01 1.400000e+00 -9.192388e-01
      endloop
   endfacet
   facet normal -3.826834e-01 -0.000000e+00 -9.238795e-01
      outer loop
         vertex -2.578809e-16 1.400000e+00 1.300000e+00
         vertex 9.192388e-01 1.400000e+00 9.192388e-01
         vertex 9.192388e-01 -1.400000e+00 9.192388e-01
      endloop
   endfacet
   facet normal 9.238795e-01 -0.000000e+00 3.826834e-01
      outer loop
         vertex -1.300000e+00 -1.400000e+00 0.000000e+00
         vertex -9.192388e-01 -1.400000e+00 -9.192388e-01
         vertex -9.192388e-01 1.400000e+00 -9.192388e-01
      endloop
   endfacet
   facet normal 3.826834e-01 -1.992550e-17 -9.238795e-01
      outer loop
         vertex -4.293315e-16 -1.400000e+00 1.300000e+00
         vertex -9.192388e-01 -1.400000e+00 9.192388e-01
         vertex -2.578809e-16 1.400000e+00 1.300000e+00
      endloop
   endfacet
   facet normal 3.826834e-01 0.000000e+00 9.238795e-01
      outer loop
         vertex -9.192388e-01 -1.400000e+00 -9.192388e-01
         vertex 6.052724e-17 1.400000e+00 -1.300000e+00
         vertex -9.192388e-01 1.400000e+00 -9.192388e-01
      endloop
   endfacet
   facet normal -9.238795e-01 0.000000e+00 -3.826834e-01
      outer loop
         vertex 1.300000e+00 -1.400000e+00 1.592041e-16
         vertex 9.192388e-01 -1.400000e+00 9.192388e-01
         vertex 9.192388e-01 1.400000e+00 9.192388e-01
      endloop
   endfacet
endsolid
