solid 
   facet normal -0.000000e+00 1.000000e+00 0.000000e+00
      outer loop
         vertex -4.767879e+00 1.500000e+00 -1.974920e+00
         vertex -5.160715e+00 1.500000e+00 0.000000e+00
         vertex -1.250000e+00 1.500000e+00 0.000000e+00
      endloop
   endfacet
   facet normal 0.000000e+00 1.000000e+00 0.000000e+00
      outer loop
         vertex -4.767879e+00 1.500000e+00 1.974920e+00
         vertex -3.649176e+00 1.500000e+00 3.649176e+00
         vertex -8.838835e-01 1.500000e+00 8.838835e-01
      endloop
   endfacet
   facet normal 0.000000e+00 1.000000e+00 0.000000e+00
      outer loop
         vertex -1.974920e+00 1.500000e+00 4.767879e+00
         vertex -4.881583e-16 1.500000e+00 5.160715e+00
         vertex -2.486961e-16 1.500000e+00 1.250000e+00
      endloop
   endfacet
   facet normal 0.000000e+00 1.000000e+00 0.000000e+00
      outer loop
         vertex 1.974920e+00 1.500000e+00 4.767879e+00
         vertex 3.649176e+00 1.500000e+00 3.649176e+00
         vertex 8.838835e-01 1.500000e+00 8.838835e-01
      endloop
   endfacet
   facet normal 0.000000e+00 1.000000e+00 0.000000e+00
      outer loop
         vertex 4.767879e+00 1.500000e+00 1.974920e+00
         vertex 5.160715e+00 1.500000e+00 6.320053e-16
         vertex 1.250000e+00 1.500000e+00 1.530808e-16
      endloop
   endfacet
   facet normal 0.000000e+00 1.000000e+00 -0.000000e+00
      outer loop
         vertex 4.767879e+00 1.500000e+00 -1.974920e+00
         vertex 3.649176e+00 1.500000e+00 -3.649176e+00
         vertex 8.838835e-01 1.500000e+00 -8.838835e-01
      endloop
   endfacet
   facet normal 0.000000e+00 1.000000e+00 -0.000000e+00
      outer loop
         vertex 1.974920e+00 1.500000e+00 -4.767879e+00
         vertex 7.758523e-16 1.500000e+00 -5.160715e+00
         vertex 5.746563e-17 1.500000e+00 -1.250000e+00
      endloop
   endfacet
   facet normal -0.000000e+00 1.000000e+00 0.000000e+00
      outer loop
         vertex -1.974920e+00 1.500000e+00 -4.767879e+00
         vertex -3.649176e+00 1.500000e+00 -3.649176e+00
         vertex -8.838835e-01 1.500000e+00 -8.838835e-01
      endloop
   endfacet
   facet normal 0.000000e+00 1.000000e+00 -0.000000e+00
      outer loop
         vertex -8.838835e-01 1.500000e+00 8.838835e-01
         vertex -1.250000e+00 1.500000e+00 0.000000e+00
         vertex -4.767879e+00 1.500000e+00 1.974920e+00
      endloop
   endfacet
   facet normal 0.000000e+00 1.000000e+00 0.000000e+00
      outer loop
         vertex -8.838835e-01 1.500000e+00 -8.838835e-01
         vertex 5.746563e-17 1.500000e+00 -1.250000e+00
         vertex -1.974920e+00 1.500000e+00 -4.767879e+00
      endloop
   endfacet
   facet normal 0.000000e+00 1.000000e+00 0.000000e+00
      outer loop
         vertex 8.838835e-01 1.500000e+00 -8.838835e-01
         vertex 1.250000e+00 1.500000e+00 1.530808e-16
         vertex 4.767879e+00 1.500000e+00 -1.974920e+00
      endloop
   endfacet
   facet normal -0.000000e+00 1.000000e+00 0.000000e+00
      outer loop
         vertex 8.838835e-01 1.500000e+00 8.838835e-01
         vertex -2.486961e-16 1.500000e+00 1.250000e+00
         vertex 1.974920e+00 1.500000e+00 4.767879e+00
      endloop
   endfacet
   facet normal 0.000000e+00 1.000000e+00 0.000000e+00
      outer loop
         vertex -4.767879e+00 1.500000e+00 -1.974920e+00
         vertex -1.250000e+00 1.500000e+00 0.000000e+00
         vertex -8.838835e-01 1.500000e+00 -8.838835e-01
      endloop
   endfacet
   facet normal 0.000000e+00 1.000000e+00 0.000000e+00
      outer loop
         vertex -1.974920e+00 1.500000e+00 4.767879e+00
         vertex -2.486961e-16 1.500000e+00 1.250000e+00
         vertex -8.838835e-01 1.500000e+00 8.838835e-01
      endloop
   endfacet
   facet normal 0.000000e+00 1.000000e+00 -0.000000e+00
      outer loop
         vertex 4.767879e+00 1.500000e+00 1.974920e+00
         vertex 1.250000e+00 1.500000e+00 1.530808e-16
         vertex 8.838835e-01 1.500000e+00 8.838835e-01
      endloop
   endfacet
   facet normal -0.000000e+00 1.000000e+00 0.000000e+00
      outer loop
         vertex 1.974920e+00 1.500000e+00 -4.767879e+00
         vertex 5.746563e-17 1.500000e+00 -1.250000e+00
         vertex 8.838835e-01 1.500000e+00 -8.838835e-01
      endloop
   endfacet
   facet normal 0.000000e+00 1.000000e+00 0.000000e+00
      outer loop
         vertex -4.767879e+00 1.500000e+00 1.974920e+00
         vertex -1.250000e+00 1.500000e+00 0.000000e+00
         vertex -5.160715e+00 1.500000e+00 0.000000e+00
      endloop
   endfacet
   facet normal 0.000000e+00 1.000000e+00 0.000000e+00
      outer loop
         vertex -4.767879e+00 1.500000e+00 -1.974920e+00
         vertex -8.838835e-01 1.500000e+00 -8.838835e-01
         vertex -3.649176e+00 1.500000e+00 -3.649176e+00
      endloop
   endfacet
   facet normal 0.000000e+00 1.000000e+00 0.000000e+00
      outer loop
         vertex -3.649176e+00 1.500000e+00 3.649176e+00
         vertex -1.974920e+00 1.500000e+00 4.767879e+00
         vertex -8.838835e-01 1.500000e+00 8.838835e-01
      endloop
   endfacet
   facet normal 0.000000e+00 1.000000e+00 0.000000e+00
      outer loop
         vertex 3.649176e+00 1.500000e+00 3.649176e+00
         vertex 4.767879e+00 1.500000e+00 1.974920e+00
         vertex 8.838835e-01 1.500000e+00 8.838835e-01
      endloop
   endfacet
   facet normal 0.000000e+00 1.000000e+00 -0.000000e+00
      outer loop
         vertex 3.649176e+00 1.500000e+00 -3.649176e+00
         vertex 1.974920e+00 1.500000e+00 -4.767879e+00
         vertex 8.838835e-01 1.500000e+00 -8.838835e-01
      endloop
   endfacet
   facet normal 0.000000e+00 1.000000e+00 0.000000e+00
      outer loop
         vertex -2.486961e-16 1.500000e+00 1.250000e+00
         vertex -4.881583e-16 1.500000e+00 5.160715e+00
         vertex 1.974920e+00 1.500000e+00 4.767879e+00
      endloop
   endfacet
   facet normal 0.000000e+00 1.000000e+00 0.000000e+00
      outer loop
         vertex -1.974920e+00 1.500000e+00 -4.767879e+00
         vertex 5.746563e-17 1.500000e+00 -1.250000e+00
         vertex 7.758523e-16 1.500000e+00 -5.160715e+00
      endloop
   endfacet
   facet normal 0.000000e+00 1.000000e+00 -0.000000e+00
      outer loop
         vertex 5.160715e+00 1.500000e+00 6.320053e-16
         vertex 4.767879e+00 1.500000e+00 -1.974920e+00
         vertex 1.250000e+00 1.500000e+00 1.530808e-16
      endloop
   endfacet
   facet normal -9.807853e-01 0.000000e+00 1.950904e-01
      outer loop
         vertex -4.767879e+00 1.500000e+00 1.974920e+00
         vertex -5.160715e+00 1.500000e+00 0.000000e+00
         vertex -5.160715e+00 -1.500000e+00 0.000000e+00
      endloop
   endfacet
   facet normal -8.314696e-01 0.000000e+00 5.555702e-01
      outer loop
         vertex -4.767879e+00 -1.500000e+00 1.974920e+00
         vertex -3.649176e+00 -1.500000e+00 3.649176e+00
         vertex -4.767879e+00 1.500000e+00 1.974920e+00
      endloop
   endfacet
   facet normal -1.950904e-01 1.194584e-17 9.807853e-01
      outer loop
         vertex -1.974920e+00 -1.500000e+00 4.767879e+00
         vertex -6.718553e-16 -1.500000e+00 5.160715e+00
         vertex -4.881583e-16 1.500000e+00 5.160715e+00
      endloop
   endfacet
   facet normal 5.555702e-01 -0.000000e+00 8.314696e-01
      outer loop
         vertex 1.974920e+00 -1.500000e+00 4.767879e+00
         vertex 3.649176e+00 -1.500000e+00 3.649176e+00
         vertex 3.649176e+00 1.500000e+00 3.649176e+00
      endloop
   endfacet
   facet normal 9.807853e-01 -0.000000e+00 1.950904e-01
      outer loop
         vertex 4.767879e+00 -1.500000e+00 1.974920e+00
         vertex 5.160715e+00 -1.500000e+00 6.320053e-16
         vertex 5.160715e+00 1.500000e+00 6.320053e-16
      endloop
   endfacet
   facet normal 8.314696e-01 0.000000e+00 -5.555702e-01
      outer loop
         vertex 4.767879e+00 -1.500000e+00 -1.974920e+00
         vertex 3.649176e+00 -1.500000e+00 -3.649176e+00
         vertex 3.649176e+00 1.500000e+00 -3.649176e+00
      endloop
   endfacet
   facet normal 1.950904e-01 -1.194584e-17 -9.807853e-01
      outer loop
         vertex 1.974920e+00 -1.500000e+00 -4.767879e+00
         vertex 5.921552e-16 -1.500000e+00 -5.160715e+00
         vertex 7.758523e-16 1.500000e+00 -5.160715e+00
      endloop
   endfacet
   facet normal -5.555702e-01 0.000000e+00 -8.314696e-01
      outer loop
         vertex -1.974920e+00 -1.500000e+00 -4.767879e+00
         vertex -3.649176e+00 -1.500000e+00 -3.649176e+00
         vertex -3.649176e+00 1.500000e+00 -3.649176e+00
      endloop
   endfacet
   facet normal -9.807853e-01 0.000000e+00 -1.950904e-01
      outer loop
         vertex -4.767879e+00 -1.500000e+00 -1.974920e+00
         vertex -5.160715e+00 -1.500000e+00 0.000000e+00
         vertex -5.160715e+00 1.500000e+00 0.000000e+00
      endloop
   endfacet
   facet normal -8.314696e-01 -0.000000e+00 -5.555702e-01
      outer loop
         vertex -4.767879e+00 1.500000e+00 -1.974920e+00
         vertex -3.649176e+00 1.500000e+00 -3.649176e+00
         vertex -3.649176e+00 -1.500000e+00 -3.649176e+00
      endloop
   endfacet
   facet normal -1.950904e-01 1.194584e-17 -9.807853e-01
      outer loop
         vertex -1.974920e+00 1.500000e+00 -4.767879e+00
         vertex 7.758523e-16 1.500000e+00 -5.160715e+00
         vertex 5.921552e-16 -1.500000e+00 -5.160715e+00
      endloop
   endfacet
   facet normal 5.555702e-01 0.000000e+00 -8.314696e-01
      outer loop
         vertex 1.974920e+00 1.500000e+00 -4.767879e+00
         vertex 3.649176e+00 1.500000e+00 -3.649176e+00
         vertex 3.649176e+00 -1.500000e+00 -3.649176e+00
      endloop
   endfacet
   facet normal 9.807853e-01 0.000000e+00 -1.950904e-01
      outer loop
         vertex 4.767879e+00 1.500000e+00 -1.974920e+00
         vertex 5.160715e+00 1.500000e+00 6.320053e-16
         vertex 5.160715e+00 -1.500000e+00 6.320053e-16
      endloop
   endfacet
   facet normal 8.314696e-01 0.000000e+00 5.555702e-01
      outer loop
         vertex 4.767879e+00 1.500000e+00 1.974920e+00
         vertex 3.649176e+00 1.500000e+00 3.649176e+00
         vertex 3.649176e+00 -1.500000e+00 3.649176e+00
      endloop
   endfacet
   facet normal 1.950904e-01 -1.194584e-17 9.807853e-01
      outer loop
         vertex 1.974920e+00 1.500000e+00 4.767879e+00
         vertex -4.881583e-16 1.500000e+00 5.160715e+00
         vertex -6.718553e-16 -1.500000e+00 5.160715e+00
      endloop
   endfacet
   facet normal -5.555702e-01 0.000000e+00 8.314696e-01
      outer loop
         vertex -1.974920e+00 1.500000e+00 4.767879e+00
         vertex -3.649176e+00 1.500000e+00 3.649176e+00
         vertex -3.649176e+00 -1.500000e+00 3.649176e+00
      endloop
   endfacet
   facet normal -9.807853e-01 0.000000e+00 1.950904e-01
      outer loop
         vertex -4.767879e+00 1.500000e+00 1.974920e+00
         vertex -5.160715e+00 -1.500000e+00 0.000000e+00
         vertex -4.767879e+00 -1.500000e+00 1.974920e+00
      endloop
   endfacet
   facet normal 5.555702e-01 0.000000e+00 8.314696e-01
      outer loop
         vertex 1.974920e+00 -1.500000e+00 4.767879e+00
         vertex 3.649176e+00 1.500000e+00 3.649176e+00
         vertex 1.974920e+00 1.500000e+00 4.767879e+00
      endloop
   endfacet
   facet normal 1.950904e-01 0.000000e+00 -9.807853e-01
      outer loop
         vertex 1.974920e+00 -1.500000e+00 -4.767879e+00
         vertex 7.758523e-16 1.500000e+00 -5.160715e+00
         vertex 1.974920e+00 1.500000e+00 -4.767879e+00
      endloop
   endfacet
   facet normal -8.314696e-01 0.000000e+00 -5.555702e-01
      outer loop
         vertex -4.767879e+00 1.500000e+00 -1.974920e+00
         vertex -3.649176e+00 -1.500000e+00 -3.649176e+00
         vertex -4.767879e+00 -1.500000e+00 -1.974920e+00
      endloop
   endfacet
   facet normal 9.807853e-01 0.000000e+00 -1.950904e-01
      outer loop
         vertex 4.767879e+00 1.500000e+00 -1.974920e+00
         vertex 5.160715e+00 -1.500000e+00 6.320053e-16
         vertex 4.767879e+00 -1.500000e+00 -1.974920e+00
      endloop
   endfacet
   facet normal -5.555702e-01 0.000000e+00 8.314696e-01
      outer loop
         vertex -1.974920e+00 1.500000e+00 4.767879e+00
         vertex -3.649176e+00 -1.500000e+00 3.649176e+00
         vertex -1.974920e+00 -1.500000e+00 4.767879e+00
      endloop
   endfacet
   facet normal 5.555702e-01 0.000000e+00 -8.314696e-01
      outer loop
         vertex 1.974920e+00 -1.500000e+00 -4.767879e+00
         vertex 1.974920e+00 1.500000e+00 -4.767879e+00
         vertex 3.649176e+00 -1.500000e+00 -3.649176e+00
      endloop
   endfacet
   facet normal 1.950904e-01 -0.000000e+00 9.807853e-01
      outer loop
         vertex -6.718553e-16 -1.500000e+00 5.160715e+00
         vertex 1.974920e+00 -1.500000e+00 4.767879e+00
         vertex 1.974920e+00 1.500000e+00 4.767879e+00
      endloop
   endfacet
   facet normal -1.950904e-01 0.000000e+00 -9.807853e-01
      outer loop
         vertex 5.921552e-16 -1.500000e+00 -5.160715e+00
         vertex -1.974920e+00 -1.500000e+00 -4.767879e+00
         vertex -1.974920e+00 1.500000e+00 -4.767879e+00
      endloop
   endfacet
   facet normal -5.555702e-01 -0.000000e+00 -8.314696e-01
      outer loop
         vertex -3.649176e+00 1.500000e+00 -3.649176e+00
         vertex -1.974920e+00 1.500000e+00 -4.767879e+00
         vertex -1.974920e+00 -1.500000e+00 -4.767879e+00
      endloop
   endfacet
   facet normal 9.807853e-01 0.000000e+00 1.950904e-01
      outer loop
         vertex 5.160715e+00 1.500000e+00 6.320053e-16
         vertex 4.767879e+00 1.500000e+00 1.974920e+00
         vertex 4.767879e+00 -1.500000e+00 1.974920e+00
      endloop
   endfacet
   facet normal -8.314696e-01 0.000000e+00 5.555702e-01
      outer loop
         vertex -3.649176e+00 1.500000e+00 3.649176e+00
         vertex -4.767879e+00 1.500000e+00 1.974920e+00
         vertex -3.649176e+00 -1.500000e+00 3.649176e+00
      endloop
   endfacet
   facet normal 8.314696e-01 0.000000e+00 -5.555702e-01
      outer loop
         vertex 4.767879e+00 -1.500000e+00 -1.974920e+00
         vertex 3.649176e+00 1.500000e+00 -3.649176e+00
         vertex 4.767879e+00 1.500000e+00 -1.974920e+00
      endloop
   endfacet
   facet normal -9.807853e-01 0.000000e+00 -1.950904e-01
      outer loop
         vertex -4.767879e+00 1.500000e+00 -1.974920e+00
         vertex -4.767879e+00 -1.500000e+00 -1.974920e+00
         vertex -5.160715e+00 1.500000e+00 0.000000e+00
      endloop
   endfacet
   facet normal 8.314696e-01 -0.000000e+00 5.555702e-01
      outer loop
         vertex 3.649176e+00 -1.500000e+00 3.649176e+00
         vertex 4.767879e+00 -1.500000e+00 1.974920e+00
         vertex 4.767879e+00 1.500000e+00 1.974920e+00
      endloop
   endfacet
   facet normal -1.950904e-01 0.000000e+00 9.807853e-01
      outer loop
         vertex -1.974920e+00 -1.500000e+00 4.767879e+00
         vertex -4.881583e-16 1.500000e+00 5.160715e+00
         vertex -1.974920e+00 1.500000e+00 4.767879e+00
      endloop
   endfacet
   facet normal 0.000000e+00 -1.000000e+00 0.000000e+00
      outer loop
         vertex -4.767879e+00 -1.500000e+00 1.974920e+00
         vertex -5.160715e+00 -1.500000e+00 0.000000e+00
         vertex -1.250000e+00 -1.500000e+00 0.000000e+00
      endloop
   endfacet
   facet normal 0.000000e+00 -1.000000e+00 0.000000e+00
      outer loop
         vertex -4.767879e+00 -1.500000e+00 -1.974920e+00
         vertex -3.649176e+00 -1.500000e+00 -3.649176e+00
         vertex -8.838835e-01 -1.500000e+00 -8.838835e-01
      endloop
   endfacet
   facet normal 0.000000e+00 -1.000000e+00 0.000000e+00
      outer loop
         vertex -1.974920e+00 -1.500000e+00 -4.767879e+00
         vertex 5.921552e-16 -1.500000e+00 -5.160715e+00
         vertex -1.262314e-16 -1.500000e+00 -1.250000e+00
      endloop
   endfacet
   facet normal -0.000000e+00 -1.000000e+00 0.000000e+00
      outer loop
         vertex 1.974920e+00 -1.500000e+00 -4.767879e+00
         vertex 3.649176e+00 -1.500000e+00 -3.649176e+00
         vertex 8.838835e-01 -1.500000e+00 -8.838835e-01
      endloop
   endfacet
   facet normal 0.000000e+00 -1.000000e+00 0.000000e+00
      outer loop
         vertex 4.767879e+00 -1.500000e+00 -1.974920e+00
         vertex 5.160715e+00 -1.500000e+00 6.320053e-16
         vertex 1.250000e+00 -1.500000e+00 1.530808e-16
      endloop
   endfacet
   facet normal 0.000000e+00 -1.000000e+00 -0.000000e+00
      outer loop
         vertex 4.767879e+00 -1.500000e+00 1.974920e+00
         vertex 3.649176e+00 -1.500000e+00 3.649176e+00
         vertex 8.838835e-01 -1.500000e+00 8.838835e-01
      endloop
   endfacet
   facet normal 0.000000e+00 -1.000000e+00 0.000000e+00
      outer loop
         vertex 1.974920e+00 -1.500000e+00 4.767879e+00
         vertex -6.718553e-16 -1.500000e+00 5.160715e+00
         vertex -4.323931e-16 -1.500000e+00 1.250000e+00
      endloop
   endfacet
   facet normal 0.000000e+00 -1.000000e+00 0.000000e+00
      outer loop
         vertex -1.974920e+00 -1.500000e+00 4.767879e+00
         vertex -3.649176e+00 -1.500000e+00 3.649176e+00
         vertex -8.838835e-01 -1.500000e+00 8.838835e-01
      endloop
   endfacet
   facet normal 0.000000e+00 -1.000000e+00 -0.000000e+00
      outer loop
         vertex -8.838835e-01 -1.500000e+00 -8.838835e-01
         vertex -1.250000e+00 -1.500000e+00 0.000000e+00
         vertex -4.767879e+00 -1.500000e+00 -1.974920e+00
      endloop
   endfacet
   facet normal -0.000000e+00 -1.000000e+00 0.000000e+00
      outer loop
         vertex -8.838835e-01 -1.500000e+00 8.838835e-01
         vertex -4.323931e-16 -1.500000e+00 1.250000e+00
         vertex -1.974920e+00 -1.500000e+00 4.767879e+00
      endloop
   endfacet
   facet normal 0.000000e+00 -1.000000e+00 0.000000e+00
      outer loop
         vertex 8.838835e-01 -1.500000e+00 8.838835e-01
         vertex 1.250000e+00 -1.500000e+00 1.530808e-16
         vertex 4.767879e+00 -1.500000e+00 1.974920e+00
      endloop
   endfacet
   facet normal 0.000000e+00 -1.000000e+00 0.000000e+00
      outer loop
         vertex 8.838835e-01 -1.500000e+00 -8.838835e-01
         vertex -1.262314e-16 -1.500000e+00 -1.250000e+00
         vertex 1.974920e+00 -1.500000e+00 -4.767879e+00
      endloop
   endfacet
   facet normal 0.000000e+00 -1.000000e+00 0.000000e+00
      outer loop
         vertex -4.767879e+00 -1.500000e+00 1.974920e+00
         vertex -1.250000e+00 -1.500000e+00 0.000000e+00
         vertex -8.838835e-01 -1.500000e+00 8.838835e-01
      endloop
   endfacet
   facet normal -0.000000e+00 -1.000000e+00 0.000000e+00
      outer loop
         vertex -1.974920e+00 -1.500000e+00 -4.767879e+00
         vertex -1.262314e-16 -1.500000e+00 -1.250000e+00
         vertex -8.838835e-01 -1.500000e+00 -8.838835e-01
      endloop
   endfacet
   facet normal 0.000000e+00 -1.000000e+00 -0.000000e+00
      outer loop
         vertex 4.767879e+00 -1.500000e+00 -1.974920e+00
         vertex 1.250000e+00 -1.500000e+00 1.530808e-16
         vertex 8.838835e-01 -1.500000e+00 -8.838835e-01
      endloop
   endfacet
   facet normal 0.000000e+00 -1.000000e+00 0.000000e+00
      outer loop
         vertex 1.974920e+00 -1.500000e+00 4.767879e+00
         vertex -4.323931e-16 -1.500000e+00 1.250000e+00
         vertex 8.838835e-01 -1.500000e+00 8.838835e-01
      endloop
   endfacet
   facet normal -0.000000e+00 -1.000000e+00 0.000000e+00
      outer loop
         vertex -4.767879e+00 -1.500000e+00 -1.974920e+00
         vertex -1.250000e+00 -1.500000e+00 0.000000e+00
         vertex -5.160715e+00 -1.500000e+00 0.000000e+00
      endloop
   endfacet
   facet normal 0.000000e+00 -1.000000e+00 0.000000e+00
      outer loop
         vertex -4.767879e+00 -1.500000e+00 1.974920e+00
         vertex -8.838835e-01 -1.500000e+00 8.838835e-01
         vertex -3.649176e+00 -1.500000e+00 3.649176e+00
      endloop
   endfacet
   facet normal 0.000000e+00 -1.000000e+00 0.000000e+00
      outer loop
         vertex -3.649176e+00 -1.500000e+00 -3.649176e+00
         vertex -1.974920e+00 -1.500000e+00 -4.767879e+00
         vertex -8.838835e-01 -1.500000e+00 -8.838835e-01
      endloop
   endfacet
   facet normal -0.000000e+00 -1.000000e+00 0.000000e+00
      outer loop
         vertex 3.649176e+00 -1.500000e+00 -3.649176e+00
         vertex 4.767879e+00 -1.500000e+00 -1.974920e+00
         vertex 8.838835e-01 -1.500000e+00 -8.838835e-01
      endloop
   endfacet
   facet normal 0.000000e+00 -1.000000e+00 -0.000000e+00
      outer loop
         vertex 3.649176e+00 -1.500000e+00 3.649176e+00
         vertex 1.974920e+00 -1.500000e+00 4.767879e+00
         vertex 8.838835e-01 -1.500000e+00 8.838835e-01
      endloop
   endfacet
   facet normal 0.000000e+00 -1.000000e+00 0.000000e+00
      outer loop
         vertex -1.262314e-16 -1.500000e+00 -1.250000e+00
         vertex 5.921552e-16 -1.500000e+00 -5.160715e+00
         vertex 1.974920e+00 -1.500000e+00 -4.767879e+00
      endloop
   endfacet
   facet normal 0.000000e+00 -1.000000e+00 0.000000e+00
      outer loop
         vertex -1.974920e+00 -1.500000e+00 4.767879e+00
         vertex -4.323931e-16 -1.500000e+00 1.250000e+00
         vertex -6.718553e-16 -1.500000e+00 5.160715e+00
      endloop
   endfacet
   facet normal 0.000000e+00 -1.000000e+00 -0.000000e+00
      outer loop
         vertex 5.160715e+00 -1.500000e+00 6.320053e-16
         vertex 4.767879e+00 -1.500000e+00 1.974920e+00
         vertex 1.250000e+00 -1.500000e+00 1.530808e-16
      endloop
   endfacet
   facet normal 9.238795e-01 0.000000e+00 -3.826834e-01
      outer loop
         vertex -8.838835e-01 -1.500000e+00 8.838835e-01
         vertex -1.250000e+00 -1.500000e+00 0.000000e+00
         vertex -1.250000e+00 1.500000e+00 0.000000e+00
      endloop
   endfacet
   facet normal 3.826834e-01 0.000000e+00 -9.238795e-01
      outer loop
         vertex -8.838835e-01 1.500000e+00 8.838835e-01
         vertex -2.486961e-16 1.500000e+00 1.250000e+00
         vertex -8.838835e-01 -1.500000e+00 8.838835e-01
      endloop
   endfacet
   facet normal -9.238795e-01 -0.000000e+00 -3.826834e-01
      outer loop
         vertex 8.838835e-01 1.500000e+00 8.838835e-01
         vertex 1.250000e+00 1.500000e+00 1.530808e-16
         vertex 1.250000e+00 -1.500000e+00 1.530808e-16
      endloop
   endfacet
   facet normal -3.826834e-01 2.343260e-17 9.238795e-01
      outer loop
         vertex 8.838835e-01 1.500000e+00 -8.838835e-01
         vertex 5.746563e-17 1.500000e+00 -1.250000e+00
         vertex -1.262314e-16 -1.500000e+00 -1.250000e+00
      endloop
   endfacet
   facet normal 9.238795e-01 0.000000e+00 3.826834e-01
      outer loop
         vertex -8.838835e-01 1.500000e+00 -8.838835e-01
         vertex -1.250000e+00 1.500000e+00 0.000000e+00
         vertex -1.250000e+00 -1.500000e+00 0.000000e+00
      endloop
   endfacet
   facet normal 3.826834e-01 -2.343260e-17 9.238795e-01
      outer loop
         vertex -8.838835e-01 -1.500000e+00 -8.838835e-01
         vertex -1.262314e-16 -1.500000e+00 -1.250000e+00
         vertex 5.746563e-17 1.500000e+00 -1.250000e+00
      endloop
   endfacet
   facet normal -9.238795e-01 0.000000e+00 3.826834e-01
      outer loop
         vertex 8.838835e-01 -1.500000e+00 -8.838835e-01
         vertex 1.250000e+00 -1.500000e+00 1.530808e-16
         vertex 1.250000e+00 1.500000e+00 1.530808e-16
      endloop
   endfacet
   facet normal -3.826834e-01 2.343260e-17 -9.238795e-01
      outer loop
         vertex 8.838835e-01 -1.500000e+00 8.838835e-01
         vertex -4.323931e-16 -1.500000e+00 1.250000e+00
         vertex -2.486961e-16 1.500000e+00 1.250000e+00
      endloop
   endfacet
   facet normal 9.238795e-01 0.000000e+00 -3.826834e-01
      outer loop
         vertex -8.838835e-01 -1.500000e+00 8.838835e-01
         vertex -1.250000e+00 1.500000e+00 0.000000e+00
         vertex -8.838835e-01 1.500000e+00 8.838835e-01
      endloop
   endfacet
   facet normal -3.826834e-01 0.000000e+00 9.238795e-01
      outer loop
         vertex 8.838835e-01 1.500000e+00 -8.838835e-01
         vertex -1.262314e-16 -1.500000e+00 -1.250000e+00
         vertex 8.838835e-01 -1.500000e+00 -8.838835e-01
      endloop
   endfacet
   facet normal -9.238795e-01 0.000000e+00 3.826834e-01
      outer loop
         vertex 8.838835e-01 -1.500000e+00 -8.838835e-01
         vertex 1.250000e+00 1.500000e+00 1.530808e-16
         vertex 8.838835e-01 1.500000e+00 -8.838835e-01
      endloop
   endfacet
   facet normal -3.826834e-01 -0.000000e+00 -9.238795e-01
      outer loop
         vertex -2.486961e-16 1.500000e+00 1.250000e+00
         vertex 8.838835e-01 1.500000e+00 8.838835e-01
         vertex 8.838835e-01 -1.500000e+00 8.838835e-01
      endloop
   endfacet
   facet normal 9.238795e-01 -0.000000e+00 3.826834e-01
      outer loop
         vertex -1.250000e+00 -1.500000e+00 0.000000e+00
         vertex -8.838835e-01 -1.500000e+00 -8.838835e-01
         vertex -8.838835e-01 1.500000e+00 -8.838835e-01
      endloop
   endfacet
   facet normal 3.826834e-01 -3.868203e-17 -9.238795e-01
      outer loop
         vertex -4.323931e-16 -1.500000e+00 1.250000e+00
         vertex -8.838835e-01 -1.500000e+00 8.838835e-01
         vertex -2.486961e-16 1.500000e+00 1.250000e+00
      endloop
   endfacet
   facet normal 3.826834e-01 0.000000e+00 9.238795e-01
      outer loop
         vertex -8.838835e-01 -1.500000e+00 -8.838835e-01
         vertex 5.746563e-17 1.500000e+00 -1.250000e+00
         vertex -8.838835e-01 1.500000e+00 -8.838835e-01
      endloop
   endfacet
   facet normal -9.238795e-01 0.000000e+00 -3.826834e-01
      outer loop
         vertex 1.250000e+00 -1.500000e+00 1.530808e-16
         vertex 8.838835e-01 -1.500000e+00 8.838835e-01
         vertex 8.838835e-01 1.500000e+00 8.838835e-01
      endloop
   endfacet
endsolid
