solid 
   facet normal -3.420203e-01 -9.396926e-01 -0.000000e+00
      outer loop
         vertex 1.046418e+01 1.149067e+00 6.000000e+00
         vertex 9.500000e+00 1.500000e+00 6.000000e+00
         vertex 9.500000e+00 1.500000e+00 3.000000e+00
      endloop
   endfacet
   facet normal -9.848077e-01 1.736486e-01 0.000000e+00
      outer loop
         vertex 1.097721e+01 2.604723e-01 3.000000e+00
         vertex 1.079904e+01 -7.500000e-01 6.000000e+00
         vertex 1.097721e+01 2.604723e-01 6.000000e+00
      endloop
   endfacet
   facet normal -0.000000e+00 1.000000e+00 0.000000e+00
      outer loop
         vertex 8.986970e+00 -1.409539e+00 3.000000e+00
         vertex 8.986970e+00 -1.409539e+00 6.000000e+00
         vertex 1.001303e+01 -1.409539e+00 6.000000e+00
      endloop
   endfacet
   facet normal 9.848077e-01 1.736486e-01 0.000000e+00
      outer loop
         vertex 8.200962e+00 -7.500000e-01 3.000000e+00
         vertex 8.022788e+00 2.604723e-01 6.000000e+00
         vertex 8.200962e+00 -7.500000e-01 6.000000e+00
      endloop
   endfacet
   facet normal 3.420203e-01 -9.396926e-01 0.000000e+00
      outer loop
         vertex 8.535819e+00 1.149067e+00 3.000000e+00
         vertex 9.500000e+00 1.500000e+00 6.000000e+00
         vertex 8.535819e+00 1.149067e+00 6.000000e+00
      endloop
   endfacet
   facet normal 3.420203e-01 -9.396926e-01 0.000000e+00
      outer loop
         vertex 9.500000e+00 1.500000e+00 6.000000e+00
         vertex 8.535819e+00 1.149067e+00 3.000000e+00
         vertex 9.500000e+00 1.500000e+00 3.000000e+00
      endloop
   endfacet
   facet normal 6.427876e-01 7.660444e-01 0.000000e+00
      outer loop
         vertex 8.200962e+00 -7.500000e-01 6.000000e+00
         vertex 8.986970e+00 -1.409539e+00 3.000000e+00
         vertex 8.200962e+00 -7.500000e-01 3.000000e+00
      endloop
   endfacet
   facet normal -6.427876e-01 7.660444e-01 0.000000e+00
      outer loop
         vertex 1.001303e+01 -1.409539e+00 6.000000e+00
         vertex 1.079904e+01 -7.500000e-01 3.000000e+00
         vertex 1.001303e+01 -1.409539e+00 3.000000e+00
      endloop
   endfacet
   facet normal -8.660251e-01 -5.000006e-01 0.000000e+00
      outer loop
         vertex 1.046418e+01 1.149067e+00 6.000000e+00
         vertex 1.046418e+01 1.149067e+00 3.000000e+00
         vertex 1.097721e+01 2.604723e-01 3.000000e+00
      endloop
   endfacet
   facet normal -3.420203e-01 -9.396926e-01 -0.000000e+00
      outer loop
         vertex 1.046418e+01 1.149067e+00 3.000000e+00
         vertex 1.046418e+01 1.149067e+00 6.000000e+00
         vertex 9.500000e+00 1.500000e+00 3.000000e+00
      endloop
   endfacet
   facet normal 0.000000e+00 1.000000e+00 0.000000e+00
      outer loop
         vertex 1.001303e+01 -1.409539e+00 3.000000e+00
         vertex 8.986970e+00 -1.409539e+00 3.000000e+00
         vertex 1.001303e+01 -1.409539e+00 6.000000e+00
      endloop
   endfacet
   facet normal 8.660251e-01 -5.000006e-01 0.000000e+00
      outer loop
         vertex 8.022788e+00 2.604723e-01 3.000000e+00
         vertex 8.535819e+00 1.149067e+00 3.000000e+00
         vertex 8.535819e+00 1.149067e+00 6.000000e+00
      endloop
   endfacet
   facet normal -8.660251e-01 -5.000006e-01 0.000000e+00
      outer loop
         vertex 1.097721e+01 2.604723e-01 6.000000e+00
         vertex 1.046418e+01 1.149067e+00 6.000000e+00
         vertex 1.097721e+01 2.604723e-01 3.000000e+00
      endloop
   endfacet
   facet normal -6.427876e-01 7.660444e-01 0.000000e+00
      outer loop
         vertex 1.079904e+01 -7.500000e-01 3.000000e+00
         vertex 1.001303e+01 -1.409539e+00 6.000000e+00
         vertex 1.079904e+01 -7.500000e-01 6.000000e+00
      endloop
   endfacet
   facet normal 8.660251e-01 -5.000006e-01 0.000000e+00
      outer loop
         vertex 8.022788e+00 2.604723e-01 3.000000e+00
         vertex 8.535819e+00 1.149067e+00 6.000000e+00
         vertex 8.022788e+00 2.604723e-01 6.000000e+00
      endloop
   endfacet
   facet normal -9.848077e-01 1.736486e-01 0.000000e+00
      outer loop
         vertex 1.079904e+01 -7.500000e-01 6.000000e+00
         vertex 1.097721e+01 2.604723e-01 3.000000e+00
         vertex 1.079904e+01 -7.500000e-01 3.000000e+00
      endloop
   endfacet
   facet normal 9.848077e-01 1.736486e-01 0.000000e+00
      outer loop
         vertex 8.022788e+00 2.604723e-01 3.000000e+00
         vertex 8.022788e+00 2.604723e-01 6.000000e+00
         vertex 8.200962e+00 -7.500000e-01 3.000000e+00
      endloop
   endfacet
   facet normal 6.427876e-01 7.660444e-01 0.000000e+00
      outer loop
         vertex 8.986970e+00 -1.409539e+00 3.000000e+00
         vertex 8.200962e+00 -7.500000e-01 6.000000e+00
         vertex 8.986970e+00 -1.409539e+00 6.000000e+00
      endloop
   endfacet
   facet normal 0.000000e+00 -0.000000e+00 -1.000000e+00
      outer loop
         vertex 1.265000e+01 7.797232e-16 0.000000e+00
         vertex 1.600000e+01 3.500000e+01 0.000000e+00
         vertex 1.600000e+01 -3.500000e+01 0.000000e+00
      endloop
   endfacet
   facet normal 0.000000e+00 0.000000e+00 -1.000000e+00
      outer loop
         vertex 6.350000e+00 -5.817072e-16 0.000000e+00
         vertex -2.143132e-15 -3.500000e+01 0.000000e+00
         vertex 2.143132e-15 3.500000e+01 0.000000e+00
      endloop
   endfacet
   facet normal 0.000000e+00 0.000000e+00 -1.000000e+00
      outer loop
         vertex 1.600000e+01 3.500000e+01 0.000000e+00
         vertex 1.265000e+01 7.797232e-16 0.000000e+00
         vertex 1.107500e+01 2.727980e+00 0.000000e+00
      endloop
   endfacet
   facet normal 0.000000e+00 0.000000e+00 -1.000000e+00
      outer loop
         vertex 1.600000e+01 -3.500000e+01 0.000000e+00
         vertex 7.925000e+00 -2.727980e+00 0.000000e+00
         vertex 1.107500e+01 -2.727980e+00 0.000000e+00
      endloop
   endfacet
   facet normal -0.000000e+00 0.000000e+00 -1.000000e+00
      outer loop
         vertex 2.143132e-15 3.500000e+01 0.000000e+00
         vertex 7.925000e+00 2.727980e+00 0.000000e+00
         vertex 6.350000e+00 -5.817072e-16 0.000000e+00
      endloop
   endfacet
   facet normal 0.000000e+00 -0.000000e+00 -1.000000e+00
      outer loop
         vertex 1.107500e+01 -2.727980e+00 0.000000e+00
         vertex 1.265000e+01 7.797232e-16 0.000000e+00
         vertex 1.600000e+01 -3.500000e+01 0.000000e+00
      endloop
   endfacet
   facet normal 0.000000e+00 -0.000000e+00 -1.000000e+00
      outer loop
         vertex -2.143132e-15 -3.500000e+01 0.000000e+00
         vertex 7.925000e+00 -2.727980e+00 0.000000e+00
         vertex 1.600000e+01 -3.500000e+01 0.000000e+00
      endloop
   endfacet
   facet normal 0.000000e+00 0.000000e+00 -1.000000e+00
      outer loop
         vertex 7.925000e+00 2.727980e+00 0.000000e+00
         vertex 2.143132e-15 3.500000e+01 0.000000e+00
         vertex 1.600000e+01 3.500000e+01 0.000000e+00
      endloop
   endfacet
   facet normal 0.000000e+00 0.000000e+00 -1.000000e+00
      outer loop
         vertex 1.600000e+01 3.500000e+01 0.000000e+00
         vertex 1.107500e+01 2.727980e+00 0.000000e+00
         vertex 7.925000e+00 2.727980e+00 0.000000e+00
      endloop
   endfacet
   facet normal -0.000000e+00 0.000000e+00 -1.000000e+00
      outer loop
         vertex 6.350000e+00 -5.817072e-16 0.000000e+00
         vertex 7.925000e+00 -2.727980e+00 0.000000e+00
         vertex -2.143132e-15 -3.500000e+01 0.000000e+00
      endloop
   endfacet
   facet normal 0.000000e+00 -0.000000e+00 -1.000000e+00
      outer loop
         vertex 6.350000e+00 -5.817072e-16 3.000000e+00
         vertex 7.925000e+00 2.727980e+00 3.000000e+00
         vertex 8.535819e+00 1.149067e+00 3.000000e+00
      endloop
   endfacet
   facet normal 0.000000e+00 0.000000e+00 -1.000000e+00
      outer loop
         vertex 1.107500e+01 2.727980e+00 3.000000e+00
         vertex 1.265000e+01 7.797232e-16 3.000000e+00
         vertex 1.046418e+01 1.149067e+00 3.000000e+00
      endloop
   endfacet
   facet normal 0.000000e+00 0.000000e+00 -1.000000e+00
      outer loop
         vertex 1.107500e+01 -2.727980e+00 3.000000e+00
         vertex 7.925000e+00 -2.727980e+00 3.000000e+00
         vertex 1.001303e+01 -1.409539e+00 3.000000e+00
      endloop
   endfacet
   facet normal 0.000000e+00 0.000000e+00 -1.000000e+00
      outer loop
         vertex 1.046418e+01 1.149067e+00 3.000000e+00
         vertex 9.500000e+00 1.500000e+00 3.000000e+00
         vertex 1.107500e+01 2.727980e+00 3.000000e+00
      endloop
   endfacet
   facet normal -0.000000e+00 0.000000e+00 -1.000000e+00
      outer loop
         vertex 8.535819e+00 1.149067e+00 3.000000e+00
         vertex 8.022788e+00 2.604723e-01 3.000000e+00
         vertex 6.350000e+00 -5.817072e-16 3.000000e+00
      endloop
   endfacet
   facet normal -0.000000e+00 0.000000e+00 -1.000000e+00
      outer loop
         vertex 8.200962e+00 -7.500000e-01 3.000000e+00
         vertex 8.986970e+00 -1.409539e+00 3.000000e+00
         vertex 7.925000e+00 -2.727980e+00 3.000000e+00
      endloop
   endfacet
   facet normal 0.000000e+00 -0.000000e+00 -1.000000e+00
      outer loop
         vertex 1.001303e+01 -1.409539e+00 3.000000e+00
         vertex 1.079904e+01 -7.500000e-01 3.000000e+00
         vertex 1.107500e+01 -2.727980e+00 3.000000e+00
      endloop
   endfacet
   facet normal 0.000000e+00 0.000000e+00 -1.000000e+00
      outer loop
         vertex 1.097721e+01 2.604723e-01 3.000000e+00
         vertex 1.046418e+01 1.149067e+00 3.000000e+00
         vertex 1.265000e+01 7.797232e-16 3.000000e+00
      endloop
   endfacet
   facet normal 0.000000e+00 0.000000e+00 -1.000000e+00
      outer loop
         vertex 1.001303e+01 -1.409539e+00 3.000000e+00
         vertex 7.925000e+00 -2.727980e+00 3.000000e+00
         vertex 8.986970e+00 -1.409539e+00 3.000000e+00
      endloop
   endfacet
   facet normal 0.000000e+00 0.000000e+00 -1.000000e+00
      outer loop
         vertex 8.200962e+00 -7.500000e-01 3.000000e+00
         vertex 7.925000e+00 -2.727980e+00 3.000000e+00
         vertex 6.350000e+00 -5.817072e-16 3.000000e+00
      endloop
   endfacet
   facet normal 0.000000e+00 0.000000e+00 -1.000000e+00
      outer loop
         vertex 8.200962e+00 -7.500000e-01 3.000000e+00
         vertex 6.350000e+00 -5.817072e-16 3.000000e+00
         vertex 8.022788e+00 2.604723e-01 3.000000e+00
      endloop
   endfacet
   facet normal -0.000000e+00 0.000000e+00 -1.000000e+00
      outer loop
         vertex 7.925000e+00 2.727980e+00 3.000000e+00
         vertex 1.107500e+01 2.727980e+00 3.000000e+00
         vertex 9.500000e+00 1.500000e+00 3.000000e+00
      endloop
   endfacet
   facet normal 0.000000e+00 0.000000e+00 -1.000000e+00
      outer loop
         vertex 9.500000e+00 1.500000e+00 3.000000e+00
         vertex 8.535819e+00 1.149067e+00 3.000000e+00
         vertex 7.925000e+00 2.727980e+00 3.000000e+00
      endloop
   endfacet
   facet normal 0.000000e+00 0.000000e+00 -1.000000e+00
      outer loop
         vertex 1.107500e+01 -2.727980e+00 3.000000e+00
         vertex 1.079904e+01 -7.500000e-01 3.000000e+00
         vertex 1.265000e+01 7.797232e-16 3.000000e+00
      endloop
   endfacet
   facet normal 0.000000e+00 -0.000000e+00 -1.000000e+00
      outer loop
         vertex 1.079904e+01 -7.500000e-01 3.000000e+00
         vertex 1.097721e+01 2.604723e-01 3.000000e+00
         vertex 1.265000e+01 7.797232e-16 3.000000e+00
      endloop
   endfacet
   facet normal 8.660254e-01 -5.000001e-01 0.000000e+00
      outer loop
         vertex 7.925000e+00 2.727980e+00 3.000000e+00
         vertex 6.350000e+00 -5.817072e-16 3.000000e+00
         vertex 6.350000e+00 -5.817072e-16 0.000000e+00
      endloop
   endfacet
   facet normal 8.660254e-01 -5.000001e-01 0.000000e+00
      outer loop
         vertex 7.925000e+00 2.727980e+00 3.000000e+00
         vertex 6.350000e+00 -5.817072e-16 0.000000e+00
         vertex 7.925000e+00 2.727980e+00 0.000000e+00
      endloop
   endfacet
   facet normal 8.660254e-01 5.000001e-01 0.000000e+00
      outer loop
         vertex 6.350000e+00 -5.817072e-16 3.000000e+00
         vertex 7.925000e+00 -2.727980e+00 3.000000e+00
         vertex 7.925000e+00 -2.727980e+00 0.000000e+00
      endloop
   endfacet
   facet normal 8.660254e-01 5.000001e-01 0.000000e+00
      outer loop
         vertex 6.350000e+00 -5.817072e-16 3.000000e+00
         vertex 7.925000e+00 -2.727980e+00 0.000000e+00
         vertex 6.350000e+00 -5.817072e-16 0.000000e+00
      endloop
   endfacet
   facet normal 0.000000e+00 1.000000e+00 0.000000e+00
      outer loop
         vertex 7.925000e+00 -2.727980e+00 3.000000e+00
         vertex 1.107500e+01 -2.727980e+00 3.000000e+00
         vertex 1.107500e+01 -2.727980e+00 0.000000e+00
      endloop
   endfacet
   facet normal 0.000000e+00 1.000000e+00 0.000000e+00
      outer loop
         vertex 7.925000e+00 -2.727980e+00 3.000000e+00
         vertex 1.107500e+01 -2.727980e+00 0.000000e+00
         vertex 7.925000e+00 -2.727980e+00 0.000000e+00
      endloop
   endfacet
   facet normal -8.660254e-01 4.999999e-01 0.000000e+00
      outer loop
         vertex 1.107500e+01 -2.727980e+00 3.000000e+00
         vertex 1.265000e+01 7.797232e-16 3.000000e+00
         vertex 1.265000e+01 7.797232e-16 0.000000e+00
      endloop
   endfacet
   facet normal -8.660254e-01 4.999999e-01 0.000000e+00
      outer loop
         vertex 1.107500e+01 -2.727980e+00 3.000000e+00
         vertex 1.265000e+01 7.797232e-16 0.000000e+00
         vertex 1.107500e+01 -2.727980e+00 0.000000e+00
      endloop
   endfacet
   facet normal -8.660254e-01 -4.999999e-01 -0.000000e+00
      outer loop
         vertex 1.265000e+01 7.797232e-16 3.000000e+00
         vertex 1.107500e+01 2.727980e+00 3.000000e+00
         vertex 1.107500e+01 2.727980e+00 0.000000e+00
      endloop
   endfacet
   facet normal -8.660254e-01 -4.999999e-01 0.000000e+00
      outer loop
         vertex 1.265000e+01 7.797232e-16 3.000000e+00
         vertex 1.107500e+01 2.727980e+00 0.000000e+00
         vertex 1.265000e+01 7.797232e-16 0.000000e+00
      endloop
   endfacet
   facet normal 0.000000e+00 -1.000000e+00 0.000000e+00
      outer loop
         vertex 1.107500e+01 2.727980e+00 3.000000e+00
         vertex 7.925000e+00 2.727980e+00 3.000000e+00
         vertex 7.925000e+00 2.727980e+00 0.000000e+00
      endloop
   endfacet
   facet normal 0.000000e+00 -1.000000e+00 0.000000e+00
      outer loop
         vertex 1.107500e+01 2.727980e+00 3.000000e+00
         vertex 7.925000e+00 2.727980e+00 0.000000e+00
         vertex 1.107500e+01 2.727980e+00 0.000000e+00
      endloop
   endfacet
   facet normal 0.000000e+00 0.000000e+00 1.000000e+00
      outer loop
         vertex 1.160476e+01 5.081337e+00 6.000000e+00
         vertex 9.500000e+00 5.500000e+00 6.000000e+00
         vertex 9.500000e+00 1.500000e+00 6.000000e+00
      endloop
   endfacet
   facet normal -0.000000e+00 0.000000e+00 1.000000e+00
      outer loop
         vertex 7.395241e+00 5.081337e+00 6.000000e+00
         vertex 5.610913e+00 3.889087e+00 6.000000e+00
         vertex 8.535819e+00 1.149067e+00 6.000000e+00
      endloop
   endfacet
   facet normal 0.000000e+00 0.000000e+00 1.000000e+00
      outer loop
         vertex 4.418663e+00 2.104759e+00 6.000000e+00
         vertex 4.000000e+00 9.184851e-17 6.000000e+00
         vertex 8.022788e+00 2.604723e-01 6.000000e+00
      endloop
   endfacet
   facet normal 0.000000e+00 -0.000000e+00 1.000000e+00
      outer loop
         vertex 4.418663e+00 -2.104759e+00 6.000000e+00
         vertex 5.610913e+00 -3.889087e+00 6.000000e+00
         vertex 8.200962e+00 -7.500000e-01 6.000000e+00
      endloop
   endfacet
   facet normal 0.000000e+00 0.000000e+00 1.000000e+00
      outer loop
         vertex 7.395241e+00 -5.081337e+00 6.000000e+00
         vertex 9.500000e+00 -5.500000e+00 6.000000e+00
         vertex 8.986970e+00 -1.409539e+00 6.000000e+00
      endloop
   endfacet
   facet normal 0.000000e+00 0.000000e+00 1.000000e+00
      outer loop
         vertex 1.160476e+01 -5.081337e+00 6.000000e+00
         vertex 1.338909e+01 -3.889087e+00 6.000000e+00
         vertex 1.001303e+01 -1.409539e+00 6.000000e+00
      endloop
   endfacet
   facet normal 0.000000e+00 0.000000e+00 1.000000e+00
      outer loop
         vertex 1.458134e+01 -2.104759e+00 6.000000e+00
         vertex 1.500000e+01 -1.928819e-15 6.000000e+00
         vertex 1.079904e+01 -7.500000e-01 6.000000e+00
      endloop
   endfacet
   facet normal 0.000000e+00 0.000000e+00 1.000000e+00
      outer loop
         vertex 1.458134e+01 2.104759e+00 6.000000e+00
         vertex 1.338909e+01 3.889087e+00 6.000000e+00
         vertex 1.046418e+01 1.149067e+00 6.000000e+00
      endloop
   endfacet
   facet normal 0.000000e+00 0.000000e+00 1.000000e+00
      outer loop
         vertex 8.535819e+00 1.149067e+00 6.000000e+00
         vertex 9.500000e+00 1.500000e+00 6.000000e+00
         vertex 7.395241e+00 5.081337e+00 6.000000e+00
      endloop
   endfacet
   facet normal 0.000000e+00 -0.000000e+00 1.000000e+00
      outer loop
         vertex 1.046418e+01 1.149067e+00 6.000000e+00
         vertex 1.097721e+01 2.604723e-01 6.000000e+00
         vertex 1.458134e+01 2.104759e+00 6.000000e+00
      endloop
   endfacet
   facet normal -0.000000e+00 0.000000e+00 1.000000e+00
      outer loop
         vertex 1.079904e+01 -7.500000e-01 6.000000e+00
         vertex 1.001303e+01 -1.409539e+00 6.000000e+00
         vertex 1.338909e+01 -3.889087e+00 6.000000e+00
      endloop
   endfacet
   facet normal 0.000000e+00 0.000000e+00 1.000000e+00
      outer loop
         vertex 8.986970e+00 -1.409539e+00 6.000000e+00
         vertex 8.200962e+00 -7.500000e-01 6.000000e+00
         vertex 5.610913e+00 -3.889087e+00 6.000000e+00
      endloop
   endfacet
   facet normal 0.000000e+00 0.000000e+00 1.000000e+00
      outer loop
         vertex 8.022788e+00 2.604723e-01 6.000000e+00
         vertex 8.535819e+00 1.149067e+00 6.000000e+00
         vertex 4.418663e+00 2.104759e+00 6.000000e+00
      endloop
   endfacet
   facet normal 0.000000e+00 0.000000e+00 1.000000e+00
      outer loop
         vertex 9.500000e+00 1.500000e+00 6.000000e+00
         vertex 9.500000e+00 5.500000e+00 6.000000e+00
         vertex 7.395241e+00 5.081337e+00 6.000000e+00
      endloop
   endfacet
   facet normal 0.000000e+00 0.000000e+00 1.000000e+00
      outer loop
         vertex 4.418663e+00 -2.104759e+00 6.000000e+00
         vertex 8.200962e+00 -7.500000e-01 6.000000e+00
         vertex 4.000000e+00 9.184851e-17 6.000000e+00
      endloop
   endfacet
   facet normal 0.000000e+00 0.000000e+00 1.000000e+00
      outer loop
         vertex 1.160476e+01 -5.081337e+00 6.000000e+00
         vertex 1.001303e+01 -1.409539e+00 6.000000e+00
         vertex 9.500000e+00 -5.500000e+00 6.000000e+00
      endloop
   endfacet
   facet normal 0.000000e+00 0.000000e+00 1.000000e+00
      outer loop
         vertex 1.046418e+01 1.149067e+00 6.000000e+00
         vertex 1.338909e+01 3.889087e+00 6.000000e+00
         vertex 1.160476e+01 5.081337e+00 6.000000e+00
      endloop
   endfacet
   facet normal -0.000000e+00 0.000000e+00 1.000000e+00
      outer loop
         vertex 8.986970e+00 -1.409539e+00 6.000000e+00
         vertex 5.610913e+00 -3.889087e+00 6.000000e+00
         vertex 7.395241e+00 -5.081337e+00 6.000000e+00
      endloop
   endfacet
   facet normal 0.000000e+00 0.000000e+00 1.000000e+00
      outer loop
         vertex 1.046418e+01 1.149067e+00 6.000000e+00
         vertex 1.160476e+01 5.081337e+00 6.000000e+00
         vertex 9.500000e+00 1.500000e+00 6.000000e+00
      endloop
   endfacet
   facet normal -0.000000e+00 0.000000e+00 1.000000e+00
      outer loop
         vertex 5.610913e+00 3.889087e+00 6.000000e+00
         vertex 4.418663e+00 2.104759e+00 6.000000e+00
         vertex 8.535819e+00 1.149067e+00 6.000000e+00
      endloop
   endfacet
   facet normal 0.000000e+00 0.000000e+00 1.000000e+00
      outer loop
         vertex 1.500000e+01 -1.928819e-15 6.000000e+00
         vertex 1.458134e+01 2.104759e+00 6.000000e+00
         vertex 1.097721e+01 2.604723e-01 6.000000e+00
      endloop
   endfacet
   facet normal -0.000000e+00 0.000000e+00 1.000000e+00
      outer loop
         vertex 1.001303e+01 -1.409539e+00 6.000000e+00
         vertex 8.986970e+00 -1.409539e+00 6.000000e+00
         vertex 9.500000e+00 -5.500000e+00 6.000000e+00
      endloop
   endfacet
   facet normal -0.000000e+00 0.000000e+00 1.000000e+00
      outer loop
         vertex 8.022788e+00 2.604723e-01 6.000000e+00
         vertex 4.000000e+00 9.184851e-17 6.000000e+00
         vertex 8.200962e+00 -7.500000e-01 6.000000e+00
      endloop
   endfacet
   facet normal 0.000000e+00 -0.000000e+00 1.000000e+00
      outer loop
         vertex 1.079904e+01 -7.500000e-01 6.000000e+00
         vertex 1.338909e+01 -3.889087e+00 6.000000e+00
         vertex 1.458134e+01 -2.104759e+00 6.000000e+00
      endloop
   endfacet
   facet normal 0.000000e+00 0.000000e+00 1.000000e+00
      outer loop
         vertex 1.097721e+01 2.604723e-01 6.000000e+00
         vertex 1.079904e+01 -7.500000e-01 6.000000e+00
         vertex 1.500000e+01 -1.928819e-15 6.000000e+00
      endloop
   endfacet
   facet normal 0.000000e+00 -1.000000e+00 -0.000000e+00
      outer loop
         vertex 1.600000e+01 -3.500000e+01 3.000000e+00
         vertex -2.094888e-15 -3.500000e+01 3.000000e+00
         vertex -2.143132e-15 -3.500000e+01 0.000000e+00
      endloop
   endfacet
   facet normal 0.000000e+00 -1.000000e+00 -0.000000e+00
      outer loop
         vertex 1.600000e+01 -3.500000e+01 0.000000e+00
         vertex 1.600000e+01 -3.500000e+01 3.000000e+00
         vertex -2.143132e-15 -3.500000e+01 0.000000e+00
      endloop
   endfacet
   facet normal -1.000000e+00 2.074752e-17 -3.030663e-18
      outer loop
         vertex 8.881784e-16 1.500000e+01 1.800000e+01
         vertex 9.033317e-16 1.500000e+01 1.300000e+01
         vertex 2.809061e-16 -1.500000e+01 1.300000e+01
      endloop
   endfacet
   facet normal -1.000000e+00 5.779463e-17 -3.570045e-16
      outer loop
         vertex 1.357853e-15 1.534074e+01 1.041181e+01
         vertex 2.276617e-15 1.633975e+01 8.000000e+00
         vertex 3.879180e-16 -1.633975e+01 8.000000e+00
      endloop
   endfacet
   facet normal -1.000000e+00 3.061617e-17 1.186664e-23
      outer loop
         vertex 1.437094e-15 1.792893e+01 5.928932e+00
         vertex 1.500502e-15 2.000000e+01 4.339746e+00
         vertex 2.758550e-16 -2.000000e+01 4.339746e+00
      endloop
   endfacet
   facet normal -1.000000e+00 -1.510327e-17 -2.271689e-16
      outer loop
         vertex 1.574342e-15 2.241181e+01 3.340742e+00
         vertex 1.612658e-15 2.500000e+01 3.000000e+00
         vertex 2.143132e-15 3.500000e+01 0.000000e+00
      endloop
   endfacet
   facet normal -1.000000e+00 1.235265e-16 2.349303e-16
      outer loop
         vertex 2.847923e-15 3.500000e+01 3.000000e+00
         vertex 2.143132e-15 3.500000e+01 0.000000e+00
         vertex 1.612658e-15 2.500000e+01 3.000000e+00
      endloop
   endfacet
   facet normal -1.000000e+00 1.962528e-16 1.608113e-17
      outer loop
         vertex -2.094888e-15 -3.500000e+01 3.000000e+00
         vertex -1.323606e-16 -2.500000e+01 3.000000e+00
         vertex -2.143132e-15 -3.500000e+01 0.000000e+00
      endloop
   endfacet
   facet normal -1.000000e+00 3.061617e-17 4.380786e-24
      outer loop
         vertex 2.758550e-16 -2.000000e+01 4.339746e+00
         vertex 3.392632e-16 -1.792893e+01 5.928932e+00
         vertex 1.437094e-15 1.792893e+01 5.928932e+00
      endloop
   endfacet
   facet normal -1.000000e+00 3.061617e-17 -6.909301e-24
      outer loop
         vertex 3.879180e-16 -1.633975e+01 8.000000e+00
         vertex 4.185037e-16 -1.534074e+01 1.041181e+01
         vertex 1.357853e-15 1.534074e+01 1.041181e+01
      endloop
   endfacet
   facet normal -1.000000e+00 5.921189e-17 -2.338169e-16
      outer loop
         vertex 2.809061e-16 -1.500000e+01 1.300000e+01
         vertex -8.881784e-16 -1.500000e+01 1.800000e+01
         vertex 8.881784e-16 1.500000e+01 1.800000e+01
      endloop
   endfacet
   facet normal -1.000000e+00 5.779463e-17 -2.085476e-17
      outer loop
         vertex 3.879180e-16 -1.633975e+01 8.000000e+00
         vertex 2.276617e-15 1.633975e+01 8.000000e+00
         vertex 3.392632e-16 -1.792893e+01 5.928932e+00
      endloop
   endfacet
   facet normal -1.000000e+00 7.297704e-17 4.270003e-16
      outer loop
         vertex -2.143132e-15 -3.500000e+01 0.000000e+00
         vertex -1.323606e-16 -2.500000e+01 3.000000e+00
         vertex 2.020146e-16 -2.241181e+01 3.340742e+00
      endloop
   endfacet
   facet normal -1.000000e+00 3.061617e-17 4.288504e-16
      outer loop
         vertex 3.392632e-16 -1.792893e+01 5.928932e+00
         vertex 2.276617e-15 1.633975e+01 8.000000e+00
         vertex 1.437094e-15 1.792893e+01 5.928932e+00
      endloop
   endfacet
   facet normal -1.000000e+00 3.061617e-17 -1.715829e-16
      outer loop
         vertex 9.033317e-16 1.500000e+01 1.300000e+01
         vertex 1.357853e-15 1.534074e+01 1.041181e+01
         vertex 4.185037e-16 -1.534074e+01 1.041181e+01
      endloop
   endfacet
   facet normal -1.000000e+00 6.123234e-17 6.047002e-17
      outer loop
         vertex 2.143132e-15 3.500000e+01 0.000000e+00
         vertex -2.143132e-15 -3.500000e+01 0.000000e+00
         vertex 1.574342e-15 2.241181e+01 3.340742e+00
      endloop
   endfacet
   facet normal -1.000000e+00 2.074752e-17 -5.589507e-17
      outer loop
         vertex 4.185037e-16 -1.534074e+01 1.041181e+01
         vertex 2.809061e-16 -1.500000e+01 1.300000e+01
         vertex 9.033317e-16 1.500000e+01 1.300000e+01
      endloop
   endfacet
   facet normal -1.000000e+00 3.061617e-17 5.866195e-16
      outer loop
         vertex -2.143132e-15 -3.500000e+01 0.000000e+00
         vertex 2.020146e-16 -2.241181e+01 3.340742e+00
         vertex 1.574342e-15 2.241181e+01 3.340742e+00
      endloop
   endfacet
   facet normal -1.000000e+00 3.061617e-17 -3.231066e-23
      outer loop
         vertex 1.500502e-15 2.000000e+01 4.339746e+00
         vertex 1.574342e-15 2.241181e+01 3.340742e+00
         vertex 2.758550e-16 -2.000000e+01 4.339746e+00
      endloop
   endfacet
   facet normal -1.000000e+00 3.061617e-17 -8.772132e-24
      outer loop
         vertex 1.574342e-15 2.241181e+01 3.340742e+00
         vertex 2.020146e-16 -2.241181e+01 3.340742e+00
         vertex 2.758550e-16 -2.000000e+01 4.339746e+00
      endloop
   endfacet
   facet normal -0.000000e+00 1.000000e+00 0.000000e+00
      outer loop
         vertex 2.143132e-15 3.500000e+01 0.000000e+00
         vertex 2.847923e-15 3.500000e+01 3.000000e+00
         vertex 1.600000e+01 3.500000e+01 3.000000e+00
      endloop
   endfacet
   facet normal 0.000000e+00 1.000000e+00 0.000000e+00
      outer loop
         vertex 1.600000e+01 3.500000e+01 0.000000e+00
         vertex 2.143132e-15 3.500000e+01 0.000000e+00
         vertex 1.600000e+01 3.500000e+01 3.000000e+00
      endloop
   endfacet
   facet normal 1.000000e+00 0.000000e+00 0.000000e+00
      outer loop
         vertex 1.600000e+01 -3.500000e+01 3.000000e+00
         vertex 1.600000e+01 -3.500000e+01 0.000000e+00
         vertex 1.600000e+01 3.500000e+01 0.000000e+00
      endloop
   endfacet
   facet normal 1.000000e+00 -0.000000e+00 0.000000e+00
      outer loop
         vertex 1.600000e+01 3.500000e+01 3.000000e+00
         vertex 1.600000e+01 -3.500000e+01 3.000000e+00
         vertex 1.600000e+01 3.500000e+01 0.000000e+00
      endloop
   endfacet
   facet normal -1.950903e-01 9.807853e-01 0.000000e+00
      outer loop
         vertex 9.500000e+00 5.500000e+00 6.000000e+00
         vertex 9.500000e+00 5.500000e+00 3.000000e+00
         vertex 7.395241e+00 5.081337e+00 3.000000e+00
      endloop
   endfacet
   facet normal -8.314696e-01 5.555703e-01 0.000000e+00
      outer loop
         vertex 5.610913e+00 3.889087e+00 3.000000e+00
         vertex 4.418663e+00 2.104759e+00 3.000000e+00
         vertex 4.418663e+00 2.104759e+00 6.000000e+00
      endloop
   endfacet
   facet normal -9.807853e-01 -1.950903e-01 0.000000e+00
      outer loop
         vertex 4.000000e+00 9.184851e-17 3.000000e+00
         vertex 4.418663e+00 -2.104759e+00 3.000000e+00
         vertex 4.418663e+00 -2.104759e+00 6.000000e+00
      endloop
   endfacet
   facet normal -5.555703e-01 -8.314696e-01 0.000000e+00
      outer loop
         vertex 5.610913e+00 -3.889087e+00 3.000000e+00
         vertex 7.395241e+00 -5.081337e+00 3.000000e+00
         vertex 7.395241e+00 -5.081337e+00 6.000000e+00
      endloop
   endfacet
   facet normal 1.950903e-01 -9.807853e-01 0.000000e+00
      outer loop
         vertex 9.500000e+00 -5.500000e+00 3.000000e+00
         vertex 1.160476e+01 -5.081337e+00 3.000000e+00
         vertex 1.160476e+01 -5.081337e+00 6.000000e+00
      endloop
   endfacet
   facet normal 8.314698e-01 -5.555700e-01 0.000000e+00
      outer loop
         vertex 1.338909e+01 -3.889087e+00 3.000000e+00
         vertex 1.458134e+01 -2.104759e+00 3.000000e+00
         vertex 1.458134e+01 -2.104759e+00 6.000000e+00
      endloop
   endfacet
   facet normal 9.807852e-01 1.950905e-01 -0.000000e+00
      outer loop
         vertex 1.500000e+01 -1.928819e-15 3.000000e+00
         vertex 1.458134e+01 2.104759e+00 3.000000e+00
         vertex 1.458134e+01 2.104759e+00 6.000000e+00
      endloop
   endfacet
   facet normal 5.555703e-01 8.314696e-01 -0.000000e+00
      outer loop
         vertex 1.338909e+01 3.889087e+00 3.000000e+00
         vertex 1.160476e+01 5.081337e+00 3.000000e+00
         vertex 1.160476e+01 5.081337e+00 6.000000e+00
      endloop
   endfacet
   facet normal 1.950903e-01 9.807853e-01 0.000000e+00
      outer loop
         vertex 9.500000e+00 5.500000e+00 3.000000e+00
         vertex 9.500000e+00 5.500000e+00 6.000000e+00
         vertex 1.160476e+01 5.081337e+00 3.000000e+00
      endloop
   endfacet
   facet normal 8.314698e-01 5.555700e-01 0.000000e+00
      outer loop
         vertex 1.338909e+01 3.889087e+00 6.000000e+00
         vertex 1.458134e+01 2.104759e+00 6.000000e+00
         vertex 1.458134e+01 2.104759e+00 3.000000e+00
      endloop
   endfacet
   facet normal 9.807852e-01 -1.950905e-01 0.000000e+00
      outer loop
         vertex 1.500000e+01 -1.928819e-15 6.000000e+00
         vertex 1.458134e+01 -2.104759e+00 6.000000e+00
         vertex 1.458134e+01 -2.104759e+00 3.000000e+00
      endloop
   endfacet
   facet normal 5.555703e-01 -8.314696e-01 0.000000e+00
      outer loop
         vertex 1.338909e+01 -3.889087e+00 6.000000e+00
         vertex 1.160476e+01 -5.081337e+00 6.000000e+00
         vertex 1.160476e+01 -5.081337e+00 3.000000e+00
      endloop
   endfacet
   facet normal -1.950903e-01 -9.807853e-01 -0.000000e+00
      outer loop
         vertex 9.500000e+00 -5.500000e+00 6.000000e+00
         vertex 7.395241e+00 -5.081337e+00 6.000000e+00
         vertex 7.395241e+00 -5.081337e+00 3.000000e+00
      endloop
   endfacet
   facet normal -8.314696e-01 -5.555703e-01 -0.000000e+00
      outer loop
         vertex 5.610913e+00 -3.889087e+00 6.000000e+00
         vertex 4.418663e+00 -2.104759e+00 6.000000e+00
         vertex 4.418663e+00 -2.104759e+00 3.000000e+00
      endloop
   endfacet
   facet normal -9.807853e-01 1.950903e-01 0.000000e+00
      outer loop
         vertex 4.000000e+00 9.184851e-17 6.000000e+00
         vertex 4.418663e+00 2.104759e+00 6.000000e+00
         vertex 4.418663e+00 2.104759e+00 3.000000e+00
      endloop
   endfacet
   facet normal -5.555703e-01 8.314696e-01 0.000000e+00
      outer loop
         vertex 5.610913e+00 3.889087e+00 6.000000e+00
         vertex 7.395241e+00 5.081337e+00 6.000000e+00
         vertex 7.395241e+00 5.081337e+00 3.000000e+00
      endloop
   endfacet
   facet normal -1.950903e-01 9.807853e-01 0.000000e+00
      outer loop
         vertex 9.500000e+00 5.500000e+00 6.000000e+00
         vertex 7.395241e+00 5.081337e+00 3.000000e+00
         vertex 7.395241e+00 5.081337e+00 6.000000e+00
      endloop
   endfacet
   facet normal -5.555703e-01 -8.314696e-01 0.000000e+00
      outer loop
         vertex 5.610913e+00 -3.889087e+00 3.000000e+00
         vertex 7.395241e+00 -5.081337e+00 6.000000e+00
         vertex 5.610913e+00 -3.889087e+00 6.000000e+00
      endloop
   endfacet
   facet normal 9.807852e-01 1.950905e-01 0.000000e+00
      outer loop
         vertex 1.500000e+01 -1.928819e-15 3.000000e+00
         vertex 1.458134e+01 2.104759e+00 6.000000e+00
         vertex 1.500000e+01 -1.928819e-15 6.000000e+00
      endloop
   endfacet
   facet normal 1.950903e-01 9.807853e-01 0.000000e+00
      outer loop
         vertex 1.160476e+01 5.081337e+00 3.000000e+00
         vertex 9.500000e+00 5.500000e+00 6.000000e+00
         vertex 1.160476e+01 5.081337e+00 6.000000e+00
      endloop
   endfacet
   facet normal -1.950903e-01 -9.807853e-01 0.000000e+00
      outer loop
         vertex 9.500000e+00 -5.500000e+00 6.000000e+00
         vertex 7.395241e+00 -5.081337e+00 3.000000e+00
         vertex 9.500000e+00 -5.500000e+00 3.000000e+00
      endloop
   endfacet
   facet normal -5.555703e-01 8.314696e-01 0.000000e+00
      outer loop
         vertex 5.610913e+00 3.889087e+00 6.000000e+00
         vertex 7.395241e+00 5.081337e+00 3.000000e+00
         vertex 5.610913e+00 3.889087e+00 3.000000e+00
      endloop
   endfacet
   facet normal 1.950903e-01 -9.807853e-01 0.000000e+00
      outer loop
         vertex 9.500000e+00 -5.500000e+00 6.000000e+00
         vertex 9.500000e+00 -5.500000e+00 3.000000e+00
         vertex 1.160476e+01 -5.081337e+00 6.000000e+00
      endloop
   endfacet
   facet normal -9.807853e-01 1.950903e-01 0.000000e+00
      outer loop
         vertex 4.418663e+00 2.104759e+00 3.000000e+00
         vertex 4.000000e+00 9.184851e-17 3.000000e+00
         vertex 4.000000e+00 9.184851e-17 6.000000e+00
      endloop
   endfacet
   facet normal 5.555703e-01 -8.314696e-01 0.000000e+00
      outer loop
         vertex 1.160476e+01 -5.081337e+00 3.000000e+00
         vertex 1.338909e+01 -3.889087e+00 3.000000e+00
         vertex 1.338909e+01 -3.889087e+00 6.000000e+00
      endloop
   endfacet
   facet normal 8.314698e-01 5.555700e-01 -0.000000e+00
      outer loop
         vertex 1.458134e+01 2.104759e+00 3.000000e+00
         vertex 1.338909e+01 3.889087e+00 3.000000e+00
         vertex 1.338909e+01 3.889087e+00 6.000000e+00
      endloop
   endfacet
   facet normal 8.314698e-01 -5.555700e-01 0.000000e+00
      outer loop
         vertex 1.458134e+01 -2.104759e+00 6.000000e+00
         vertex 1.338909e+01 -3.889087e+00 6.000000e+00
         vertex 1.338909e+01 -3.889087e+00 3.000000e+00
      endloop
   endfacet
   facet normal -8.314696e-01 5.555703e-01 0.000000e+00
      outer loop
         vertex 4.418663e+00 2.104759e+00 6.000000e+00
         vertex 5.610913e+00 3.889087e+00 6.000000e+00
         vertex 5.610913e+00 3.889087e+00 3.000000e+00
      endloop
   endfacet
   facet normal 5.555703e-01 8.314696e-01 0.000000e+00
      outer loop
         vertex 1.338909e+01 3.889087e+00 3.000000e+00
         vertex 1.160476e+01 5.081337e+00 6.000000e+00
         vertex 1.338909e+01 3.889087e+00 6.000000e+00
      endloop
   endfacet
   facet normal -8.314696e-01 -5.555703e-01 -0.000000e+00
      outer loop
         vertex 5.610913e+00 -3.889087e+00 3.000000e+00
         vertex 5.610913e+00 -3.889087e+00 6.000000e+00
         vertex 4.418663e+00 -2.104759e+00 3.000000e+00
      endloop
   endfacet
   facet normal 9.807852e-01 -1.950905e-01 0.000000e+00
      outer loop
         vertex 1.458134e+01 -2.104759e+00 3.000000e+00
         vertex 1.500000e+01 -1.928819e-15 3.000000e+00
         vertex 1.500000e+01 -1.928819e-15 6.000000e+00
      endloop
   endfacet
   facet normal -9.807853e-01 -1.950903e-01 0.000000e+00
      outer loop
         vertex 4.000000e+00 9.184851e-17 3.000000e+00
         vertex 4.418663e+00 -2.104759e+00 6.000000e+00
         vertex 4.000000e+00 9.184851e-17 6.000000e+00
      endloop
   endfacet
   facet normal 0.000000e+00 0.000000e+00 1.000000e+00
      outer loop
         vertex 2.847923e-15 3.500000e+01 3.000000e+00
         vertex 1.612658e-15 2.500000e+01 3.000000e+00
         vertex 2.000000e+00 2.500000e+01 3.000000e+00
      endloop
   endfacet
   facet normal -0.000000e+00 0.000000e+00 1.000000e+00
      outer loop
         vertex 2.000000e+00 -2.500000e+01 3.000000e+00
         vertex -1.323606e-16 -2.500000e+01 3.000000e+00
         vertex -2.094888e-15 -3.500000e+01 3.000000e+00
      endloop
   endfacet
   facet normal 0.000000e+00 0.000000e+00 1.000000e+00
      outer loop
         vertex 1.600000e+01 -3.500000e+01 3.000000e+00
         vertex 1.600000e+01 3.500000e+01 3.000000e+00
         vertex 1.500000e+01 -1.928819e-15 3.000000e+00
      endloop
   endfacet
   facet normal 0.000000e+00 0.000000e+00 1.000000e+00
      outer loop
         vertex 7.395241e+00 5.081337e+00 3.000000e+00
         vertex 9.500000e+00 5.500000e+00 3.000000e+00
         vertex 2.000000e+00 2.500000e+01 3.000000e+00
      endloop
   endfacet
   facet normal 0.000000e+00 -0.000000e+00 1.000000e+00
      outer loop
         vertex 1.160476e+01 5.081337e+00 3.000000e+00
         vertex 1.338909e+01 3.889087e+00 3.000000e+00
         vertex 1.600000e+01 3.500000e+01 3.000000e+00
      endloop
   endfacet
   facet normal 0.000000e+00 -0.000000e+00 1.000000e+00
      outer loop
         vertex 1.458134e+01 2.104759e+00 3.000000e+00
         vertex 1.500000e+01 -1.928819e-15 3.000000e+00
         vertex 1.600000e+01 3.500000e+01 3.000000e+00
      endloop
   endfacet
   facet normal -0.000000e+00 0.000000e+00 1.000000e+00
      outer loop
         vertex 1.458134e+01 -2.104759e+00 3.000000e+00
         vertex 1.338909e+01 -3.889087e+00 3.000000e+00
         vertex 1.600000e+01 -3.500000e+01 3.000000e+00
      endloop
   endfacet
   facet normal -0.000000e+00 0.000000e+00 1.000000e+00
      outer loop
         vertex 1.160476e+01 -5.081337e+00 3.000000e+00
         vertex 9.500000e+00 -5.500000e+00 3.000000e+00
         vertex 2.000000e+00 -2.500000e+01 3.000000e+00
      endloop
   endfacet
   facet normal 0.000000e+00 0.000000e+00 1.000000e+00
      outer loop
         vertex 7.395241e+00 -5.081337e+00 3.000000e+00
         vertex 5.610913e+00 -3.889087e+00 3.000000e+00
         vertex 2.000000e+00 -2.500000e+01 3.000000e+00
      endloop
   endfacet
   facet normal 0.000000e+00 0.000000e+00 1.000000e+00
      outer loop
         vertex 4.418663e+00 -2.104759e+00 3.000000e+00
         vertex 4.000000e+00 9.184851e-17 3.000000e+00
         vertex 2.000000e+00 -2.500000e+01 3.000000e+00
      endloop
   endfacet
   facet normal 0.000000e+00 0.000000e+00 1.000000e+00
      outer loop
         vertex 4.418663e+00 2.104759e+00 3.000000e+00
         vertex 5.610913e+00 3.889087e+00 3.000000e+00
         vertex 2.000000e+00 2.500000e+01 3.000000e+00
      endloop
   endfacet
   facet normal 0.000000e+00 -0.000000e+00 1.000000e+00
      outer loop
         vertex 2.847923e-15 3.500000e+01 3.000000e+00
         vertex 2.000000e+00 2.500000e+01 3.000000e+00
         vertex 1.600000e+01 3.500000e+01 3.000000e+00
      endloop
   endfacet
   facet normal 0.000000e+00 0.000000e+00 1.000000e+00
      outer loop
         vertex 7.395241e+00 5.081337e+00 3.000000e+00
         vertex 2.000000e+00 2.500000e+01 3.000000e+00
         vertex 5.610913e+00 3.889087e+00 3.000000e+00
      endloop
   endfacet
   facet normal -0.000000e+00 0.000000e+00 1.000000e+00
      outer loop
         vertex 1.600000e+01 3.500000e+01 3.000000e+00
         vertex 1.338909e+01 3.889087e+00 3.000000e+00
         vertex 1.458134e+01 2.104759e+00 3.000000e+00
      endloop
   endfacet
   facet normal -0.000000e+00 0.000000e+00 1.000000e+00
      outer loop
         vertex 1.160476e+01 -5.081337e+00 3.000000e+00
         vertex 2.000000e+00 -2.500000e+01 3.000000e+00
         vertex 1.600000e+01 -3.500000e+01 3.000000e+00
      endloop
   endfacet
   facet normal 0.000000e+00 0.000000e+00 1.000000e+00
      outer loop
         vertex 7.395241e+00 -5.081337e+00 3.000000e+00
         vertex 2.000000e+00 -2.500000e+01 3.000000e+00
         vertex 9.500000e+00 -5.500000e+00 3.000000e+00
      endloop
   endfacet
   facet normal 0.000000e+00 0.000000e+00 1.000000e+00
      outer loop
         vertex 4.418663e+00 2.104759e+00 3.000000e+00
         vertex 2.000000e+00 2.500000e+01 3.000000e+00
         vertex 4.000000e+00 9.184851e-17 3.000000e+00
      endloop
   endfacet
   facet normal 0.000000e+00 0.000000e+00 1.000000e+00
      outer loop
         vertex 1.600000e+01 -3.500000e+01 3.000000e+00
         vertex 2.000000e+00 -2.500000e+01 3.000000e+00
         vertex -2.094888e-15 -3.500000e+01 3.000000e+00
      endloop
   endfacet
   facet normal 0.000000e+00 0.000000e+00 1.000000e+00
      outer loop
         vertex 2.000000e+00 2.500000e+01 3.000000e+00
         vertex 2.000000e+00 -2.500000e+01 3.000000e+00
         vertex 4.000000e+00 9.184851e-17 3.000000e+00
      endloop
   endfacet
   facet normal -0.000000e+00 0.000000e+00 1.000000e+00
      outer loop
         vertex 1.500000e+01 -1.928819e-15 3.000000e+00
         vertex 1.458134e+01 -2.104759e+00 3.000000e+00
         vertex 1.600000e+01 -3.500000e+01 3.000000e+00
      endloop
   endfacet
   facet normal 0.000000e+00 0.000000e+00 1.000000e+00
      outer loop
         vertex 5.610913e+00 -3.889087e+00 3.000000e+00
         vertex 4.418663e+00 -2.104759e+00 3.000000e+00
         vertex 2.000000e+00 -2.500000e+01 3.000000e+00
      endloop
   endfacet
   facet normal 0.000000e+00 0.000000e+00 1.000000e+00
      outer loop
         vertex 1.160476e+01 5.081337e+00 3.000000e+00
         vertex 1.600000e+01 3.500000e+01 3.000000e+00
         vertex 2.000000e+00 2.500000e+01 3.000000e+00
      endloop
   endfacet
   facet normal 0.000000e+00 0.000000e+00 1.000000e+00
      outer loop
         vertex 1.160476e+01 -5.081337e+00 3.000000e+00
         vertex 1.600000e+01 -3.500000e+01 3.000000e+00
         vertex 1.338909e+01 -3.889087e+00 3.000000e+00
      endloop
   endfacet
   facet normal 0.000000e+00 0.000000e+00 1.000000e+00
      outer loop
         vertex 9.500000e+00 5.500000e+00 3.000000e+00
         vertex 1.160476e+01 5.081337e+00 3.000000e+00
         vertex 2.000000e+00 2.500000e+01 3.000000e+00
      endloop
   endfacet
   facet normal -0.000000e+00 9.914448e-01 1.305264e-01
      outer loop
         vertex 1.357853e-15 1.534074e+01 1.041181e+01
         vertex 9.033317e-16 1.500000e+01 1.300000e+01
         vertex 2.000000e+00 1.500000e+01 1.300000e+01
      endloop
   endfacet
   facet normal 0.000000e+00 9.238795e-01 3.826834e-01
      outer loop
         vertex 2.000000e+00 1.534074e+01 1.041181e+01
         vertex 2.000000e+00 1.633975e+01 8.000000e+00
         vertex 2.276617e-15 1.633975e+01 8.000000e+00
      endloop
   endfacet
   facet normal 0.000000e+00 6.087614e-01 7.933533e-01
      outer loop
         vertex 2.000000e+00 1.792893e+01 5.928932e+00
         vertex 2.000000e+00 2.000000e+01 4.339746e+00
         vertex 1.500502e-15 2.000000e+01 4.339746e+00
      endloop
   endfacet
   facet normal 0.000000e+00 1.305262e-01 9.914449e-01
      outer loop
         vertex 2.000000e+00 2.241181e+01 3.340742e+00
         vertex 2.000000e+00 2.500000e+01 3.000000e+00
         vertex 1.612658e-15 2.500000e+01 3.000000e+00
      endloop
   endfacet
   facet normal -0.000000e+00 3.826834e-01 9.238795e-01
      outer loop
         vertex 1.574342e-15 2.241181e+01 3.340742e+00
         vertex 1.500502e-15 2.000000e+01 4.339746e+00
         vertex 2.000000e+00 2.000000e+01 4.339746e+00
      endloop
   endfacet
   facet normal -0.000000e+00 7.933534e-01 6.087613e-01
      outer loop
         vertex 1.437094e-15 1.792893e+01 5.928932e+00
         vertex 2.276617e-15 1.633975e+01 8.000000e+00
         vertex 2.000000e+00 1.633975e+01 8.000000e+00
      endloop
   endfacet
   facet normal 0.000000e+00 9.914448e-01 1.305264e-01
      outer loop
         vertex 1.357853e-15 1.534074e+01 1.041181e+01
         vertex 2.000000e+00 1.500000e+01 1.300000e+01
         vertex 2.000000e+00 1.534074e+01 1.041181e+01
      endloop
   endfacet
   facet normal 0.000000e+00 1.305262e-01 9.914449e-01
      outer loop
         vertex 2.000000e+00 2.241181e+01 3.340742e+00
         vertex 1.612658e-15 2.500000e+01 3.000000e+00
         vertex 1.574342e-15 2.241181e+01 3.340742e+00
      endloop
   endfacet
   facet normal 0.000000e+00 9.238795e-01 3.826834e-01
      outer loop
         vertex 1.357853e-15 1.534074e+01 1.041181e+01
         vertex 2.000000e+00 1.534074e+01 1.041181e+01
         vertex 2.276617e-15 1.633975e+01 8.000000e+00
      endloop
   endfacet
   facet normal 0.000000e+00 7.933534e-01 6.087613e-01
      outer loop
         vertex 2.000000e+00 1.633975e+01 8.000000e+00
         vertex 2.000000e+00 1.792893e+01 5.928932e+00
         vertex 1.437094e-15 1.792893e+01 5.928932e+00
      endloop
   endfacet
   facet normal -0.000000e+00 6.087614e-01 7.933533e-01
      outer loop
         vertex 1.500502e-15 2.000000e+01 4.339746e+00
         vertex 1.437094e-15 1.792893e+01 5.928932e+00
         vertex 2.000000e+00 1.792893e+01 5.928932e+00
      endloop
   endfacet
   facet normal -0.000000e+00 3.826834e-01 9.238795e-01
      outer loop
         vertex 2.000000e+00 2.241181e+01 3.340742e+00
         vertex 1.574342e-15 2.241181e+01 3.340742e+00
         vertex 2.000000e+00 2.000000e+01 4.339746e+00
      endloop
   endfacet
   facet normal 0.000000e+00 -9.914448e-01 1.305264e-01
      outer loop
         vertex 4.185037e-16 -1.534074e+01 1.041181e+01
         vertex 2.000000e+00 -1.534074e+01 1.041181e+01
         vertex 2.000000e+00 -1.500000e+01 1.300000e+01
      endloop
   endfacet
   facet normal 0.000000e+00 -7.933534e-01 6.087613e-01
      outer loop
         vertex 3.392632e-16 -1.792893e+01 5.928932e+00
         vertex 2.000000e+00 -1.792893e+01 5.928932e+00
         vertex 2.000000e+00 -1.633975e+01 8.000000e+00
      endloop
   endfacet
   facet normal 0.000000e+00 -3.826834e-01 9.238795e-01
      outer loop
         vertex 2.020146e-16 -2.241181e+01 3.340742e+00
         vertex 2.000000e+00 -2.241181e+01 3.340742e+00
         vertex 2.000000e+00 -2.000000e+01 4.339746e+00
      endloop
   endfacet
   facet normal 0.000000e+00 -1.305262e-01 9.914449e-01
      outer loop
         vertex 2.000000e+00 -2.241181e+01 3.340742e+00
         vertex -1.323606e-16 -2.500000e+01 3.000000e+00
         vertex 2.000000e+00 -2.500000e+01 3.000000e+00
      endloop
   endfacet
   facet normal 0.000000e+00 -6.087614e-01 7.933533e-01
      outer loop
         vertex 2.000000e+00 -1.792893e+01 5.928932e+00
         vertex 3.392632e-16 -1.792893e+01 5.928932e+00
         vertex 2.758550e-16 -2.000000e+01 4.339746e+00
      endloop
   endfacet
   facet normal 0.000000e+00 -9.238795e-01 3.826834e-01
      outer loop
         vertex 2.000000e+00 -1.534074e+01 1.041181e+01
         vertex 4.185037e-16 -1.534074e+01 1.041181e+01
         vertex 3.879180e-16 -1.633975e+01 8.000000e+00
      endloop
   endfacet
   facet normal 0.000000e+00 -9.914448e-01 1.305264e-01
      outer loop
         vertex 4.185037e-16 -1.534074e+01 1.041181e+01
         vertex 2.000000e+00 -1.500000e+01 1.300000e+01
         vertex 2.809061e-16 -1.500000e+01 1.300000e+01
      endloop
   endfacet
   facet normal 0.000000e+00 -1.305262e-01 9.914449e-01
      outer loop
         vertex -1.323606e-16 -2.500000e+01 3.000000e+00
         vertex 2.000000e+00 -2.241181e+01 3.340742e+00
         vertex 2.020146e-16 -2.241181e+01 3.340742e+00
      endloop
   endfacet
   facet normal 0.000000e+00 -9.238795e-01 3.826834e-01
      outer loop
         vertex 3.879180e-16 -1.633975e+01 8.000000e+00
         vertex 2.000000e+00 -1.633975e+01 8.000000e+00
         vertex 2.000000e+00 -1.534074e+01 1.041181e+01
      endloop
   endfacet
   facet normal 0.000000e+00 -3.826834e-01 9.238795e-01
      outer loop
         vertex 2.000000e+00 -2.000000e+01 4.339746e+00
         vertex 2.758550e-16 -2.000000e+01 4.339746e+00
         vertex 2.020146e-16 -2.241181e+01 3.340742e+00
      endloop
   endfacet
   facet normal 0.000000e+00 -7.933534e-01 6.087613e-01
      outer loop
         vertex 3.879180e-16 -1.633975e+01 8.000000e+00
         vertex 3.392632e-16 -1.792893e+01 5.928932e+00
         vertex 2.000000e+00 -1.633975e+01 8.000000e+00
      endloop
   endfacet
   facet normal 0.000000e+00 -6.087614e-01 7.933533e-01
      outer loop
         vertex 2.758550e-16 -2.000000e+01 4.339746e+00
         vertex 2.000000e+00 -2.000000e+01 4.339746e+00
         vertex 2.000000e+00 -1.792893e+01 5.928932e+00
      endloop
   endfacet
   facet normal 0.000000e+00 -1.000000e+00 0.000000e+00
      outer loop
         vertex 2.000000e+00 -1.500000e+01 1.800000e+01
         vertex -8.881784e-16 -1.500000e+01 1.800000e+01
         vertex 2.809061e-16 -1.500000e+01 1.300000e+01
      endloop
   endfacet
   facet normal 0.000000e+00 -1.000000e+00 0.000000e+00
      outer loop
         vertex 2.000000e+00 -1.500000e+01 1.800000e+01
         vertex 2.809061e-16 -1.500000e+01 1.300000e+01
         vertex 2.000000e+00 -1.500000e+01 1.300000e+01
      endloop
   endfacet
   facet normal -0.000000e+00 0.000000e+00 1.000000e+00
      outer loop
         vertex 2.000000e+00 1.500000e+01 1.800000e+01
         vertex 8.881784e-16 1.500000e+01 1.800000e+01
         vertex -8.881784e-16 -1.500000e+01 1.800000e+01
      endloop
   endfacet
   facet normal 0.000000e+00 0.000000e+00 1.000000e+00
      outer loop
         vertex 2.000000e+00 1.500000e+01 1.800000e+01
         vertex -8.881784e-16 -1.500000e+01 1.800000e+01
         vertex 2.000000e+00 -1.500000e+01 1.800000e+01
      endloop
   endfacet
   facet normal 0.000000e+00 1.000000e+00 -0.000000e+00
      outer loop
         vertex 2.000000e+00 1.500000e+01 1.800000e+01
         vertex 2.000000e+00 1.500000e+01 1.300000e+01
         vertex 9.033317e-16 1.500000e+01 1.300000e+01
      endloop
   endfacet
   facet normal 0.000000e+00 1.000000e+00 0.000000e+00
      outer loop
         vertex 8.881784e-16 1.500000e+01 1.800000e+01
         vertex 2.000000e+00 1.500000e+01 1.800000e+01
         vertex 9.033317e-16 1.500000e+01 1.300000e+01
      endloop
   endfacet
   facet normal 1.000000e+00 0.000000e+00 0.000000e+00
      outer loop
         vertex 2.000000e+00 2.241181e+01 3.340742e+00
         vertex 2.000000e+00 -2.500000e+01 3.000000e+00
         vertex 2.000000e+00 2.500000e+01 3.000000e+00
      endloop
   endfacet
   facet normal 1.000000e+00 -0.000000e+00 0.000000e+00
      outer loop
         vertex 2.000000e+00 2.000000e+01 4.339746e+00
         vertex 2.000000e+00 -2.000000e+01 4.339746e+00
         vertex 2.000000e+00 -2.241181e+01 3.340742e+00
      endloop
   endfacet
   facet normal 1.000000e+00 0.000000e+00 0.000000e+00
      outer loop
         vertex 2.000000e+00 1.792893e+01 5.928932e+00
         vertex 2.000000e+00 -1.633975e+01 8.000000e+00
         vertex 2.000000e+00 -1.792893e+01 5.928932e+00
      endloop
   endfacet
   facet normal 1.000000e+00 -0.000000e+00 0.000000e+00
      outer loop
         vertex 2.000000e+00 1.500000e+01 1.300000e+01
         vertex 2.000000e+00 -1.500000e+01 1.300000e+01
         vertex 2.000000e+00 -1.534074e+01 1.041181e+01
      endloop
   endfacet
   facet normal 1.000000e+00 0.000000e+00 0.000000e+00
      outer loop
         vertex 2.000000e+00 -1.500000e+01 1.300000e+01
         vertex 2.000000e+00 1.500000e+01 1.800000e+01
         vertex 2.000000e+00 -1.500000e+01 1.800000e+01
      endloop
   endfacet
   facet normal 1.000000e+00 0.000000e+00 0.000000e+00
      outer loop
         vertex 2.000000e+00 -1.534074e+01 1.041181e+01
         vertex 2.000000e+00 1.633975e+01 8.000000e+00
         vertex 2.000000e+00 1.534074e+01 1.041181e+01
      endloop
   endfacet
   facet normal 1.000000e+00 0.000000e+00 0.000000e+00
      outer loop
         vertex 2.000000e+00 -2.000000e+01 4.339746e+00
         vertex 2.000000e+00 2.000000e+01 4.339746e+00
         vertex 2.000000e+00 1.792893e+01 5.928932e+00
      endloop
   endfacet
   facet normal 1.000000e+00 0.000000e+00 0.000000e+00
      outer loop
         vertex 2.000000e+00 -2.241181e+01 3.340742e+00
         vertex 2.000000e+00 -2.500000e+01 3.000000e+00
         vertex 2.000000e+00 2.241181e+01 3.340742e+00
      endloop
   endfacet
   facet normal 1.000000e+00 -0.000000e+00 0.000000e+00
      outer loop
         vertex 2.000000e+00 1.633975e+01 8.000000e+00
         vertex 2.000000e+00 -1.633975e+01 8.000000e+00
         vertex 2.000000e+00 1.792893e+01 5.928932e+00
      endloop
   endfacet
   facet normal 1.000000e+00 0.000000e+00 0.000000e+00
      outer loop
         vertex 2.000000e+00 1.500000e+01 1.300000e+01
         vertex 2.000000e+00 1.500000e+01 1.800000e+01
         vertex 2.000000e+00 -1.500000e+01 1.300000e+01
      endloop
   endfacet
   facet normal 1.000000e+00 0.000000e+00 0.000000e+00
      outer loop
         vertex 2.000000e+00 2.000000e+01 4.339746e+00
         vertex 2.000000e+00 -2.241181e+01 3.340742e+00
         vertex 2.000000e+00 2.241181e+01 3.340742e+00
      endloop
   endfacet
   facet normal 1.000000e+00 -0.000000e+00 0.000000e+00
      outer loop
         vertex 2.000000e+00 1.792893e+01 5.928932e+00
         vertex 2.000000e+00 -1.792893e+01 5.928932e+00
         vertex 2.000000e+00 -2.000000e+01 4.339746e+00
      endloop
   endfacet
   facet normal 1.000000e+00 0.000000e+00 0.000000e+00
      outer loop
         vertex 2.000000e+00 -1.534074e+01 1.041181e+01
         vertex 2.000000e+00 1.534074e+01 1.041181e+01
         vertex 2.000000e+00 1.500000e+01 1.300000e+01
      endloop
   endfacet
   facet normal 1.000000e+00 0.000000e+00 0.000000e+00
      outer loop
         vertex 2.000000e+00 -1.534074e+01 1.041181e+01
         vertex 2.000000e+00 -1.633975e+01 8.000000e+00
         vertex 2.000000e+00 1.633975e+01 8.000000e+00
      endloop
   endfacet
endsolid
