solid 
   facet normal -9.486834e-01 0.000000e+00 3.162275e-01
      outer loop
         vertex -1.270000e+01 1.000000e+01 1.917514e+01
         vertex -1.300000e+01 1.500000e+00 1.827514e+01
         vertex -1.300000e+01 -1.500000e+00 1.827514e+01
      endloop
   endfacet
   facet normal -9.486834e-01 0.000000e+00 3.162275e-01
      outer loop
         vertex -1.300000e+01 1.500000e+00 1.827514e+01
         vertex -1.270000e+01 1.000000e+01 1.917514e+01
         vertex -1.300000e+01 1.000000e+01 1.827514e+01
      endloop
   endfacet
   facet normal -5.399185e-01 -1.625118e-02 -8.415604e-01
      outer loop
         vertex -1.310530e+01 -1.500000e+00 2.020063e+01
         vertex -1.388210e+01 1.500000e+00 2.064107e+01
         vertex -1.300000e+01 1.500000e+00 2.007514e+01
      endloop
   endfacet
   facet normal 7.558628e-01 -1.219104e-02 -6.546165e-01
      outer loop
         vertex -1.501981e+01 -1.500000e+00 2.043129e+01
         vertex -1.560549e+01 1.500000e+00 1.969916e+01
         vertex -1.491938e+01 1.500000e+00 2.049138e+01
      endloop
   endfacet
   facet normal 7.558961e-01 -7.662517e-03 6.546468e-01
      outer loop
         vertex -1.557942e+01 -1.500000e+00 1.858591e+01
         vertex -1.491938e+01 1.500000e+00 1.785890e+01
         vertex -1.560549e+01 1.500000e+00 1.865113e+01
      endloop
   endfacet
   facet normal -5.399879e-01 -2.668690e-03 8.416686e-01
      outer loop
         vertex -1.385926e+01 -1.500000e+00 1.771436e+01
         vertex -1.300000e+01 1.500000e+00 1.827514e+01
         vertex -1.388210e+01 1.500000e+00 1.770922e+01
      endloop
   endfacet
   facet normal -5.465407e-01 0.000000e+00 8.374325e-01
      outer loop
         vertex -1.300000e+01 1.500000e+00 1.827514e+01
         vertex -1.385926e+01 -1.500000e+00 1.771436e+01
         vertex -1.300000e+01 -1.500000e+00 1.827514e+01
      endloop
   endfacet
   facet normal 9.984801e-01 7.489699e-03 5.460190e-02
      outer loop
         vertex -1.560549e+01 1.500000e+00 1.865113e+01
         vertex -1.563545e+01 -1.500000e+00 1.961044e+01
         vertex -1.557942e+01 -1.500000e+00 1.858591e+01
      endloop
   endfacet
   facet normal 2.271460e-01 1.190187e-02 -9.737880e-01
      outer loop
         vertex -1.491938e+01 1.500000e+00 2.049138e+01
         vertex -1.402058e+01 -1.500000e+00 2.066437e+01
         vertex -1.501981e+01 -1.500000e+00 2.043129e+01
      endloop
   endfacet
   facet normal -9.194999e-01 1.584384e-02 -3.927708e-01
      outer loop
         vertex -1.300000e+01 1.500000e+00 2.007514e+01
         vertex -1.270224e+01 -1.500000e+00 1.925705e+01
         vertex -1.310530e+01 -1.500000e+00 2.020063e+01
      endloop
   endfacet
   facet normal -9.569640e-01 2.253106e-03 2.901980e-01
      outer loop
         vertex -1.270224e+01 -1.500000e+00 1.925705e+01
         vertex -1.270000e+01 1.000000e+01 1.917514e+01
         vertex -1.300000e+01 -1.500000e+00 1.827514e+01
      endloop
   endfacet
   facet normal 7.297930e-01 5.108800e-03 6.836491e-01
      outer loop
         vertex -1.487795e+01 -1.500000e+00 1.783709e+01
         vertex -1.491938e+01 1.500000e+00 1.785890e+01
         vertex -1.557942e+01 -1.500000e+00 1.858591e+01
      endloop
   endfacet
   facet normal 1.428104e-01 -1.427971e-02 -9.896470e-01
      outer loop
         vertex -1.388210e+01 1.500000e+00 2.064107e+01
         vertex -1.402058e+01 -1.500000e+00 2.066437e+01
         vertex -1.491938e+01 1.500000e+00 2.049138e+01
      endloop
   endfacet
   facet normal 1.428248e-01 -5.223557e-03 9.897342e-01
      outer loop
         vertex -1.388210e+01 1.500000e+00 1.770922e+01
         vertex -1.491938e+01 1.500000e+00 1.785890e+01
         vertex -1.487795e+01 -1.500000e+00 1.783709e+01
      endloop
   endfacet
   facet normal -9.486812e-01 -2.067592e-03 -3.162274e-01
      outer loop
         vertex -1.270224e+01 -1.500000e+00 1.925705e+01
         vertex -1.300000e+01 1.000000e+01 2.007514e+01
         vertex -1.270000e+01 1.000000e+01 1.917514e+01
      endloop
   endfacet
   facet normal 9.999501e-01 -9.985108e-03 0.000000e+00
      outer loop
         vertex -1.563545e+01 -1.500000e+00 1.961044e+01
         vertex -1.560549e+01 1.500000e+00 1.865113e+01
         vertex -1.560549e+01 1.500000e+00 1.969916e+01
      endloop
   endfacet
   facet normal 7.999617e-01 9.753982e-03 -5.999718e-01
      outer loop
         vertex -1.560549e+01 1.500000e+00 1.969916e+01
         vertex -1.501981e+01 -1.500000e+00 2.043129e+01
         vertex -1.563545e+01 -1.500000e+00 1.961044e+01
      endloop
   endfacet
   facet normal -4.519211e-01 1.393205e-02 -8.919491e-01
      outer loop
         vertex -1.402058e+01 -1.500000e+00 2.066437e+01
         vertex -1.388210e+01 1.500000e+00 2.064107e+01
         vertex -1.310530e+01 -1.500000e+00 2.020063e+01
      endloop
   endfacet
   facet normal 1.196146e-01 2.612482e-03 9.928170e-01
      outer loop
         vertex -1.385926e+01 -1.500000e+00 1.771436e+01
         vertex -1.388210e+01 1.500000e+00 1.770922e+01
         vertex -1.487795e+01 -1.500000e+00 1.783709e+01
      endloop
   endfacet
   facet normal -9.396926e-01 0.000000e+00 -3.420201e-01
      outer loop
         vertex -1.270224e+01 -1.500000e+00 1.925705e+01
         vertex -1.300000e+01 1.500000e+00 2.007514e+01
         vertex -1.300000e+01 1.000000e+01 2.007514e+01
      endloop
   endfacet
   facet normal -1.000000e+00 0.000000e+00 0.000000e+00
      outer loop
         vertex -1.300000e+01 1.500000e+00 1.617514e+01
         vertex -1.300000e+01 1.500000e+00 1.827514e+01
         vertex -1.300000e+01 1.000000e+01 1.827514e+01
      endloop
   endfacet
   facet normal -1.000000e+00 0.000000e+00 0.000000e+00
      outer loop
         vertex -1.300000e+01 1.000000e+01 2.007514e+01
         vertex -1.300000e+01 1.500000e+00 2.007514e+01
         vertex -1.300000e+01 1.500000e+00 2.217514e+01
      endloop
   endfacet
   facet normal -1.000000e+00 0.000000e+00 0.000000e+00
      outer loop
         vertex -1.300000e+01 -1.500000e+00 2.217514e+01
         vertex -1.300000e+01 -1.500000e+00 3.800000e+01
         vertex -1.300000e+01 1.500000e+00 2.217514e+01
      endloop
   endfacet
   facet normal -1.000000e+00 0.000000e+00 0.000000e+00
      outer loop
         vertex -1.300000e+01 2.500000e+01 -3.800000e+01
         vertex -1.300000e+01 -1.500000e+00 -3.800000e+01
         vertex -1.300000e+01 1.500000e+00 1.617514e+01
      endloop
   endfacet
   facet normal -1.000000e+00 -0.000000e+00 0.000000e+00
      outer loop
         vertex -1.300000e+01 -1.500000e+00 1.617514e+01
         vertex -1.300000e+01 1.500000e+00 1.617514e+01
         vertex -1.300000e+01 -1.500000e+00 -3.800000e+01
      endloop
   endfacet
   facet normal -1.000000e+00 0.000000e+00 0.000000e+00
      outer loop
         vertex -1.300000e+01 1.500000e+00 2.217514e+01
         vertex -1.300000e+01 -1.500000e+00 3.800000e+01
         vertex -1.300000e+01 1.000000e+01 2.007514e+01
      endloop
   endfacet
   facet normal -1.000000e+00 0.000000e+00 0.000000e+00
      outer loop
         vertex -1.300000e+01 1.000000e+01 1.827514e+01
         vertex -1.300000e+01 1.000000e+01 2.007514e+01
         vertex -1.300000e+01 2.500000e+01 3.800000e+01
      endloop
   endfacet
   facet normal -1.000000e+00 0.000000e+00 0.000000e+00
      outer loop
         vertex -1.300000e+01 2.500000e+01 3.800000e+01
         vertex -1.300000e+01 2.500000e+01 -3.800000e+01
         vertex -1.300000e+01 1.000000e+01 1.827514e+01
      endloop
   endfacet
   facet normal -1.000000e+00 0.000000e+00 0.000000e+00
      outer loop
         vertex -1.300000e+01 2.500000e+01 -3.800000e+01
         vertex -1.300000e+01 1.500000e+00 1.617514e+01
         vertex -1.300000e+01 1.000000e+01 1.827514e+01
      endloop
   endfacet
   facet normal -1.000000e+00 -0.000000e+00 0.000000e+00
      outer loop
         vertex -1.300000e+01 -1.500000e+00 3.800000e+01
         vertex -1.300000e+01 2.500000e+01 3.800000e+01
         vertex -1.300000e+01 1.000000e+01 2.007514e+01
      endloop
   endfacet
   facet normal -0.000000e+00 -1.000000e+00 0.000000e+00
      outer loop
         vertex -1.300000e+01 1.000000e+01 1.827514e+01
         vertex -1.270000e+01 1.000000e+01 1.917514e+01
         vertex -1.300000e+01 1.000000e+01 2.007514e+01
      endloop
   endfacet
   facet normal 0.000000e+00 -1.000000e+00 0.000000e+00
      outer loop
         vertex 1.420000e+01 -1.500000e+00 2.217514e+01
         vertex 1.300000e+01 -1.500000e+00 2.217514e+01
         vertex 1.345000e+01 -1.500000e+00 2.047418e+01
      endloop
   endfacet
   facet normal 0.000000e+00 -1.000000e+00 0.000000e+00
      outer loop
         vertex 1.300000e+01 -1.500000e+00 3.800000e+01
         vertex -1.300000e+01 -1.500000e+00 3.800000e+01
         vertex 1.300000e+01 -1.500000e+00 2.217514e+01
      endloop
   endfacet
   facet normal 0.000000e+00 -1.000000e+00 0.000000e+00
      outer loop
         vertex -1.420000e+01 -1.500000e+00 2.217514e+01
         vertex -1.570000e+01 -1.500000e+00 2.177322e+01
         vertex -1.501981e+01 -1.500000e+00 2.043129e+01
      endloop
   endfacet
   facet normal 0.000000e+00 -1.000000e+00 0.000000e+00
      outer loop
         vertex -1.679808e+01 -1.500000e+00 2.067514e+01
         vertex -1.720000e+01 -1.500000e+00 1.917514e+01
         vertex -1.563545e+01 -1.500000e+00 1.961044e+01
      endloop
   endfacet
   facet normal 0.000000e+00 -1.000000e+00 0.000000e+00
      outer loop
         vertex -1.679808e+01 -1.500000e+00 1.767514e+01
         vertex -1.570000e+01 -1.500000e+00 1.657706e+01
         vertex -1.487795e+01 -1.500000e+00 1.783709e+01
      endloop
   endfacet
   facet normal 0.000000e+00 -1.000000e+00 0.000000e+00
      outer loop
         vertex -1.420000e+01 -1.500000e+00 1.617514e+01
         vertex -1.300000e+01 -1.500000e+00 1.617514e+01
         vertex -1.385926e+01 -1.500000e+00 1.771436e+01
      endloop
   endfacet
   facet normal 0.000000e+00 -1.000000e+00 0.000000e+00
      outer loop
         vertex -1.300000e+01 -1.500000e+00 -3.800000e+01
         vertex 1.300000e+01 -1.500000e+00 -3.800000e+01
         vertex -1.300000e+01 -1.500000e+00 1.617514e+01
      endloop
   endfacet
   facet normal -0.000000e+00 -1.000000e+00 0.000000e+00
      outer loop
         vertex 1.420000e+01 -1.500000e+00 1.617514e+01
         vertex 1.570000e+01 -1.500000e+00 1.657706e+01
         vertex 1.446047e+01 -1.500000e+00 1.769793e+01
      endloop
   endfacet
   facet normal -0.000000e+00 -1.000000e+00 0.000000e+00
      outer loop
         vertex 1.679808e+01 -1.500000e+00 1.767514e+01
         vertex 1.720000e+01 -1.500000e+00 1.917514e+01
         vertex 1.570000e+01 -1.500000e+00 1.917514e+01
      endloop
   endfacet
   facet normal 0.000000e+00 -1.000000e+00 -0.000000e+00
      outer loop
         vertex 1.679808e+01 -1.500000e+00 2.067514e+01
         vertex 1.570000e+01 -1.500000e+00 2.177322e+01
         vertex 1.534907e+01 -1.500000e+00 2.013932e+01
      endloop
   endfacet
   facet normal 0.000000e+00 -1.000000e+00 0.000000e+00
      outer loop
         vertex 1.534907e+01 -1.500000e+00 2.013932e+01
         vertex 1.570000e+01 -1.500000e+00 1.917514e+01
         vertex 1.679808e+01 -1.500000e+00 2.067514e+01
      endloop
   endfacet
   facet normal 0.000000e+00 -1.000000e+00 0.000000e+00
      outer loop
         vertex 1.534907e+01 -1.500000e+00 1.821096e+01
         vertex 1.446047e+01 -1.500000e+00 1.769793e+01
         vertex 1.570000e+01 -1.500000e+00 1.657706e+01
      endloop
   endfacet
   facet normal 0.000000e+00 -1.000000e+00 0.000000e+00
      outer loop
         vertex 1.345000e+01 -1.500000e+00 1.787610e+01
         vertex 1.279046e+01 -1.500000e+00 1.866211e+01
         vertex 1.300000e+01 -1.500000e+00 1.617514e+01
      endloop
   endfacet
   facet normal -0.000000e+00 -1.000000e+00 0.000000e+00
      outer loop
         vertex 1.279046e+01 -1.500000e+00 1.968817e+01
         vertex 1.345000e+01 -1.500000e+00 2.047418e+01
         vertex 1.300000e+01 -1.500000e+00 2.217514e+01
      endloop
   endfacet
   facet normal 0.000000e+00 -1.000000e+00 0.000000e+00
      outer loop
         vertex 1.446047e+01 -1.500000e+00 2.065235e+01
         vertex 1.534907e+01 -1.500000e+00 2.013932e+01
         vertex 1.570000e+01 -1.500000e+00 2.177322e+01
      endloop
   endfacet
   facet normal 0.000000e+00 -1.000000e+00 0.000000e+00
      outer loop
         vertex -1.300000e+01 -1.500000e+00 1.827514e+01
         vertex -1.385926e+01 -1.500000e+00 1.771436e+01
         vertex -1.300000e+01 -1.500000e+00 1.617514e+01
      endloop
   endfacet
   facet normal 0.000000e+00 -1.000000e+00 -0.000000e+00
      outer loop
         vertex -1.487795e+01 -1.500000e+00 1.783709e+01
         vertex -1.557942e+01 -1.500000e+00 1.858591e+01
         vertex -1.679808e+01 -1.500000e+00 1.767514e+01
      endloop
   endfacet
   facet normal -0.000000e+00 -1.000000e+00 0.000000e+00
      outer loop
         vertex -1.563545e+01 -1.500000e+00 1.961044e+01
         vertex -1.501981e+01 -1.500000e+00 2.043129e+01
         vertex -1.679808e+01 -1.500000e+00 2.067514e+01
      endloop
   endfacet
   facet normal 0.000000e+00 -1.000000e+00 0.000000e+00
      outer loop
         vertex -1.402058e+01 -1.500000e+00 2.066437e+01
         vertex -1.310530e+01 -1.500000e+00 2.020063e+01
         vertex -1.300000e+01 -1.500000e+00 2.217514e+01
      endloop
   endfacet
   facet normal 0.000000e+00 -1.000000e+00 0.000000e+00
      outer loop
         vertex 1.420000e+01 -1.500000e+00 2.217514e+01
         vertex 1.345000e+01 -1.500000e+00 2.047418e+01
         vertex 1.446047e+01 -1.500000e+00 2.065235e+01
      endloop
   endfacet
   facet normal 0.000000e+00 -1.000000e+00 -0.000000e+00
      outer loop
         vertex -1.501981e+01 -1.500000e+00 2.043129e+01
         vertex -1.570000e+01 -1.500000e+00 2.177322e+01
         vertex -1.679808e+01 -1.500000e+00 2.067514e+01
      endloop
   endfacet
   facet normal -0.000000e+00 -1.000000e+00 0.000000e+00
      outer loop
         vertex -1.420000e+01 -1.500000e+00 1.617514e+01
         vertex -1.385926e+01 -1.500000e+00 1.771436e+01
         vertex -1.487795e+01 -1.500000e+00 1.783709e+01
      endloop
   endfacet
   facet normal 0.000000e+00 -1.000000e+00 -0.000000e+00
      outer loop
         vertex 1.679808e+01 -1.500000e+00 1.767514e+01
         vertex 1.570000e+01 -1.500000e+00 1.917514e+01
         vertex 1.534907e+01 -1.500000e+00 1.821096e+01
      endloop
   endfacet
   facet normal 0.000000e+00 -1.000000e+00 0.000000e+00
      outer loop
         vertex 1.534907e+01 -1.500000e+00 1.821096e+01
         vertex 1.570000e+01 -1.500000e+00 1.657706e+01
         vertex 1.679808e+01 -1.500000e+00 1.767514e+01
      endloop
   endfacet
   facet normal 0.000000e+00 -1.000000e+00 0.000000e+00
      outer loop
         vertex 1.279046e+01 -1.500000e+00 1.968817e+01
         vertex 1.300000e+01 -1.500000e+00 2.217514e+01
         vertex -1.270224e+01 -1.500000e+00 1.925705e+01
      endloop
   endfacet
   facet normal 0.000000e+00 -1.000000e+00 0.000000e+00
      outer loop
         vertex -1.300000e+01 -1.500000e+00 1.827514e+01
         vertex -1.300000e+01 -1.500000e+00 1.617514e+01
         vertex -1.270224e+01 -1.500000e+00 1.925705e+01
      endloop
   endfacet
   facet normal 0.000000e+00 -1.000000e+00 0.000000e+00
      outer loop
         vertex -1.300000e+01 -1.500000e+00 2.217514e+01
         vertex -1.310530e+01 -1.500000e+00 2.020063e+01
         vertex -1.270224e+01 -1.500000e+00 1.925705e+01
      endloop
   endfacet
   facet normal 0.000000e+00 -1.000000e+00 0.000000e+00
      outer loop
         vertex 1.279046e+01 -1.500000e+00 1.968817e+01
         vertex -1.270224e+01 -1.500000e+00 1.925705e+01
         vertex 1.279046e+01 -1.500000e+00 1.866211e+01
      endloop
   endfacet
   facet normal 0.000000e+00 -1.000000e+00 0.000000e+00
      outer loop
         vertex -1.300000e+01 -1.500000e+00 2.217514e+01
         vertex -1.270224e+01 -1.500000e+00 1.925705e+01
         vertex 1.300000e+01 -1.500000e+00 2.217514e+01
      endloop
   endfacet
   facet normal 0.000000e+00 -1.000000e+00 0.000000e+00
      outer loop
         vertex -1.300000e+01 -1.500000e+00 3.800000e+01
         vertex -1.300000e+01 -1.500000e+00 2.217514e+01
         vertex 1.300000e+01 -1.500000e+00 2.217514e+01
      endloop
   endfacet
   facet normal 0.000000e+00 -1.000000e+00 0.000000e+00
      outer loop
         vertex -1.720000e+01 -1.500000e+00 1.917514e+01
         vertex -1.679808e+01 -1.500000e+00 1.767514e+01
         vertex -1.557942e+01 -1.500000e+00 1.858591e+01
      endloop
   endfacet
   facet normal -0.000000e+00 -1.000000e+00 -0.000000e+00
      outer loop
         vertex 1.300000e+01 -1.500000e+00 -3.800000e+01
         vertex 1.300000e+01 -1.500000e+00 1.617514e+01
         vertex -1.300000e+01 -1.500000e+00 1.617514e+01
      endloop
   endfacet
   facet normal 0.000000e+00 -1.000000e+00 -0.000000e+00
      outer loop
         vertex 1.720000e+01 -1.500000e+00 1.917514e+01
         vertex 1.679808e+01 -1.500000e+00 2.067514e+01
         vertex 1.570000e+01 -1.500000e+00 1.917514e+01
      endloop
   endfacet
   facet normal 0.000000e+00 -1.000000e+00 0.000000e+00
      outer loop
         vertex 1.446047e+01 -1.500000e+00 1.769793e+01
         vertex 1.345000e+01 -1.500000e+00 1.787610e+01
         vertex 1.420000e+01 -1.500000e+00 1.617514e+01
      endloop
   endfacet
   facet normal -0.000000e+00 -1.000000e+00 0.000000e+00
      outer loop
         vertex -1.501981e+01 -1.500000e+00 2.043129e+01
         vertex -1.402058e+01 -1.500000e+00 2.066437e+01
         vertex -1.420000e+01 -1.500000e+00 2.217514e+01
      endloop
   endfacet
   facet normal 0.000000e+00 -1.000000e+00 0.000000e+00
      outer loop
         vertex -1.487795e+01 -1.500000e+00 1.783709e+01
         vertex -1.570000e+01 -1.500000e+00 1.657706e+01
         vertex -1.420000e+01 -1.500000e+00 1.617514e+01
      endloop
   endfacet
   facet normal -0.000000e+00 -1.000000e+00 0.000000e+00
      outer loop
         vertex 1.446047e+01 -1.500000e+00 2.065235e+01
         vertex 1.570000e+01 -1.500000e+00 2.177322e+01
         vertex 1.420000e+01 -1.500000e+00 2.217514e+01
      endloop
   endfacet
   facet normal 0.000000e+00 -1.000000e+00 -0.000000e+00
      outer loop
         vertex 1.279046e+01 -1.500000e+00 1.866211e+01
         vertex -1.270224e+01 -1.500000e+00 1.925705e+01
         vertex -1.300000e+01 -1.500000e+00 1.617514e+01
      endloop
   endfacet
   facet normal 0.000000e+00 -1.000000e+00 -0.000000e+00
      outer loop
         vertex 1.420000e+01 -1.500000e+00 1.617514e+01
         vertex 1.345000e+01 -1.500000e+00 1.787610e+01
         vertex 1.300000e+01 -1.500000e+00 1.617514e+01
      endloop
   endfacet
   facet normal 0.000000e+00 -1.000000e+00 0.000000e+00
      outer loop
         vertex -1.300000e+01 -1.500000e+00 2.217514e+01
         vertex -1.420000e+01 -1.500000e+00 2.217514e+01
         vertex -1.402058e+01 -1.500000e+00 2.066437e+01
      endloop
   endfacet
   facet normal 0.000000e+00 -1.000000e+00 0.000000e+00
      outer loop
         vertex -1.563545e+01 -1.500000e+00 1.961044e+01
         vertex -1.720000e+01 -1.500000e+00 1.917514e+01
         vertex -1.557942e+01 -1.500000e+00 1.858591e+01
      endloop
   endfacet
   facet normal 0.000000e+00 -1.000000e+00 0.000000e+00
      outer loop
         vertex 1.279046e+01 -1.500000e+00 1.866211e+01
         vertex -1.300000e+01 -1.500000e+00 1.617514e+01
         vertex 1.300000e+01 -1.500000e+00 1.617514e+01
      endloop
   endfacet
   facet normal -0.000000e+00 1.000000e+00 0.000000e+00
      outer loop
         vertex -1.300000e+01 1.500000e+00 1.617514e+01
         vertex -1.388210e+01 1.500000e+00 1.770922e+01
         vertex -1.300000e+01 1.500000e+00 1.827514e+01
      endloop
   endfacet
   facet normal 0.000000e+00 1.000000e+00 0.000000e+00
      outer loop
         vertex -1.679808e+01 1.500000e+00 1.767514e+01
         vertex -1.560549e+01 1.500000e+00 1.865113e+01
         vertex -1.491938e+01 1.500000e+00 1.785890e+01
      endloop
   endfacet
   facet normal 0.000000e+00 1.000000e+00 0.000000e+00
      outer loop
         vertex -1.679808e+01 1.500000e+00 2.067514e+01
         vertex -1.491938e+01 1.500000e+00 2.049138e+01
         vertex -1.560549e+01 1.500000e+00 1.969916e+01
      endloop
   endfacet
   facet normal 0.000000e+00 1.000000e+00 -0.000000e+00
      outer loop
         vertex -1.300000e+01 1.500000e+00 2.217514e+01
         vertex -1.300000e+01 1.500000e+00 2.007514e+01
         vertex -1.388210e+01 1.500000e+00 2.064107e+01
      endloop
   endfacet
   facet normal -0.000000e+00 1.000000e+00 0.000000e+00
      outer loop
         vertex -1.491938e+01 1.500000e+00 2.049138e+01
         vertex -1.570000e+01 1.500000e+00 2.177322e+01
         vertex -1.420000e+01 1.500000e+00 2.217514e+01
      endloop
   endfacet
   facet normal 0.000000e+00 1.000000e+00 0.000000e+00
      outer loop
         vertex -1.560549e+01 1.500000e+00 1.969916e+01
         vertex -1.720000e+01 1.500000e+00 1.917514e+01
         vertex -1.679808e+01 1.500000e+00 2.067514e+01
      endloop
   endfacet
   facet normal 0.000000e+00 1.000000e+00 -0.000000e+00
      outer loop
         vertex -1.491938e+01 1.500000e+00 1.785890e+01
         vertex -1.570000e+01 1.500000e+00 1.657706e+01
         vertex -1.679808e+01 1.500000e+00 1.767514e+01
      endloop
   endfacet
   facet normal 0.000000e+00 1.000000e+00 0.000000e+00
      outer loop
         vertex -1.388210e+01 1.500000e+00 1.770922e+01
         vertex -1.300000e+01 1.500000e+00 1.617514e+01
         vertex -1.420000e+01 1.500000e+00 1.617514e+01
      endloop
   endfacet
   facet normal 0.000000e+00 1.000000e+00 0.000000e+00
      outer loop
         vertex -1.570000e+01 1.500000e+00 2.177322e+01
         vertex -1.491938e+01 1.500000e+00 2.049138e+01
         vertex -1.679808e+01 1.500000e+00 2.067514e+01
      endloop
   endfacet
   facet normal -0.000000e+00 1.000000e+00 0.000000e+00
      outer loop
         vertex -1.560549e+01 1.500000e+00 1.865113e+01
         vertex -1.720000e+01 1.500000e+00 1.917514e+01
         vertex -1.560549e+01 1.500000e+00 1.969916e+01
      endloop
   endfacet
   facet normal 0.000000e+00 1.000000e+00 0.000000e+00
      outer loop
         vertex -1.679808e+01 1.500000e+00 1.767514e+01
         vertex -1.720000e+01 1.500000e+00 1.917514e+01
         vertex -1.560549e+01 1.500000e+00 1.865113e+01
      endloop
   endfacet
   facet normal 0.000000e+00 1.000000e+00 0.000000e+00
      outer loop
         vertex -1.420000e+01 1.500000e+00 1.617514e+01
         vertex -1.491938e+01 1.500000e+00 1.785890e+01
         vertex -1.388210e+01 1.500000e+00 1.770922e+01
      endloop
   endfacet
   facet normal -0.000000e+00 1.000000e+00 0.000000e+00
      outer loop
         vertex -1.388210e+01 1.500000e+00 2.064107e+01
         vertex -1.420000e+01 1.500000e+00 2.217514e+01
         vertex -1.300000e+01 1.500000e+00 2.217514e+01
      endloop
   endfacet
   facet normal 0.000000e+00 1.000000e+00 0.000000e+00
      outer loop
         vertex -1.388210e+01 1.500000e+00 2.064107e+01
         vertex -1.491938e+01 1.500000e+00 2.049138e+01
         vertex -1.420000e+01 1.500000e+00 2.217514e+01
      endloop
   endfacet
   facet normal 0.000000e+00 1.000000e+00 0.000000e+00
      outer loop
         vertex -1.491938e+01 1.500000e+00 1.785890e+01
         vertex -1.420000e+01 1.500000e+00 1.617514e+01
         vertex -1.570000e+01 1.500000e+00 1.657706e+01
      endloop
   endfacet
   facet normal 0.000000e+00 0.000000e+00 1.000000e+00
      outer loop
         vertex -1.300000e+01 -1.500000e+00 2.217514e+01
         vertex -1.300000e+01 1.500000e+00 2.217514e+01
         vertex -1.420000e+01 1.500000e+00 2.217514e+01
      endloop
   endfacet
   facet normal 0.000000e+00 0.000000e+00 1.000000e+00
      outer loop
         vertex -1.420000e+01 -1.500000e+00 2.217514e+01
         vertex -1.300000e+01 -1.500000e+00 2.217514e+01
         vertex -1.420000e+01 1.500000e+00 2.217514e+01
      endloop
   endfacet
   facet normal 0.000000e+00 0.000000e+00 1.000000e+00
      outer loop
         vertex -1.300000e+01 -1.500000e+00 3.800000e+01
         vertex 1.300000e+01 -1.500000e+00 3.800000e+01
         vertex -1.300000e+01 2.500000e+01 3.800000e+01
      endloop
   endfacet
   facet normal -0.000000e+00 0.000000e+00 1.000000e+00
      outer loop
         vertex 1.300000e+01 2.500000e+01 3.800000e+01
         vertex -1.300000e+01 2.500000e+01 3.800000e+01
         vertex 1.300000e+01 -1.500000e+00 3.800000e+01
      endloop
   endfacet
   facet normal 0.000000e+00 1.000000e+00 0.000000e+00
      outer loop
         vertex -1.300000e+01 2.500000e+01 3.800000e+01
         vertex 1.300000e+01 2.500000e+01 3.800000e+01
         vertex 1.100000e+01 2.500000e+01 3.600000e+01
      endloop
   endfacet
   facet normal 0.000000e+00 1.000000e+00 0.000000e+00
      outer loop
         vertex 1.300000e+01 2.500000e+01 -3.800000e+01
         vertex -1.300000e+01 2.500000e+01 -3.800000e+01
         vertex 1.100000e+01 2.500000e+01 -3.600000e+01
      endloop
   endfacet
   facet normal -0.000000e+00 1.000000e+00 0.000000e+00
      outer loop
         vertex 1.100000e+01 2.500000e+01 -3.600000e+01
         vertex 1.100000e+01 2.500000e+01 3.600000e+01
         vertex 1.300000e+01 2.500000e+01 3.800000e+01
      endloop
   endfacet
   facet normal 0.000000e+00 1.000000e+00 -0.000000e+00
      outer loop
         vertex -1.100000e+01 2.500000e+01 3.600000e+01
         vertex -1.100000e+01 2.500000e+01 -3.600000e+01
         vertex -1.300000e+01 2.500000e+01 3.800000e+01
      endloop
   endfacet
   facet normal 0.000000e+00 1.000000e+00 0.000000e+00
      outer loop
         vertex -1.300000e+01 2.500000e+01 3.800000e+01
         vertex 1.100000e+01 2.500000e+01 3.600000e+01
         vertex -1.100000e+01 2.500000e+01 3.600000e+01
      endloop
   endfacet
   facet normal 0.000000e+00 1.000000e+00 0.000000e+00
      outer loop
         vertex 1.100000e+01 2.500000e+01 -3.600000e+01
         vertex 1.300000e+01 2.500000e+01 3.800000e+01
         vertex 1.300000e+01 2.500000e+01 -3.800000e+01
      endloop
   endfacet
   facet normal 0.000000e+00 1.000000e+00 0.000000e+00
      outer loop
         vertex -1.300000e+01 2.500000e+01 -3.800000e+01
         vertex -1.300000e+01 2.500000e+01 3.800000e+01
         vertex -1.100000e+01 2.500000e+01 -3.600000e+01
      endloop
   endfacet
   facet normal 0.000000e+00 1.000000e+00 0.000000e+00
      outer loop
         vertex 1.100000e+01 2.500000e+01 -3.600000e+01
         vertex -1.300000e+01 2.500000e+01 -3.800000e+01
         vertex -1.100000e+01 2.500000e+01 -3.600000e+01
      endloop
   endfacet
   facet normal 0.000000e+00 0.000000e+00 -1.000000e+00
      outer loop
         vertex 1.300000e+01 -1.500000e+00 -3.800000e+01
         vertex -1.300000e+01 -1.500000e+00 -3.800000e+01
         vertex 1.300000e+01 2.500000e+01 -3.800000e+01
      endloop
   endfacet
   facet normal -0.000000e+00 0.000000e+00 -1.000000e+00
      outer loop
         vertex -1.300000e+01 2.500000e+01 -3.800000e+01
         vertex 1.300000e+01 2.500000e+01 -3.800000e+01
         vertex -1.300000e+01 -1.500000e+00 -3.800000e+01
      endloop
   endfacet
   facet normal 0.000000e+00 0.000000e+00 -1.000000e+00
      outer loop
         vertex -1.420000e+01 -1.500000e+00 1.617514e+01
         vertex -1.420000e+01 1.500000e+00 1.617514e+01
         vertex -1.300000e+01 1.500000e+00 1.617514e+01
      endloop
   endfacet
   facet normal 0.000000e+00 0.000000e+00 -1.000000e+00
      outer loop
         vertex -1.300000e+01 -1.500000e+00 1.617514e+01
         vertex -1.420000e+01 -1.500000e+00 1.617514e+01
         vertex -1.300000e+01 1.500000e+00 1.617514e+01
      endloop
   endfacet
   facet normal 1.000000e+00 0.000000e+00 0.000000e+00
      outer loop
         vertex 1.300000e+01 1.500000e+00 2.217514e+01
         vertex 1.300000e+01 1.500000e+00 2.007514e+01
         vertex 1.300000e+01 1.000000e+01 2.007514e+01
      endloop
   endfacet
   facet normal 1.000000e+00 -0.000000e+00 0.000000e+00
      outer loop
         vertex 1.300000e+01 1.000000e+01 1.827514e+01
         vertex 1.300000e+01 1.500000e+00 1.827514e+01
         vertex 1.300000e+01 1.500000e+00 1.617514e+01
      endloop
   endfacet
   facet normal 1.000000e+00 0.000000e+00 0.000000e+00
      outer loop
         vertex 1.300000e+01 -1.500000e+00 1.617514e+01
         vertex 1.300000e+01 -1.500000e+00 -3.800000e+01
         vertex 1.300000e+01 1.500000e+00 1.617514e+01
      endloop
   endfacet
   facet normal 1.000000e+00 -0.000000e+00 0.000000e+00
      outer loop
         vertex 1.300000e+01 2.500000e+01 3.800000e+01
         vertex 1.300000e+01 -1.500000e+00 3.800000e+01
         vertex 1.300000e+01 1.000000e+01 2.007514e+01
      endloop
   endfacet
   facet normal 1.000000e+00 0.000000e+00 0.000000e+00
      outer loop
         vertex 1.300000e+01 -1.500000e+00 2.217514e+01
         vertex 1.300000e+01 1.500000e+00 2.217514e+01
         vertex 1.300000e+01 -1.500000e+00 3.800000e+01
      endloop
   endfacet
   facet normal 1.000000e+00 0.000000e+00 0.000000e+00
      outer loop
         vertex 1.300000e+01 1.500000e+00 1.617514e+01
         vertex 1.300000e+01 -1.500000e+00 -3.800000e+01
         vertex 1.300000e+01 2.500000e+01 -3.800000e+01
      endloop
   endfacet
   facet normal 1.000000e+00 -0.000000e+00 -0.000000e+00
      outer loop
         vertex 1.300000e+01 -1.500000e+00 3.800000e+01
         vertex 1.300000e+01 1.500000e+00 2.217514e+01
         vertex 1.300000e+01 1.000000e+01 2.007514e+01
      endloop
   endfacet
   facet normal 1.000000e+00 0.000000e+00 0.000000e+00
      outer loop
         vertex 1.300000e+01 1.000000e+01 2.007514e+01
         vertex 1.300000e+01 1.000000e+01 1.827514e+01
         vertex 1.300000e+01 2.500000e+01 3.800000e+01
      endloop
   endfacet
   facet normal 1.000000e+00 -0.000000e+00 0.000000e+00
      outer loop
         vertex 1.300000e+01 1.000000e+01 1.827514e+01
         vertex 1.300000e+01 1.500000e+00 1.617514e+01
         vertex 1.300000e+01 2.500000e+01 -3.800000e+01
      endloop
   endfacet
   facet normal 1.000000e+00 0.000000e+00 -0.000000e+00
      outer loop
         vertex 1.300000e+01 1.000000e+01 1.827514e+01
         vertex 1.300000e+01 2.500000e+01 -3.800000e+01
         vertex 1.300000e+01 2.500000e+01 3.800000e+01
      endloop
   endfacet
   facet normal -2.588193e-01 0.000000e+00 9.659258e-01
      outer loop
         vertex -1.420000e+01 -1.500000e+00 2.217514e+01
         vertex -1.420000e+01 1.500000e+00 2.217514e+01
         vertex -1.570000e+01 1.500000e+00 2.177322e+01
      endloop
   endfacet
   facet normal -9.659258e-01 0.000000e+00 2.588193e-01
      outer loop
         vertex -1.679808e+01 1.500000e+00 2.067514e+01
         vertex -1.720000e+01 1.500000e+00 1.917514e+01
         vertex -1.720000e+01 -1.500000e+00 1.917514e+01
      endloop
   endfacet
   facet normal -7.071071e-01 -0.000000e+00 -7.071065e-01
      outer loop
         vertex -1.679808e+01 1.500000e+00 1.767514e+01
         vertex -1.570000e+01 1.500000e+00 1.657706e+01
         vertex -1.570000e+01 -1.500000e+00 1.657706e+01
      endloop
   endfacet
   facet normal -2.588181e-01 0.000000e+00 -9.659261e-01
      outer loop
         vertex -1.420000e+01 1.500000e+00 1.617514e+01
         vertex -1.420000e+01 -1.500000e+00 1.617514e+01
         vertex -1.570000e+01 1.500000e+00 1.657706e+01
      endloop
   endfacet
   facet normal -9.659258e-01 0.000000e+00 -2.588193e-01
      outer loop
         vertex -1.679808e+01 -1.500000e+00 1.767514e+01
         vertex -1.720000e+01 -1.500000e+00 1.917514e+01
         vertex -1.720000e+01 1.500000e+00 1.917514e+01
      endloop
   endfacet
   facet normal -7.071065e-01 0.000000e+00 7.071071e-01
      outer loop
         vertex -1.679808e+01 -1.500000e+00 2.067514e+01
         vertex -1.570000e+01 -1.500000e+00 2.177322e+01
         vertex -1.570000e+01 1.500000e+00 2.177322e+01
      endloop
   endfacet
   facet normal -2.588193e-01 0.000000e+00 9.659258e-01
      outer loop
         vertex -1.420000e+01 -1.500000e+00 2.217514e+01
         vertex -1.570000e+01 1.500000e+00 2.177322e+01
         vertex -1.570000e+01 -1.500000e+00 2.177322e+01
      endloop
   endfacet
   facet normal -2.588181e-01 -0.000000e+00 -9.659261e-01
      outer loop
         vertex -1.570000e+01 -1.500000e+00 1.657706e+01
         vertex -1.570000e+01 1.500000e+00 1.657706e+01
         vertex -1.420000e+01 -1.500000e+00 1.617514e+01
      endloop
   endfacet
   facet normal -7.071065e-01 0.000000e+00 7.071071e-01
      outer loop
         vertex -1.570000e+01 1.500000e+00 2.177322e+01
         vertex -1.679808e+01 1.500000e+00 2.067514e+01
         vertex -1.679808e+01 -1.500000e+00 2.067514e+01
      endloop
   endfacet
   facet normal -7.071071e-01 0.000000e+00 -7.071065e-01
      outer loop
         vertex -1.570000e+01 -1.500000e+00 1.657706e+01
         vertex -1.679808e+01 -1.500000e+00 1.767514e+01
         vertex -1.679808e+01 1.500000e+00 1.767514e+01
      endloop
   endfacet
   facet normal -9.659258e-01 0.000000e+00 2.588193e-01
      outer loop
         vertex -1.679808e+01 1.500000e+00 2.067514e+01
         vertex -1.720000e+01 -1.500000e+00 1.917514e+01
         vertex -1.679808e+01 -1.500000e+00 2.067514e+01
      endloop
   endfacet
   facet normal -9.659258e-01 -0.000000e+00 -2.588193e-01
      outer loop
         vertex -1.720000e+01 1.500000e+00 1.917514e+01
         vertex -1.679808e+01 1.500000e+00 1.767514e+01
         vertex -1.679808e+01 -1.500000e+00 1.767514e+01
      endloop
   endfacet
   facet normal 0.000000e+00 0.000000e+00 -1.000000e+00
      outer loop
         vertex 1.300000e+01 -1.500000e+00 1.617514e+01
         vertex 1.300000e+01 1.500000e+00 1.617514e+01
         vertex 1.420000e+01 1.500000e+00 1.617514e+01
      endloop
   endfacet
   facet normal 0.000000e+00 0.000000e+00 -1.000000e+00
      outer loop
         vertex 1.420000e+01 -1.500000e+00 1.617514e+01
         vertex 1.300000e+01 -1.500000e+00 1.617514e+01
         vertex 1.420000e+01 1.500000e+00 1.617514e+01
      endloop
   endfacet
   facet normal 2.588181e-01 0.000000e+00 -9.659261e-01
      outer loop
         vertex 1.420000e+01 -1.500000e+00 1.617514e+01
         vertex 1.420000e+01 1.500000e+00 1.617514e+01
         vertex 1.570000e+01 1.500000e+00 1.657706e+01
      endloop
   endfacet
   facet normal 9.659258e-01 0.000000e+00 -2.588193e-01
      outer loop
         vertex 1.679808e+01 1.500000e+00 1.767514e+01
         vertex 1.720000e+01 1.500000e+00 1.917514e+01
         vertex 1.720000e+01 -1.500000e+00 1.917514e+01
      endloop
   endfacet
   facet normal 7.071065e-01 0.000000e+00 7.071071e-01
      outer loop
         vertex 1.679808e+01 1.500000e+00 2.067514e+01
         vertex 1.570000e+01 1.500000e+00 2.177322e+01
         vertex 1.570000e+01 -1.500000e+00 2.177322e+01
      endloop
   endfacet
   facet normal 2.588193e-01 -0.000000e+00 9.659258e-01
      outer loop
         vertex 1.420000e+01 1.500000e+00 2.217514e+01
         vertex 1.420000e+01 -1.500000e+00 2.217514e+01
         vertex 1.570000e+01 1.500000e+00 2.177322e+01
      endloop
   endfacet
   facet normal 9.659258e-01 -0.000000e+00 2.588193e-01
      outer loop
         vertex 1.679808e+01 -1.500000e+00 2.067514e+01
         vertex 1.720000e+01 -1.500000e+00 1.917514e+01
         vertex 1.720000e+01 1.500000e+00 1.917514e+01
      endloop
   endfacet
   facet normal 7.071071e-01 0.000000e+00 -7.071065e-01
      outer loop
         vertex 1.679808e+01 -1.500000e+00 1.767514e+01
         vertex 1.570000e+01 -1.500000e+00 1.657706e+01
         vertex 1.570000e+01 1.500000e+00 1.657706e+01
      endloop
   endfacet
   facet normal 2.588181e-01 0.000000e+00 -9.659261e-01
      outer loop
         vertex 1.420000e+01 -1.500000e+00 1.617514e+01
         vertex 1.570000e+01 1.500000e+00 1.657706e+01
         vertex 1.570000e+01 -1.500000e+00 1.657706e+01
      endloop
   endfacet
   facet normal 2.588193e-01 0.000000e+00 9.659258e-01
      outer loop
         vertex 1.570000e+01 -1.500000e+00 2.177322e+01
         vertex 1.570000e+01 1.500000e+00 2.177322e+01
         vertex 1.420000e+01 -1.500000e+00 2.217514e+01
      endloop
   endfacet
   facet normal 7.071071e-01 0.000000e+00 -7.071065e-01
      outer loop
         vertex 1.570000e+01 1.500000e+00 1.657706e+01
         vertex 1.679808e+01 1.500000e+00 1.767514e+01
         vertex 1.679808e+01 -1.500000e+00 1.767514e+01
      endloop
   endfacet
   facet normal 7.071065e-01 -0.000000e+00 7.071071e-01
      outer loop
         vertex 1.570000e+01 -1.500000e+00 2.177322e+01
         vertex 1.679808e+01 -1.500000e+00 2.067514e+01
         vertex 1.679808e+01 1.500000e+00 2.067514e+01
      endloop
   endfacet
   facet normal 9.659258e-01 0.000000e+00 -2.588193e-01
      outer loop
         vertex 1.679808e+01 1.500000e+00 1.767514e+01
         vertex 1.720000e+01 -1.500000e+00 1.917514e+01
         vertex 1.679808e+01 -1.500000e+00 1.767514e+01
      endloop
   endfacet
   facet normal 9.659258e-01 0.000000e+00 2.588193e-01
      outer loop
         vertex 1.720000e+01 1.500000e+00 1.917514e+01
         vertex 1.679808e+01 1.500000e+00 2.067514e+01
         vertex 1.679808e+01 -1.500000e+00 2.067514e+01
      endloop
   endfacet
   facet normal 0.000000e+00 0.000000e+00 1.000000e+00
      outer loop
         vertex 1.420000e+01 -1.500000e+00 2.217514e+01
         vertex 1.420000e+01 1.500000e+00 2.217514e+01
         vertex 1.300000e+01 1.500000e+00 2.217514e+01
      endloop
   endfacet
   facet normal 0.000000e+00 0.000000e+00 1.000000e+00
      outer loop
         vertex 1.300000e+01 -1.500000e+00 2.217514e+01
         vertex 1.420000e+01 -1.500000e+00 2.217514e+01
         vertex 1.300000e+01 1.500000e+00 2.217514e+01
      endloop
   endfacet
   facet normal 8.793591e-01 0.000000e+00 -4.761592e-01
      outer loop
         vertex 1.279046e+01 -1.500000e+00 1.968817e+01
         vertex 1.300000e+01 1.000000e+01 2.007514e+01
         vertex 1.300000e+01 1.500000e+00 2.007514e+01
      endloop
   endfacet
   facet normal 9.486625e-01 -6.644632e-03 3.162205e-01
      outer loop
         vertex 1.279046e+01 -1.500000e+00 1.866211e+01
         vertex 1.300000e+01 1.000000e+01 1.827514e+01
         vertex 1.270000e+01 1.000000e+01 1.917514e+01
      endloop
   endfacet
   facet normal 5.768444e-01 -2.208517e-02 8.165555e-01
      outer loop
         vertex 1.345000e+01 -1.500000e+00 1.787610e+01
         vertex 1.375275e+01 1.500000e+00 1.774337e+01
         vertex 1.300000e+01 1.500000e+00 1.827514e+01
      endloop
   endfacet
   facet normal -5.923518e-01 -1.000762e-02 8.056173e-01
      outer loop
         vertex 1.534907e+01 -1.500000e+00 1.821096e+01
         vertex 1.541686e+01 1.500000e+00 1.829808e+01
         vertex 1.467434e+01 1.500000e+00 1.775212e+01
      endloop
   endfacet
   facet normal -9.516414e-01 0.000000e+00 3.072111e-01
      outer loop
         vertex 1.541686e+01 1.500000e+00 1.829808e+01
         vertex 1.570000e+01 -1.500000e+00 1.917514e+01
         vertex 1.570000e+01 1.500000e+00 1.917514e+01
      endloop
   endfacet
   facet normal 1.735907e-01 2.603906e-02 9.844736e-01
      outer loop
         vertex 1.375275e+01 1.500000e+00 1.774337e+01
         vertex 1.345000e+01 -1.500000e+00 1.787610e+01
         vertex 1.446047e+01 -1.500000e+00 1.769793e+01
      endloop
   endfacet
   facet normal 9.999691e-01 7.865994e-03 0.000000e+00
      outer loop
         vertex 1.270000e+01 1.000000e+01 1.917514e+01
         vertex 1.279046e+01 -1.500000e+00 1.968817e+01
         vertex 1.279046e+01 -1.500000e+00 1.866211e+01
      endloop
   endfacet
   facet normal 1.735889e-01 2.603926e-02 -9.844739e-01
      outer loop
         vertex 1.375275e+01 1.500000e+00 2.060691e+01
         vertex 1.446047e+01 -1.500000e+00 2.065235e+01
         vertex 1.345000e+01 -1.500000e+00 2.047418e+01
      endloop
   endfacet
   facet normal -9.396325e-01 1.130367e-02 -3.419985e-01
      outer loop
         vertex 1.541686e+01 1.500000e+00 2.005221e+01
         vertex 1.570000e+01 -1.500000e+00 1.917514e+01
         vertex 1.534907e+01 -1.500000e+00 2.013932e+01
      endloop
   endfacet
   facet normal -9.516414e-01 0.000000e+00 -3.072111e-01
      outer loop
         vertex 1.570000e+01 -1.500000e+00 1.917514e+01
         vertex 1.541686e+01 1.500000e+00 2.005221e+01
         vertex 1.570000e+01 1.500000e+00 1.917514e+01
      endloop
   endfacet
   facet normal 5.768457e-01 -2.208535e-02 -8.165545e-01
      outer loop
         vertex 1.345000e+01 -1.500000e+00 2.047418e+01
         vertex 1.300000e+01 1.500000e+00 2.007514e+01
         vertex 1.375275e+01 1.500000e+00 2.060691e+01
      endloop
   endfacet
   facet normal 9.486623e-01 -6.644608e-03 -3.162211e-01
      outer loop
         vertex 1.270000e+01 1.000000e+01 1.917514e+01
         vertex 1.300000e+01 1.000000e+01 2.007514e+01
         vertex 1.279046e+01 -1.500000e+00 1.968817e+01
      endloop
   endfacet
   facet normal -4.999005e-01 1.999823e-02 8.658519e-01
      outer loop
         vertex 1.446047e+01 -1.500000e+00 1.769793e+01
         vertex 1.534907e+01 -1.500000e+00 1.821096e+01
         vertex 1.467434e+01 1.500000e+00 1.775212e+01
      endloop
   endfacet
   facet normal -9.487356e-03 -1.738270e-02 9.998039e-01
      outer loop
         vertex 1.467434e+01 1.500000e+00 1.775212e+01
         vertex 1.375275e+01 1.500000e+00 1.774337e+01
         vertex 1.446047e+01 -1.500000e+00 1.769793e+01
      endloop
   endfacet
   facet normal 7.657141e-01 2.939516e-02 -6.425090e-01
      outer loop
         vertex 1.279046e+01 -1.500000e+00 1.968817e+01
         vertex 1.300000e+01 1.500000e+00 2.007514e+01
         vertex 1.345000e+01 -1.500000e+00 2.047418e+01
      endloop
   endfacet
   facet normal 8.793591e-01 -0.000000e+00 4.761592e-01
      outer loop
         vertex 1.279046e+01 -1.500000e+00 1.866211e+01
         vertex 1.300000e+01 1.500000e+00 1.827514e+01
         vertex 1.300000e+01 1.000000e+01 1.827514e+01
      endloop
   endfacet
   facet normal 7.657133e-01 2.939534e-02 6.425099e-01
      outer loop
         vertex 1.300000e+01 1.500000e+00 1.827514e+01
         vertex 1.279046e+01 -1.500000e+00 1.866211e+01
         vertex 1.345000e+01 -1.500000e+00 1.787610e+01
      endloop
   endfacet
   facet normal -5.923518e-01 -1.000710e-02 -8.056173e-01
      outer loop
         vertex 1.534907e+01 -1.500000e+00 2.013932e+01
         vertex 1.467434e+01 1.500000e+00 2.059817e+01
         vertex 1.541686e+01 1.500000e+00 2.005221e+01
      endloop
   endfacet
   facet normal -9.396327e-01 1.130348e-02 3.419979e-01
      outer loop
         vertex 1.570000e+01 -1.500000e+00 1.917514e+01
         vertex 1.541686e+01 1.500000e+00 1.829808e+01
         vertex 1.534907e+01 -1.500000e+00 1.821096e+01
      endloop
   endfacet
   facet normal -4.999005e-01 1.999878e-02 -8.658519e-01
      outer loop
         vertex 1.467434e+01 1.500000e+00 2.059817e+01
         vertex 1.534907e+01 -1.500000e+00 2.013932e+01
         vertex 1.446047e+01 -1.500000e+00 2.065235e+01
      endloop
   endfacet
   facet normal -9.487357e-03 -1.738206e-02 -9.998039e-01
      outer loop
         vertex 1.467434e+01 1.500000e+00 2.059817e+01
         vertex 1.446047e+01 -1.500000e+00 2.065235e+01
         vertex 1.375275e+01 1.500000e+00 2.060691e+01
      endloop
   endfacet
   facet normal 0.000000e+00 0.000000e+00 -1.000000e+00
      outer loop
         vertex 1.100000e+01 2.500000e+01 3.600000e+01
         vertex 1.100000e+01 1.500000e+00 3.600000e+01
         vertex -1.100000e+01 1.500000e+00 3.600000e+01
      endloop
   endfacet
   facet normal -0.000000e+00 0.000000e+00 -1.000000e+00
      outer loop
         vertex -1.100000e+01 2.500000e+01 3.600000e+01
         vertex 1.100000e+01 2.500000e+01 3.600000e+01
         vertex -1.100000e+01 1.500000e+00 3.600000e+01
      endloop
   endfacet
   facet normal 1.000000e+00 -0.000000e+00 0.000000e+00
      outer loop
         vertex -1.100000e+01 2.500000e+01 3.600000e+01
         vertex -1.100000e+01 1.500000e+00 3.600000e+01
         vertex -1.100000e+01 1.500000e+00 -3.600000e+01
      endloop
   endfacet
   facet normal 1.000000e+00 0.000000e+00 0.000000e+00
      outer loop
         vertex -1.100000e+01 2.500000e+01 -3.600000e+01
         vertex -1.100000e+01 2.500000e+01 3.600000e+01
         vertex -1.100000e+01 1.500000e+00 -3.600000e+01
      endloop
   endfacet
   facet normal 0.000000e+00 0.000000e+00 1.000000e+00
      outer loop
         vertex -1.100000e+01 2.500000e+01 -3.600000e+01
         vertex -1.100000e+01 1.500000e+00 -3.600000e+01
         vertex 1.100000e+01 1.500000e+00 -3.600000e+01
      endloop
   endfacet
   facet normal -0.000000e+00 0.000000e+00 1.000000e+00
      outer loop
         vertex 1.100000e+01 2.500000e+01 -3.600000e+01
         vertex -1.100000e+01 2.500000e+01 -3.600000e+01
         vertex 1.100000e+01 1.500000e+00 -3.600000e+01
      endloop
   endfacet
   facet normal -1.000000e+00 0.000000e+00 0.000000e+00
      outer loop
         vertex 1.100000e+01 2.500000e+01 -3.600000e+01
         vertex 1.100000e+01 1.500000e+00 -3.600000e+01
         vertex 1.100000e+01 1.500000e+00 3.600000e+01
      endloop
   endfacet
   facet normal -1.000000e+00 0.000000e+00 0.000000e+00
      outer loop
         vertex 1.100000e+01 2.500000e+01 3.600000e+01
         vertex 1.100000e+01 2.500000e+01 -3.600000e+01
         vertex 1.100000e+01 1.500000e+00 3.600000e+01
      endloop
   endfacet
   facet normal 0.000000e+00 -1.000000e+00 0.000000e+00
      outer loop
         vertex 1.300000e+01 1.000000e+01 2.007514e+01
         vertex 1.270000e+01 1.000000e+01 1.917514e+01
         vertex 1.300000e+01 1.000000e+01 1.827514e+01
      endloop
   endfacet
   facet normal 0.000000e+00 1.000000e+00 0.000000e+00
      outer loop
         vertex 1.300000e+01 1.500000e+00 2.217514e+01
         vertex 1.375275e+01 1.500000e+00 2.060691e+01
         vertex 1.300000e+01 1.500000e+00 2.007514e+01
      endloop
   endfacet
   facet normal 0.000000e+00 1.000000e+00 -0.000000e+00
      outer loop
         vertex 1.570000e+01 1.500000e+00 2.177322e+01
         vertex 1.541686e+01 1.500000e+00 2.005221e+01
         vertex 1.467434e+01 1.500000e+00 2.059817e+01
      endloop
   endfacet
   facet normal -0.000000e+00 1.000000e+00 0.000000e+00
      outer loop
         vertex 1.679808e+01 1.500000e+00 1.767514e+01
         vertex 1.541686e+01 1.500000e+00 1.829808e+01
         vertex 1.570000e+01 1.500000e+00 1.917514e+01
      endloop
   endfacet
   facet normal -0.000000e+00 1.000000e+00 0.000000e+00
      outer loop
         vertex 1.420000e+01 1.500000e+00 1.617514e+01
         vertex 1.375275e+01 1.500000e+00 1.774337e+01
         vertex 1.467434e+01 1.500000e+00 1.775212e+01
      endloop
   endfacet
   facet normal 0.000000e+00 1.000000e+00 0.000000e+00
      outer loop
         vertex 1.375275e+01 1.500000e+00 1.774337e+01
         vertex 1.300000e+01 1.500000e+00 1.617514e+01
         vertex 1.300000e+01 1.500000e+00 1.827514e+01
      endloop
   endfacet
   facet normal 0.000000e+00 1.000000e+00 0.000000e+00
      outer loop
         vertex 1.541686e+01 1.500000e+00 1.829808e+01
         vertex 1.679808e+01 1.500000e+00 1.767514e+01
         vertex 1.570000e+01 1.500000e+00 1.657706e+01
      endloop
   endfacet
   facet normal 0.000000e+00 1.000000e+00 0.000000e+00
      outer loop
         vertex 1.570000e+01 1.500000e+00 1.917514e+01
         vertex 1.679808e+01 1.500000e+00 2.067514e+01
         vertex 1.720000e+01 1.500000e+00 1.917514e+01
      endloop
   endfacet
   facet normal 0.000000e+00 1.000000e+00 0.000000e+00
      outer loop
         vertex 1.467434e+01 1.500000e+00 2.059817e+01
         vertex 1.420000e+01 1.500000e+00 2.217514e+01
         vertex 1.570000e+01 1.500000e+00 2.177322e+01
      endloop
   endfacet
   facet normal 0.000000e+00 1.000000e+00 -0.000000e+00
      outer loop
         vertex 1.420000e+01 1.500000e+00 2.217514e+01
         vertex 1.375275e+01 1.500000e+00 2.060691e+01
         vertex 1.300000e+01 1.500000e+00 2.217514e+01
      endloop
   endfacet
   facet normal 0.000000e+00 1.000000e+00 0.000000e+00
      outer loop
         vertex 1.570000e+01 1.500000e+00 1.657706e+01
         vertex 1.420000e+01 1.500000e+00 1.617514e+01
         vertex 1.467434e+01 1.500000e+00 1.775212e+01
      endloop
   endfacet
   facet normal 0.000000e+00 1.000000e+00 0.000000e+00
      outer loop
         vertex 1.467434e+01 1.500000e+00 1.775212e+01
         vertex 1.541686e+01 1.500000e+00 1.829808e+01
         vertex 1.570000e+01 1.500000e+00 1.657706e+01
      endloop
   endfacet
   facet normal 0.000000e+00 1.000000e+00 0.000000e+00
      outer loop
         vertex 1.375275e+01 1.500000e+00 2.060691e+01
         vertex 1.420000e+01 1.500000e+00 2.217514e+01
         vertex 1.467434e+01 1.500000e+00 2.059817e+01
      endloop
   endfacet
   facet normal 0.000000e+00 1.000000e+00 -0.000000e+00
      outer loop
         vertex 1.679808e+01 1.500000e+00 2.067514e+01
         vertex 1.570000e+01 1.500000e+00 1.917514e+01
         vertex 1.541686e+01 1.500000e+00 2.005221e+01
      endloop
   endfacet
   facet normal 0.000000e+00 1.000000e+00 0.000000e+00
      outer loop
         vertex 1.570000e+01 1.500000e+00 1.917514e+01
         vertex 1.720000e+01 1.500000e+00 1.917514e+01
         vertex 1.679808e+01 1.500000e+00 1.767514e+01
      endloop
   endfacet
   facet normal 0.000000e+00 1.000000e+00 0.000000e+00
      outer loop
         vertex 1.679808e+01 1.500000e+00 2.067514e+01
         vertex 1.541686e+01 1.500000e+00 2.005221e+01
         vertex 1.570000e+01 1.500000e+00 2.177322e+01
      endloop
   endfacet
   facet normal 0.000000e+00 1.000000e+00 0.000000e+00
      outer loop
         vertex 1.375275e+01 1.500000e+00 1.774337e+01
         vertex 1.420000e+01 1.500000e+00 1.617514e+01
         vertex 1.300000e+01 1.500000e+00 1.617514e+01
      endloop
   endfacet
   facet normal 0.000000e+00 1.000000e+00 0.000000e+00
      outer loop
         vertex 1.100000e+01 1.500000e+00 -3.600000e+01
         vertex -1.100000e+01 1.500000e+00 -3.600000e+01
         vertex -1.100000e+01 1.500000e+00 3.600000e+01
      endloop
   endfacet
   facet normal -0.000000e+00 1.000000e+00 0.000000e+00
      outer loop
         vertex 1.100000e+01 1.500000e+00 -3.600000e+01
         vertex -1.100000e+01 1.500000e+00 3.600000e+01
         vertex 1.100000e+01 1.500000e+00 3.600000e+01
      endloop
   endfacet
endsolid
