solid 
   facet normal -1.898743e-16 1.976115e-16 -1.000000e+00
      outer loop
         vertex -5.000000e+00 9.148620e+00 0.000000e+00
         vertex -5.000000e+00 1.214500e+01 5.921190e-16
         vertex -5.301312e-01 1.344348e+01 0.000000e+00
      endloop
   endfacet
   facet normal 0.000000e+00 -0.000000e+00 -1.000000e+00
      outer loop
         vertex -4.619398e+00 1.405842e+01 0.000000e+00
         vertex -3.535534e+00 1.568053e+01 0.000000e+00
         vertex -1.342339e+00 1.412500e+01 0.000000e+00
      endloop
   endfacet
   facet normal 0.000000e+00 0.000000e+00 -1.000000e+00
      outer loop
         vertex -1.913417e+00 1.676440e+01 0.000000e+00
         vertex 5.671640e-14 1.714500e+01 0.000000e+00
         vertex -9.963208e-01 1.608737e+01 0.000000e+00
      endloop
   endfacet
   facet normal -0.000000e+00 0.000000e+00 -1.000000e+00
      outer loop
         vertex 1.913417e+00 1.676440e+01 0.000000e+00
         vertex 3.535534e+00 1.568053e+01 0.000000e+00
         vertex 1.526452e+00 1.516916e+01 0.000000e+00
      endloop
   endfacet
   facet normal -1.262635e-17 -6.214242e-16 -1.000000e+00
      outer loop
         vertex 4.619398e+00 1.405842e+01 0.000000e+00
         vertex 5.000000e+00 1.214500e+01 1.184238e-15
         vertex 1.342339e+00 1.412500e+01 0.000000e+00
      endloop
   endfacet
   facet normal 0.000000e+00 0.000000e+00 -1.000000e+00
      outer loop
         vertex 5.000000e+00 9.148620e+00 0.000000e+00
         vertex -5.000000e+00 9.148620e+00 0.000000e+00
         vertex -5.301312e-01 1.344348e+01 0.000000e+00
      endloop
   endfacet
   facet normal 0.000000e+00 0.000000e+00 -1.000000e+00
      outer loop
         vertex 5.310089e-14 1.645000e+01 0.000000e+00
         vertex -9.963208e-01 1.608737e+01 0.000000e+00
         vertex 5.671640e-14 1.714500e+01 0.000000e+00
      endloop
   endfacet
   facet normal 0.000000e+00 0.000000e+00 -1.000000e+00
      outer loop
         vertex -1.526452e+00 1.516916e+01 0.000000e+00
         vertex -1.342339e+00 1.412500e+01 0.000000e+00
         vertex -3.535534e+00 1.568053e+01 0.000000e+00
      endloop
   endfacet
   facet normal -0.000000e+00 -0.000000e+00 -1.000000e+00
      outer loop
         vertex -5.301312e-01 1.344348e+01 0.000000e+00
         vertex 5.301312e-01 1.344348e+01 0.000000e+00
         vertex 5.000000e+00 9.148620e+00 0.000000e+00
      endloop
   endfacet
   facet normal 0.000000e+00 -0.000000e+00 -1.000000e+00
      outer loop
         vertex 1.342339e+00 1.412500e+01 0.000000e+00
         vertex 1.526452e+00 1.516916e+01 0.000000e+00
         vertex 3.535534e+00 1.568053e+01 0.000000e+00
      endloop
   endfacet
   facet normal -9.840219e-17 -1.172712e-16 -1.000000e+00
      outer loop
         vertex -5.301312e-01 1.344348e+01 0.000000e+00
         vertex -5.000000e+00 1.214500e+01 5.921190e-16
         vertex -1.342339e+00 1.412500e+01 0.000000e+00
      endloop
   endfacet
   facet normal -2.359457e-15 5.723444e-16 -1.000000e+00
      outer loop
         vertex 1.913417e+00 1.676440e+01 0.000000e+00
         vertex 1.526452e+00 1.516916e+01 0.000000e+00
         vertex 9.963208e-01 1.608737e+01 1.776357e-15
      endloop
   endfacet
   facet normal 1.782917e-15 -9.275085e-30 -1.000000e+00
      outer loop
         vertex 5.310089e-14 1.645000e+01 0.000000e+00
         vertex 5.671640e-14 1.714500e+01 0.000000e+00
         vertex 9.963208e-01 1.608737e+01 1.776357e-15
      endloop
   endfacet
   facet normal 0.000000e+00 -0.000000e+00 -1.000000e+00
      outer loop
         vertex 1.342339e+00 1.412500e+01 0.000000e+00
         vertex 3.535534e+00 1.568053e+01 0.000000e+00
         vertex 4.619398e+00 1.405842e+01 0.000000e+00
      endloop
   endfacet
   facet normal 6.313173e-18 -3.107121e-16 -1.000000e+00
      outer loop
         vertex -5.000000e+00 1.214500e+01 5.921190e-16
         vertex -4.619398e+00 1.405842e+01 0.000000e+00
         vertex -1.342339e+00 1.412500e+01 0.000000e+00
      endloop
   endfacet
   facet normal -4.111229e-16 -2.066857e-15 -1.000000e+00
      outer loop
         vertex 5.671640e-14 1.714500e+01 0.000000e+00
         vertex 1.913417e+00 1.676440e+01 0.000000e+00
         vertex 9.963208e-01 1.608737e+01 1.776357e-15
      endloop
   endfacet
   facet normal 0.000000e+00 0.000000e+00 -1.000000e+00
      outer loop
         vertex -9.963208e-01 1.608737e+01 0.000000e+00
         vertex -1.526452e+00 1.516916e+01 0.000000e+00
         vertex -1.913417e+00 1.676440e+01 0.000000e+00
      endloop
   endfacet
   facet normal 1.968044e-16 -2.345424e-16 -1.000000e+00
      outer loop
         vertex 1.342339e+00 1.412500e+01 0.000000e+00
         vertex 5.000000e+00 1.214500e+01 1.184238e-15
         vertex 5.301312e-01 1.344348e+01 0.000000e+00
      endloop
   endfacet
   facet normal 0.000000e+00 0.000000e+00 -1.000000e+00
      outer loop
         vertex -1.913417e+00 1.676440e+01 0.000000e+00
         vertex -1.526452e+00 1.516916e+01 0.000000e+00
         vertex -3.535534e+00 1.568053e+01 0.000000e+00
      endloop
   endfacet
   facet normal 3.797486e-16 3.952230e-16 -1.000000e+00
      outer loop
         vertex 5.000000e+00 1.214500e+01 1.184238e-15
         vertex 5.000000e+00 9.148620e+00 0.000000e+00
         vertex 5.301312e-01 1.344348e+01 0.000000e+00
      endloop
   endfacet
   facet normal -1.000000e+00 0.000000e+00 0.000000e+00
      outer loop
         vertex -5.000000e+00 -1.214500e+01 5.921190e-16
         vertex -5.000000e+00 -1.214500e+01 1.600000e+01
         vertex -5.000000e+00 -1.028932e+01 6.769003e+00
      endloop
   endfacet
   facet normal -1.000000e+00 0.000000e+00 0.000000e+00
      outer loop
         vertex -5.000000e+00 1.214500e+01 1.600000e+01
         vertex -5.000000e+00 1.214500e+01 5.921190e-16
         vertex -5.000000e+00 1.028932e+01 6.769003e+00
      endloop
   endfacet
   facet normal -1.000000e+00 0.000000e+00 0.000000e+00
      outer loop
         vertex -5.000000e+00 9.148620e+00 0.000000e+00
         vertex -5.000000e+00 9.148620e+00 1.567901e+00
         vertex -5.000000e+00 1.214500e+01 5.921190e-16
      endloop
   endfacet
   facet normal -1.000000e+00 0.000000e+00 0.000000e+00
      outer loop
         vertex -5.000000e+00 1.028932e+01 6.769003e+00
         vertex -5.000000e+00 9.818418e+00 9.412664e+00
         vertex -5.000000e+00 1.214500e+01 1.600000e+01
      endloop
   endfacet
   facet normal -1.000000e+00 0.000000e+00 0.000000e+00
      outer loop
         vertex -5.000000e+00 8.680183e+00 1.184476e+01
         vertex -5.000000e+00 6.951978e+00 1.390000e+01
         vertex -5.000000e+00 1.214500e+01 1.600000e+01
      endloop
   endfacet
   facet normal -1.000000e+00 0.000000e+00 0.000000e+00
      outer loop
         vertex -5.000000e+00 -6.951978e+00 1.390000e+01
         vertex -5.000000e+00 -8.680183e+00 1.184476e+01
         vertex -5.000000e+00 -1.214500e+01 1.600000e+01
      endloop
   endfacet
   facet normal -1.000000e+00 0.000000e+00 0.000000e+00
      outer loop
         vertex -5.000000e+00 -9.818418e+00 9.412664e+00
         vertex -5.000000e+00 -1.028932e+01 6.769003e+00
         vertex -5.000000e+00 -1.214500e+01 1.600000e+01
      endloop
   endfacet
   facet normal -1.000000e+00 -0.000000e+00 0.000000e+00
      outer loop
         vertex -5.000000e+00 -1.006087e+01 4.093466e+00
         vertex -5.000000e+00 -9.148620e+00 1.567901e+00
         vertex -5.000000e+00 -1.214500e+01 5.921190e-16
      endloop
   endfacet
   facet normal -1.000000e+00 0.000000e+00 0.000000e+00
      outer loop
         vertex -5.000000e+00 -9.148620e+00 0.000000e+00
         vertex -5.000000e+00 -1.214500e+01 5.921190e-16
         vertex -5.000000e+00 -9.148620e+00 1.567901e+00
      endloop
   endfacet
   facet normal -1.000000e+00 0.000000e+00 0.000000e+00
      outer loop
         vertex -5.000000e+00 1.214500e+01 5.921190e-16
         vertex -5.000000e+00 9.148620e+00 1.567901e+00
         vertex -5.000000e+00 1.006087e+01 4.093466e+00
      endloop
   endfacet
   facet normal -1.000000e+00 0.000000e+00 0.000000e+00
      outer loop
         vertex -5.000000e+00 1.214500e+01 1.600000e+01
         vertex -5.000000e+00 6.951978e+00 1.390000e+01
         vertex -5.000000e+00 -1.214500e+01 1.600000e+01
      endloop
   endfacet
   facet normal -1.000000e+00 0.000000e+00 0.000000e+00
      outer loop
         vertex -5.000000e+00 -9.818418e+00 9.412664e+00
         vertex -5.000000e+00 -1.214500e+01 1.600000e+01
         vertex -5.000000e+00 -8.680183e+00 1.184476e+01
      endloop
   endfacet
   facet normal -1.000000e+00 0.000000e+00 -0.000000e+00
      outer loop
         vertex -5.000000e+00 1.006087e+01 4.093466e+00
         vertex -5.000000e+00 1.028932e+01 6.769003e+00
         vertex -5.000000e+00 1.214500e+01 5.921190e-16
      endloop
   endfacet
   facet normal -1.000000e+00 0.000000e+00 0.000000e+00
      outer loop
         vertex -5.000000e+00 6.951978e+00 1.390000e+01
         vertex -5.000000e+00 -6.951978e+00 1.390000e+01
         vertex -5.000000e+00 -1.214500e+01 1.600000e+01
      endloop
   endfacet
   facet normal -1.000000e+00 0.000000e+00 -0.000000e+00
      outer loop
         vertex -5.000000e+00 -1.214500e+01 5.921190e-16
         vertex -5.000000e+00 -1.028932e+01 6.769003e+00
         vertex -5.000000e+00 -1.006087e+01 4.093466e+00
      endloop
   endfacet
   facet normal -1.000000e+00 0.000000e+00 0.000000e+00
      outer loop
         vertex -5.000000e+00 9.818418e+00 9.412664e+00
         vertex -5.000000e+00 8.680183e+00 1.184476e+01
         vertex -5.000000e+00 1.214500e+01 1.600000e+01
      endloop
   endfacet
   facet normal 0.000000e+00 0.000000e+00 1.000000e+00
      outer loop
         vertex 2.000000e+00 1.214500e+01 1.900000e+01
         vertex -1.618034e+00 1.332057e+01 1.900000e+01
         vertex -2.000000e+00 1.214500e+01 1.900000e+01
      endloop
   endfacet
   facet normal 0.000000e+00 0.000000e+00 1.000000e+00
      outer loop
         vertex -1.618034e+00 1.332057e+01 1.900000e+01
         vertex 6.180339e-01 1.404711e+01 1.900000e+01
         vertex -6.180341e-01 1.404711e+01 1.900000e+01
      endloop
   endfacet
   facet normal 0.000000e+00 -0.000000e+00 1.000000e+00
      outer loop
         vertex -2.000000e+00 -1.214500e+01 1.900000e+01
         vertex 2.000000e+00 -1.214500e+01 1.900000e+01
         vertex 2.000000e+00 1.214500e+01 1.900000e+01
      endloop
   endfacet
   facet normal 0.000000e+00 -0.000000e+00 1.000000e+00
      outer loop
         vertex -6.180341e-01 -1.404711e+01 1.900000e+01
         vertex 6.180339e-01 -1.404711e+01 1.900000e+01
         vertex 1.618034e+00 -1.332057e+01 1.900000e+01
      endloop
   endfacet
   facet normal 0.000000e+00 0.000000e+00 1.000000e+00
      outer loop
         vertex 1.618034e+00 -1.332057e+01 1.900000e+01
         vertex -2.000000e+00 -1.214500e+01 1.900000e+01
         vertex -1.618034e+00 -1.332057e+01 1.900000e+01
      endloop
   endfacet
   facet normal 0.000000e+00 0.000000e+00 1.000000e+00
      outer loop
         vertex -2.000000e+00 -1.214500e+01 1.900000e+01
         vertex 2.000000e+00 1.214500e+01 1.900000e+01
         vertex -2.000000e+00 1.214500e+01 1.900000e+01
      endloop
   endfacet
   facet normal 0.000000e+00 0.000000e+00 1.000000e+00
      outer loop
         vertex 1.618034e+00 -1.332057e+01 1.900000e+01
         vertex 2.000000e+00 -1.214500e+01 1.900000e+01
         vertex -2.000000e+00 -1.214500e+01 1.900000e+01
      endloop
   endfacet
   facet normal 0.000000e+00 0.000000e+00 1.000000e+00
      outer loop
         vertex -1.618034e+00 1.332057e+01 1.900000e+01
         vertex 1.618034e+00 1.332057e+01 1.900000e+01
         vertex 6.180339e-01 1.404711e+01 1.900000e+01
      endloop
   endfacet
   facet normal -0.000000e+00 0.000000e+00 1.000000e+00
      outer loop
         vertex 1.618034e+00 -1.332057e+01 1.900000e+01
         vertex -1.618034e+00 -1.332057e+01 1.900000e+01
         vertex -6.180341e-01 -1.404711e+01 1.900000e+01
      endloop
   endfacet
   facet normal 0.000000e+00 0.000000e+00 1.000000e+00
      outer loop
         vertex 2.000000e+00 1.214500e+01 1.900000e+01
         vertex 1.618034e+00 1.332057e+01 1.900000e+01
         vertex -1.618034e+00 1.332057e+01 1.900000e+01
      endloop
   endfacet
   facet normal 1.000000e+00 0.000000e+00 0.000000e+00
      outer loop
         vertex 5.000000e+00 1.214500e+01 1.184238e-15
         vertex 5.000000e+00 1.214500e+01 1.600000e+01
         vertex 5.000000e+00 1.028932e+01 6.769003e+00
      endloop
   endfacet
   facet normal 1.000000e+00 0.000000e+00 0.000000e+00
      outer loop
         vertex 5.000000e+00 -1.214500e+01 1.600000e+01
         vertex 5.000000e+00 -1.214500e+01 1.184238e-15
         vertex 5.000000e+00 -1.028932e+01 6.769003e+00
      endloop
   endfacet
   facet normal 1.000000e+00 0.000000e+00 0.000000e+00
      outer loop
         vertex 5.000000e+00 -9.148620e+00 0.000000e+00
         vertex 5.000000e+00 -9.148620e+00 1.567901e+00
         vertex 5.000000e+00 -1.214500e+01 1.184238e-15
      endloop
   endfacet
   facet normal 1.000000e+00 0.000000e+00 0.000000e+00
      outer loop
         vertex 5.000000e+00 -1.028932e+01 6.769003e+00
         vertex 5.000000e+00 -9.818418e+00 9.412664e+00
         vertex 5.000000e+00 -1.214500e+01 1.600000e+01
      endloop
   endfacet
   facet normal 1.000000e+00 0.000000e+00 0.000000e+00
      outer loop
         vertex 5.000000e+00 -8.680183e+00 1.184476e+01
         vertex 5.000000e+00 -6.951978e+00 1.390000e+01
         vertex 5.000000e+00 -1.214500e+01 1.600000e+01
      endloop
   endfacet
   facet normal 1.000000e+00 0.000000e+00 -0.000000e+00
      outer loop
         vertex 5.000000e+00 6.951978e+00 1.390000e+01
         vertex 5.000000e+00 8.680183e+00 1.184476e+01
         vertex 5.000000e+00 1.214500e+01 1.600000e+01
      endloop
   endfacet
   facet normal 1.000000e+00 0.000000e+00 -0.000000e+00
      outer loop
         vertex 5.000000e+00 9.818418e+00 9.412664e+00
         vertex 5.000000e+00 1.028932e+01 6.769003e+00
         vertex 5.000000e+00 1.214500e+01 1.600000e+01
      endloop
   endfacet
   facet normal 1.000000e+00 -0.000000e+00 0.000000e+00
      outer loop
         vertex 5.000000e+00 1.006087e+01 4.093466e+00
         vertex 5.000000e+00 9.148620e+00 1.567901e+00
         vertex 5.000000e+00 1.214500e+01 1.184238e-15
      endloop
   endfacet
   facet normal 1.000000e+00 0.000000e+00 0.000000e+00
      outer loop
         vertex 5.000000e+00 9.148620e+00 0.000000e+00
         vertex 5.000000e+00 1.214500e+01 1.184238e-15
         vertex 5.000000e+00 9.148620e+00 1.567901e+00
      endloop
   endfacet
   facet normal 1.000000e+00 0.000000e+00 0.000000e+00
      outer loop
         vertex 5.000000e+00 -1.214500e+01 1.184238e-15
         vertex 5.000000e+00 -9.148620e+00 1.567901e+00
         vertex 5.000000e+00 -1.006087e+01 4.093466e+00
      endloop
   endfacet
   facet normal 1.000000e+00 0.000000e+00 -0.000000e+00
      outer loop
         vertex 5.000000e+00 -1.214500e+01 1.600000e+01
         vertex 5.000000e+00 -6.951978e+00 1.390000e+01
         vertex 5.000000e+00 6.951978e+00 1.390000e+01
      endloop
   endfacet
   facet normal 1.000000e+00 0.000000e+00 0.000000e+00
      outer loop
         vertex 5.000000e+00 9.818418e+00 9.412664e+00
         vertex 5.000000e+00 1.214500e+01 1.600000e+01
         vertex 5.000000e+00 8.680183e+00 1.184476e+01
      endloop
   endfacet
   facet normal 1.000000e+00 -0.000000e+00 0.000000e+00
      outer loop
         vertex 5.000000e+00 1.214500e+01 1.600000e+01
         vertex 5.000000e+00 -1.214500e+01 1.600000e+01
         vertex 5.000000e+00 6.951978e+00 1.390000e+01
      endloop
   endfacet
   facet normal 1.000000e+00 0.000000e+00 0.000000e+00
      outer loop
         vertex 5.000000e+00 -9.818418e+00 9.412664e+00
         vertex 5.000000e+00 -8.680183e+00 1.184476e+01
         vertex 5.000000e+00 -1.214500e+01 1.600000e+01
      endloop
   endfacet
   facet normal 1.000000e+00 0.000000e+00 0.000000e+00
      outer loop
         vertex 5.000000e+00 1.214500e+01 1.184238e-15
         vertex 5.000000e+00 1.028932e+01 6.769003e+00
         vertex 5.000000e+00 1.006087e+01 4.093466e+00
      endloop
   endfacet
   facet normal 1.000000e+00 0.000000e+00 0.000000e+00
      outer loop
         vertex 5.000000e+00 -1.006087e+01 4.093466e+00
         vertex 5.000000e+00 -1.028932e+01 6.769003e+00
         vertex 5.000000e+00 -1.214500e+01 1.184238e-15
      endloop
   endfacet
   facet normal -0.000000e+00 -1.000000e+00 0.000000e+00
      outer loop
         vertex -5.000000e+00 9.148620e+00 0.000000e+00
         vertex 5.000000e+00 9.148620e+00 1.567901e+00
         vertex -5.000000e+00 9.148620e+00 1.567901e+00
      endloop
   endfacet
   facet normal 0.000000e+00 -1.000000e+00 0.000000e+00
      outer loop
         vertex 5.000000e+00 9.148620e+00 1.567901e+00
         vertex -5.000000e+00 9.148620e+00 0.000000e+00
         vertex 5.000000e+00 9.148620e+00 0.000000e+00
      endloop
   endfacet
   facet normal 3.420199e-01 -9.396927e-01 0.000000e+00
      outer loop
         vertex -9.963208e-01 1.608737e+01 0.000000e+00
         vertex 5.310089e-14 1.645000e+01 0.000000e+00
         vertex 5.310089e-14 1.645000e+01 1.600000e+01
      endloop
   endfacet
   facet normal 9.848078e-01 1.736481e-01 -0.000000e+00
      outer loop
         vertex -1.342339e+00 1.412500e+01 1.600000e+01
         vertex -1.342339e+00 1.412500e+01 0.000000e+00
         vertex -1.526452e+00 1.516916e+01 0.000000e+00
      endloop
   endfacet
   facet normal 0.000000e+00 1.000000e+00 -0.000000e+00
      outer loop
         vertex 5.301312e-01 1.344348e+01 1.600000e+01
         vertex 5.301312e-01 1.344348e+01 0.000000e+00
         vertex -5.301312e-01 1.344348e+01 0.000000e+00
      endloop
   endfacet
   facet normal -9.848078e-01 1.736481e-01 0.000000e+00
      outer loop
         vertex 1.526452e+00 1.516916e+01 1.600000e+01
         vertex 1.526452e+00 1.516916e+01 0.000000e+00
         vertex 1.342339e+00 1.412500e+01 0.000000e+00
      endloop
   endfacet
   facet normal -3.420199e-01 -9.396927e-01 0.000000e+00
      outer loop
         vertex 5.310089e-14 1.645000e+01 1.600000e+01
         vertex 5.310089e-14 1.645000e+01 0.000000e+00
         vertex 9.963208e-01 1.608737e+01 1.776357e-15
      endloop
   endfacet
   facet normal -8.660255e-01 -4.999998e-01 0.000000e+00
      outer loop
         vertex 9.963208e-01 1.608737e+01 1.776357e-15
         vertex 1.526452e+00 1.516916e+01 1.600000e+01
         vertex 9.963208e-01 1.608737e+01 1.600000e+01
      endloop
   endfacet
   facet normal -6.427875e-01 7.660446e-01 0.000000e+00
      outer loop
         vertex 5.301312e-01 1.344348e+01 0.000000e+00
         vertex 5.301312e-01 1.344348e+01 1.600000e+01
         vertex 1.342339e+00 1.412500e+01 1.600000e+01
      endloop
   endfacet
   facet normal 6.427875e-01 7.660446e-01 0.000000e+00
      outer loop
         vertex -1.342339e+00 1.412500e+01 0.000000e+00
         vertex -1.342339e+00 1.412500e+01 1.600000e+01
         vertex -5.301312e-01 1.344348e+01 1.600000e+01
      endloop
   endfacet
   facet normal 8.660255e-01 -4.999998e-01 0.000000e+00
      outer loop
         vertex -9.963208e-01 1.608737e+01 0.000000e+00
         vertex -9.963208e-01 1.608737e+01 1.600000e+01
         vertex -1.526452e+00 1.516916e+01 1.600000e+01
      endloop
   endfacet
   facet normal 3.420199e-01 -9.396927e-01 0.000000e+00
      outer loop
         vertex -9.963208e-01 1.608737e+01 1.600000e+01
         vertex -9.963208e-01 1.608737e+01 0.000000e+00
         vertex 5.310089e-14 1.645000e+01 1.600000e+01
      endloop
   endfacet
   facet normal -9.848078e-01 1.736481e-01 0.000000e+00
      outer loop
         vertex 1.342339e+00 1.412500e+01 1.600000e+01
         vertex 1.526452e+00 1.516916e+01 1.600000e+01
         vertex 1.342339e+00 1.412500e+01 0.000000e+00
      endloop
   endfacet
   facet normal -3.420199e-01 -9.396927e-01 0.000000e+00
      outer loop
         vertex 5.310089e-14 1.645000e+01 1.600000e+01
         vertex 9.963208e-01 1.608737e+01 1.776357e-15
         vertex 9.963208e-01 1.608737e+01 1.600000e+01
      endloop
   endfacet
   facet normal 8.660255e-01 -4.999998e-01 0.000000e+00
      outer loop
         vertex -1.526452e+00 1.516916e+01 0.000000e+00
         vertex -9.963208e-01 1.608737e+01 0.000000e+00
         vertex -1.526452e+00 1.516916e+01 1.600000e+01
      endloop
   endfacet
   facet normal 6.427875e-01 7.660446e-01 -0.000000e+00
      outer loop
         vertex -5.301312e-01 1.344348e+01 1.600000e+01
         vertex -5.301312e-01 1.344348e+01 0.000000e+00
         vertex -1.342339e+00 1.412500e+01 0.000000e+00
      endloop
   endfacet
   facet normal -8.660255e-01 -4.999998e-01 0.000000e+00
      outer loop
         vertex 1.526452e+00 1.516916e+01 1.600000e+01
         vertex 9.963208e-01 1.608737e+01 1.776357e-15
         vertex 1.526452e+00 1.516916e+01 0.000000e+00
      endloop
   endfacet
   facet normal 9.848078e-01 1.736481e-01 0.000000e+00
      outer loop
         vertex -1.526452e+00 1.516916e+01 0.000000e+00
         vertex -1.526452e+00 1.516916e+01 1.600000e+01
         vertex -1.342339e+00 1.412500e+01 1.600000e+01
      endloop
   endfacet
   facet normal -6.427875e-01 7.660446e-01 0.000000e+00
      outer loop
         vertex 1.342339e+00 1.412500e+01 0.000000e+00
         vertex 5.301312e-01 1.344348e+01 0.000000e+00
         vertex 1.342339e+00 1.412500e+01 1.600000e+01
      endloop
   endfacet
   facet normal -0.000000e+00 1.000000e+00 0.000000e+00
      outer loop
         vertex -5.301312e-01 1.344348e+01 0.000000e+00
         vertex -5.301312e-01 1.344348e+01 1.600000e+01
         vertex 5.301312e-01 1.344348e+01 1.600000e+01
      endloop
   endfacet
   facet normal -0.000000e+00 -7.653733e-01 -6.435866e-01
      outer loop
         vertex -5.000000e+00 8.680183e+00 1.184476e+01
         vertex 5.000000e+00 6.951978e+00 1.390000e+01
         vertex -5.000000e+00 6.951978e+00 1.390000e+01
      endloop
   endfacet
   facet normal -0.000000e+00 -9.057182e-01 -4.238803e-01
      outer loop
         vertex -5.000000e+00 9.818418e+00 9.412664e+00
         vertex 5.000000e+00 9.818418e+00 9.412664e+00
         vertex 5.000000e+00 8.680183e+00 1.184476e+01
      endloop
   endfacet
   facet normal 0.000000e+00 -9.963748e-01 8.507191e-02
      outer loop
         vertex -5.000000e+00 1.006087e+01 4.093466e+00
         vertex 5.000000e+00 1.006087e+01 4.093466e+00
         vertex 5.000000e+00 1.028932e+01 6.769003e+00
      endloop
   endfacet
   facet normal 0.000000e+00 -9.405247e-01 3.397254e-01
      outer loop
         vertex 5.000000e+00 1.006087e+01 4.093466e+00
         vertex -5.000000e+00 9.148620e+00 1.567901e+00
         vertex 5.000000e+00 9.148620e+00 1.567901e+00
      endloop
   endfacet
   facet normal 0.000000e+00 -9.845038e-01 -1.753634e-01
      outer loop
         vertex 5.000000e+00 9.818418e+00 9.412664e+00
         vertex -5.000000e+00 9.818418e+00 9.412664e+00
         vertex -5.000000e+00 1.028932e+01 6.769003e+00
      endloop
   endfacet
   facet normal 0.000000e+00 -7.653733e-01 -6.435866e-01
      outer loop
         vertex 5.000000e+00 8.680183e+00 1.184476e+01
         vertex 5.000000e+00 6.951978e+00 1.390000e+01
         vertex -5.000000e+00 8.680183e+00 1.184476e+01
      endloop
   endfacet
   facet normal 0.000000e+00 -9.405247e-01 3.397254e-01
      outer loop
         vertex -5.000000e+00 9.148620e+00 1.567901e+00
         vertex 5.000000e+00 1.006087e+01 4.093466e+00
         vertex -5.000000e+00 1.006087e+01 4.093466e+00
      endloop
   endfacet
   facet normal -0.000000e+00 -9.845038e-01 -1.753634e-01
      outer loop
         vertex -5.000000e+00 1.028932e+01 6.769003e+00
         vertex 5.000000e+00 1.028932e+01 6.769003e+00
         vertex 5.000000e+00 9.818418e+00 9.412664e+00
      endloop
   endfacet
   facet normal 0.000000e+00 -9.057182e-01 -4.238803e-01
      outer loop
         vertex 5.000000e+00 8.680183e+00 1.184476e+01
         vertex -5.000000e+00 8.680183e+00 1.184476e+01
         vertex -5.000000e+00 9.818418e+00 9.412664e+00
      endloop
   endfacet
   facet normal 0.000000e+00 -9.963748e-01 8.507191e-02
      outer loop
         vertex -5.000000e+00 1.006087e+01 4.093466e+00
         vertex 5.000000e+00 1.028932e+01 6.769003e+00
         vertex -5.000000e+00 1.028932e+01 6.769003e+00
      endloop
   endfacet
   facet normal 0.000000e+00 0.000000e+00 -1.000000e+00
      outer loop
         vertex 5.000000e+00 -6.951978e+00 1.390000e+01
         vertex -5.000000e+00 -6.951978e+00 1.390000e+01
         vertex -5.000000e+00 6.951978e+00 1.390000e+01
      endloop
   endfacet
   facet normal 0.000000e+00 0.000000e+00 -1.000000e+00
      outer loop
         vertex 5.000000e+00 6.951978e+00 1.390000e+01
         vertex 5.000000e+00 -6.951978e+00 1.390000e+01
         vertex -5.000000e+00 6.951978e+00 1.390000e+01
      endloop
   endfacet
   facet normal 0.000000e+00 9.405247e-01 3.397254e-01
      outer loop
         vertex 5.000000e+00 -1.006087e+01 4.093466e+00
         vertex 5.000000e+00 -9.148620e+00 1.567901e+00
         vertex -5.000000e+00 -9.148620e+00 1.567901e+00
      endloop
   endfacet
   facet normal 0.000000e+00 9.845038e-01 -1.753634e-01
      outer loop
         vertex -5.000000e+00 -9.818418e+00 9.412664e+00
         vertex 5.000000e+00 -9.818418e+00 9.412664e+00
         vertex 5.000000e+00 -1.028932e+01 6.769003e+00
      endloop
   endfacet
   facet normal 0.000000e+00 7.653733e-01 -6.435866e-01
      outer loop
         vertex -5.000000e+00 -6.951978e+00 1.390000e+01
         vertex 5.000000e+00 -6.951978e+00 1.390000e+01
         vertex 5.000000e+00 -8.680183e+00 1.184476e+01
      endloop
   endfacet
   facet normal 0.000000e+00 9.057182e-01 -4.238803e-01
      outer loop
         vertex 5.000000e+00 -9.818418e+00 9.412664e+00
         vertex -5.000000e+00 -9.818418e+00 9.412664e+00
         vertex -5.000000e+00 -8.680183e+00 1.184476e+01
      endloop
   endfacet
   facet normal -0.000000e+00 9.963748e-01 8.507191e-02
      outer loop
         vertex 5.000000e+00 -1.006087e+01 4.093466e+00
         vertex -5.000000e+00 -1.006087e+01 4.093466e+00
         vertex -5.000000e+00 -1.028932e+01 6.769003e+00
      endloop
   endfacet
   facet normal 0.000000e+00 9.405247e-01 3.397254e-01
      outer loop
         vertex -5.000000e+00 -1.006087e+01 4.093466e+00
         vertex 5.000000e+00 -1.006087e+01 4.093466e+00
         vertex -5.000000e+00 -9.148620e+00 1.567901e+00
      endloop
   endfacet
   facet normal 0.000000e+00 9.057182e-01 -4.238803e-01
      outer loop
         vertex 5.000000e+00 -8.680183e+00 1.184476e+01
         vertex 5.000000e+00 -9.818418e+00 9.412664e+00
         vertex -5.000000e+00 -8.680183e+00 1.184476e+01
      endloop
   endfacet
   facet normal 0.000000e+00 9.963748e-01 8.507191e-02
      outer loop
         vertex -5.000000e+00 -1.028932e+01 6.769003e+00
         vertex 5.000000e+00 -1.028932e+01 6.769003e+00
         vertex 5.000000e+00 -1.006087e+01 4.093466e+00
      endloop
   endfacet
   facet normal 0.000000e+00 9.845038e-01 -1.753634e-01
      outer loop
         vertex 5.000000e+00 -1.028932e+01 6.769003e+00
         vertex -5.000000e+00 -1.028932e+01 6.769003e+00
         vertex -5.000000e+00 -9.818418e+00 9.412664e+00
      endloop
   endfacet
   facet normal 0.000000e+00 7.653733e-01 -6.435866e-01
      outer loop
         vertex -5.000000e+00 -6.951978e+00 1.390000e+01
         vertex 5.000000e+00 -8.680183e+00 1.184476e+01
         vertex -5.000000e+00 -8.680183e+00 1.184476e+01
      endloop
   endfacet
   facet normal 0.000000e+00 1.000000e+00 0.000000e+00
      outer loop
         vertex 5.000000e+00 -9.148620e+00 0.000000e+00
         vertex -5.000000e+00 -9.148620e+00 0.000000e+00
         vertex 5.000000e+00 -9.148620e+00 1.567901e+00
      endloop
   endfacet
   facet normal 0.000000e+00 1.000000e+00 0.000000e+00
      outer loop
         vertex -5.000000e+00 -9.148620e+00 1.567901e+00
         vertex 5.000000e+00 -9.148620e+00 1.567901e+00
         vertex -5.000000e+00 -9.148620e+00 0.000000e+00
      endloop
   endfacet
   facet normal 4.505362e-16 -3.952230e-16 -1.000000e+00
      outer loop
         vertex 5.000000e+00 -9.148620e+00 0.000000e+00
         vertex 5.000000e+00 -1.214500e+01 1.184238e-15
         vertex 9.963208e-01 -1.371263e+01 0.000000e+00
      endloop
   endfacet
   facet normal 0.000000e+00 0.000000e+00 -1.000000e+00
      outer loop
         vertex 4.619398e+00 -1.405842e+01 0.000000e+00
         vertex 3.535534e+00 -1.568053e+01 0.000000e+00
         vertex 1.526452e+00 -1.463085e+01 0.000000e+00
      endloop
   endfacet
   facet normal 0.000000e+00 0.000000e+00 -1.000000e+00
      outer loop
         vertex 1.913417e+00 -1.676440e+01 0.000000e+00
         vertex -7.732045e-15 -1.714500e+01 0.000000e+00
         vertex 5.301312e-01 -1.635652e+01 0.000000e+00
      endloop
   endfacet
   facet normal -8.068943e-16 -1.207602e-15 -1.000000e+00
      outer loop
         vertex -1.913417e+00 -1.676440e+01 0.000000e+00
         vertex -3.535534e+00 -1.568053e+01 0.000000e+00
         vertex -1.342339e+00 -1.567500e+01 -1.776357e-15
      endloop
   endfacet
   facet normal -2.898408e-17 3.036910e-16 -1.000000e+00
      outer loop
         vertex -4.619398e+00 -1.405842e+01 0.000000e+00
         vertex -5.000000e+00 -1.214500e+01 5.921190e-16
         vertex -9.963208e-01 -1.371263e+01 0.000000e+00
      endloop
   endfacet
   facet normal -0.000000e+00 0.000000e+00 -1.000000e+00
      outer loop
         vertex -5.000000e+00 -9.148620e+00 0.000000e+00
         vertex 5.000000e+00 -9.148620e+00 0.000000e+00
         vertex -1.898203e-16 -1.335000e+01 0.000000e+00
      endloop
   endfacet
   facet normal 0.000000e+00 0.000000e+00 -1.000000e+00
      outer loop
         vertex -1.898203e-16 -1.335000e+01 0.000000e+00
         vertex -9.963208e-01 -1.371263e+01 0.000000e+00
         vertex -5.000000e+00 -9.148620e+00 0.000000e+00
      endloop
   endfacet
   facet normal -8.138697e-16 1.557731e-15 -1.000000e+00
      outer loop
         vertex -1.526452e+00 -1.463085e+01 0.000000e+00
         vertex -1.342339e+00 -1.567500e+01 -1.776357e-15
         vertex -3.535534e+00 -1.568053e+01 0.000000e+00
      endloop
   endfacet
   facet normal -0.000000e+00 0.000000e+00 -1.000000e+00
      outer loop
         vertex -5.301312e-01 -1.635652e+01 0.000000e+00
         vertex 5.301312e-01 -1.635652e+01 0.000000e+00
         vertex -7.732045e-15 -1.714500e+01 0.000000e+00
      endloop
   endfacet
   facet normal 8.138697e-16 1.557731e-15 -1.000000e+00
      outer loop
         vertex 1.342339e+00 -1.567500e+01 -1.776357e-15
         vertex 1.526452e+00 -1.463085e+01 0.000000e+00
         vertex 3.535534e+00 -1.568053e+01 0.000000e+00
      endloop
   endfacet
   facet normal 0.000000e+00 0.000000e+00 -1.000000e+00
      outer loop
         vertex 5.000000e+00 -9.148620e+00 0.000000e+00
         vertex 9.963208e-01 -1.371263e+01 0.000000e+00
         vertex -1.898203e-16 -1.335000e+01 0.000000e+00
      endloop
   endfacet
   facet normal -5.686948e-16 -1.928706e-15 -1.000000e+00
      outer loop
         vertex 1.913417e+00 -1.676440e+01 0.000000e+00
         vertex 5.301312e-01 -1.635652e+01 0.000000e+00
         vertex 1.342339e+00 -1.567500e+01 -1.776357e-15
      endloop
   endfacet
   facet normal -2.252681e-16 -1.976115e-16 -1.000000e+00
      outer loop
         vertex -9.963208e-01 -1.371263e+01 0.000000e+00
         vertex -5.000000e+00 -1.214500e+01 5.921190e-16
         vertex -5.000000e+00 -9.148620e+00 0.000000e+00
      endloop
   endfacet
   facet normal 8.068943e-16 -1.207602e-15 -1.000000e+00
      outer loop
         vertex 1.342339e+00 -1.567500e+01 -1.776357e-15
         vertex 3.535534e+00 -1.568053e+01 0.000000e+00
         vertex 1.913417e+00 -1.676440e+01 0.000000e+00
      endloop
   endfacet
   facet normal 5.796817e-17 6.073821e-16 -1.000000e+00
      outer loop
         vertex 5.000000e+00 -1.214500e+01 1.184238e-15
         vertex 4.619398e+00 -1.405842e+01 0.000000e+00
         vertex 9.963208e-01 -1.371263e+01 0.000000e+00
      endloop
   endfacet
   facet normal 0.000000e+00 0.000000e+00 -1.000000e+00
      outer loop
         vertex -3.535534e+00 -1.568053e+01 0.000000e+00
         vertex -4.619398e+00 -1.405842e+01 0.000000e+00
         vertex -1.526452e+00 -1.463085e+01 0.000000e+00
      endloop
   endfacet
   facet normal 5.686948e-16 -1.928706e-15 -1.000000e+00
      outer loop
         vertex -1.342339e+00 -1.567500e+01 -1.776357e-15
         vertex -5.301312e-01 -1.635652e+01 0.000000e+00
         vertex -1.913417e+00 -1.676440e+01 0.000000e+00
      endloop
   endfacet
   facet normal 0.000000e+00 0.000000e+00 -1.000000e+00
      outer loop
         vertex 4.619398e+00 -1.405842e+01 0.000000e+00
         vertex 1.526452e+00 -1.463085e+01 0.000000e+00
         vertex 9.963208e-01 -1.371263e+01 0.000000e+00
      endloop
   endfacet
   facet normal 0.000000e+00 0.000000e+00 -1.000000e+00
      outer loop
         vertex -1.526452e+00 -1.463085e+01 0.000000e+00
         vertex -4.619398e+00 -1.405842e+01 0.000000e+00
         vertex -9.963208e-01 -1.371263e+01 0.000000e+00
      endloop
   endfacet
   facet normal 0.000000e+00 0.000000e+00 -1.000000e+00
      outer loop
         vertex -7.732045e-15 -1.714500e+01 0.000000e+00
         vertex -1.913417e+00 -1.676440e+01 0.000000e+00
         vertex -5.301312e-01 -1.635652e+01 0.000000e+00
      endloop
   endfacet
   facet normal 0.000000e+00 0.000000e+00 -1.000000e+00
      outer loop
         vertex -9.963208e-01 1.608737e+01 1.600000e+01
         vertex 5.310089e-14 1.645000e+01 1.600000e+01
         vertex -1.526452e+00 1.516916e+01 1.600000e+01
      endloop
   endfacet
   facet normal -0.000000e+00 0.000000e+00 -1.000000e+00
      outer loop
         vertex 9.963208e-01 1.608737e+01 1.600000e+01
         vertex 1.526452e+00 1.516916e+01 1.600000e+01
         vertex 1.342339e+00 1.412500e+01 1.600000e+01
      endloop
   endfacet
   facet normal 0.000000e+00 0.000000e+00 -1.000000e+00
      outer loop
         vertex 5.301312e-01 1.344348e+01 1.600000e+01
         vertex -5.301312e-01 1.344348e+01 1.600000e+01
         vertex 1.342339e+00 1.412500e+01 1.600000e+01
      endloop
   endfacet
   facet normal 0.000000e+00 -0.000000e+00 -1.000000e+00
      outer loop
         vertex -1.526452e+00 1.516916e+01 1.600000e+01
         vertex 5.310089e-14 1.645000e+01 1.600000e+01
         vertex 9.963208e-01 1.608737e+01 1.600000e+01
      endloop
   endfacet
   facet normal 0.000000e+00 -0.000000e+00 -1.000000e+00
      outer loop
         vertex -1.526452e+00 1.516916e+01 1.600000e+01
         vertex 9.963208e-01 1.608737e+01 1.600000e+01
         vertex 1.342339e+00 1.412500e+01 1.600000e+01
      endloop
   endfacet
   facet normal 0.000000e+00 0.000000e+00 -1.000000e+00
      outer loop
         vertex -5.301312e-01 1.344348e+01 1.600000e+01
         vertex -1.342339e+00 1.412500e+01 1.600000e+01
         vertex 1.342339e+00 1.412500e+01 1.600000e+01
      endloop
   endfacet
   facet normal 0.000000e+00 0.000000e+00 -1.000000e+00
      outer loop
         vertex -1.526452e+00 1.516916e+01 1.600000e+01
         vertex 1.342339e+00 1.412500e+01 1.600000e+01
         vertex -1.342339e+00 1.412500e+01 1.600000e+01
      endloop
   endfacet
   facet normal 3.420199e-01 -9.396927e-01 0.000000e+00
      outer loop
         vertex -9.963208e-01 -1.371263e+01 0.000000e+00
         vertex -1.898203e-16 -1.335000e+01 0.000000e+00
         vertex -1.898203e-16 -1.335000e+01 1.600000e+01
      endloop
   endfacet
   facet normal 9.848078e-01 1.736481e-01 -0.000000e+00
      outer loop
         vertex -1.342339e+00 -1.567500e+01 1.600000e+01
         vertex -1.342339e+00 -1.567500e+01 -1.776357e-15
         vertex -1.526452e+00 -1.463085e+01 0.000000e+00
      endloop
   endfacet
   facet normal 0.000000e+00 1.000000e+00 -0.000000e+00
      outer loop
         vertex 5.301312e-01 -1.635652e+01 1.600000e+01
         vertex 5.301312e-01 -1.635652e+01 0.000000e+00
         vertex -5.301312e-01 -1.635652e+01 0.000000e+00
      endloop
   endfacet
   facet normal -9.848078e-01 1.736481e-01 0.000000e+00
      outer loop
         vertex 1.342339e+00 -1.567500e+01 1.600000e+01
         vertex 1.526452e+00 -1.463085e+01 0.000000e+00
         vertex 1.342339e+00 -1.567500e+01 -1.776357e-15
      endloop
   endfacet
   facet normal -3.420199e-01 -9.396927e-01 0.000000e+00
      outer loop
         vertex -1.898203e-16 -1.335000e+01 1.600000e+01
         vertex -1.898203e-16 -1.335000e+01 0.000000e+00
         vertex 9.963208e-01 -1.371263e+01 0.000000e+00
      endloop
   endfacet
   facet normal -8.660253e-01 -5.000002e-01 -0.000000e+00
      outer loop
         vertex 1.526452e+00 -1.463085e+01 0.000000e+00
         vertex 1.526452e+00 -1.463085e+01 1.600000e+01
         vertex 9.963208e-01 -1.371263e+01 1.600000e+01
      endloop
   endfacet
   facet normal -6.427875e-01 7.660446e-01 0.000000e+00
      outer loop
         vertex 5.301312e-01 -1.635652e+01 0.000000e+00
         vertex 5.301312e-01 -1.635652e+01 1.600000e+01
         vertex 1.342339e+00 -1.567500e+01 1.600000e+01
      endloop
   endfacet
   facet normal 6.427875e-01 7.660446e-01 0.000000e+00
      outer loop
         vertex -5.301312e-01 -1.635652e+01 0.000000e+00
         vertex -1.342339e+00 -1.567500e+01 1.600000e+01
         vertex -5.301312e-01 -1.635652e+01 1.600000e+01
      endloop
   endfacet
   facet normal 8.660253e-01 -5.000002e-01 0.000000e+00
      outer loop
         vertex -1.526452e+00 -1.463085e+01 0.000000e+00
         vertex -9.963208e-01 -1.371263e+01 1.600000e+01
         vertex -1.526452e+00 -1.463085e+01 1.600000e+01
      endloop
   endfacet
   facet normal 3.420199e-01 -9.396927e-01 0.000000e+00
      outer loop
         vertex -9.963208e-01 -1.371263e+01 1.600000e+01
         vertex -9.963208e-01 -1.371263e+01 0.000000e+00
         vertex -1.898203e-16 -1.335000e+01 1.600000e+01
      endloop
   endfacet
   facet normal 0.000000e+00 1.000000e+00 0.000000e+00
      outer loop
         vertex -5.301312e-01 -1.635652e+01 1.600000e+01
         vertex 5.301312e-01 -1.635652e+01 1.600000e+01
         vertex -5.301312e-01 -1.635652e+01 0.000000e+00
      endloop
   endfacet
   facet normal -3.420199e-01 -9.396927e-01 0.000000e+00
      outer loop
         vertex 9.963208e-01 -1.371263e+01 1.600000e+01
         vertex -1.898203e-16 -1.335000e+01 1.600000e+01
         vertex 9.963208e-01 -1.371263e+01 0.000000e+00
      endloop
   endfacet
   facet normal -6.427875e-01 7.660446e-01 0.000000e+00
      outer loop
         vertex 1.342339e+00 -1.567500e+01 -1.776357e-15
         vertex 5.301312e-01 -1.635652e+01 0.000000e+00
         vertex 1.342339e+00 -1.567500e+01 1.600000e+01
      endloop
   endfacet
   facet normal 8.660253e-01 -5.000002e-01 0.000000e+00
      outer loop
         vertex -1.526452e+00 -1.463085e+01 0.000000e+00
         vertex -9.963208e-01 -1.371263e+01 0.000000e+00
         vertex -9.963208e-01 -1.371263e+01 1.600000e+01
      endloop
   endfacet
   facet normal 6.427875e-01 7.660446e-01 0.000000e+00
      outer loop
         vertex -1.342339e+00 -1.567500e+01 1.600000e+01
         vertex -5.301312e-01 -1.635652e+01 0.000000e+00
         vertex -1.342339e+00 -1.567500e+01 -1.776357e-15
      endloop
   endfacet
   facet normal -9.848078e-01 1.736481e-01 0.000000e+00
      outer loop
         vertex 1.526452e+00 -1.463085e+01 0.000000e+00
         vertex 1.342339e+00 -1.567500e+01 1.600000e+01
         vertex 1.526452e+00 -1.463085e+01 1.600000e+01
      endloop
   endfacet
   facet normal 9.848078e-01 1.736481e-01 0.000000e+00
      outer loop
         vertex -1.526452e+00 -1.463085e+01 1.600000e+01
         vertex -1.342339e+00 -1.567500e+01 1.600000e+01
         vertex -1.526452e+00 -1.463085e+01 0.000000e+00
      endloop
   endfacet
   facet normal -8.660253e-01 -5.000002e-01 0.000000e+00
      outer loop
         vertex 9.963208e-01 -1.371263e+01 1.600000e+01
         vertex 9.963208e-01 -1.371263e+01 0.000000e+00
         vertex 1.526452e+00 -1.463085e+01 0.000000e+00
      endloop
   endfacet
   facet normal 0.000000e+00 -0.000000e+00 -1.000000e+00
      outer loop
         vertex -9.963208e-01 -1.371263e+01 1.600000e+01
         vertex -1.898203e-16 -1.335000e+01 1.600000e+01
         vertex 9.963208e-01 -1.371263e+01 1.600000e+01
      endloop
   endfacet
   facet normal 0.000000e+00 0.000000e+00 -1.000000e+00
      outer loop
         vertex 1.526452e+00 -1.463085e+01 1.600000e+01
         vertex 1.342339e+00 -1.567500e+01 1.600000e+01
         vertex 9.963208e-01 -1.371263e+01 1.600000e+01
      endloop
   endfacet
   facet normal 0.000000e+00 0.000000e+00 -1.000000e+00
      outer loop
         vertex -5.301312e-01 -1.635652e+01 1.600000e+01
         vertex -1.342339e+00 -1.567500e+01 1.600000e+01
         vertex 5.301312e-01 -1.635652e+01 1.600000e+01
      endloop
   endfacet
   facet normal -0.000000e+00 0.000000e+00 -1.000000e+00
      outer loop
         vertex -9.963208e-01 -1.371263e+01 1.600000e+01
         vertex 9.963208e-01 -1.371263e+01 1.600000e+01
         vertex -1.342339e+00 -1.567500e+01 1.600000e+01
      endloop
   endfacet
   facet normal 0.000000e+00 0.000000e+00 -1.000000e+00
      outer loop
         vertex 5.301312e-01 -1.635652e+01 1.600000e+01
         vertex -1.342339e+00 -1.567500e+01 1.600000e+01
         vertex 1.342339e+00 -1.567500e+01 1.600000e+01
      endloop
   endfacet
   facet normal 0.000000e+00 0.000000e+00 -1.000000e+00
      outer loop
         vertex 1.342339e+00 -1.567500e+01 1.600000e+01
         vertex -1.342339e+00 -1.567500e+01 1.600000e+01
         vertex 9.963208e-01 -1.371263e+01 1.600000e+01
      endloop
   endfacet
   facet normal 0.000000e+00 0.000000e+00 -1.000000e+00
      outer loop
         vertex -1.342339e+00 -1.567500e+01 1.600000e+01
         vertex -1.526452e+00 -1.463085e+01 1.600000e+01
         vertex -9.963208e-01 -1.371263e+01 1.600000e+01
      endloop
   endfacet
   facet normal -9.807853e-01 1.950904e-01 0.000000e+00
      outer loop
         vertex -5.000000e+00 1.214500e+01 5.921190e-16
         vertex -5.000000e+00 1.214500e+01 1.600000e+01
         vertex -4.619398e+00 1.405842e+01 1.600000e+01
      endloop
   endfacet
   facet normal -5.555704e-01 8.314695e-01 -8.278644e-09
      outer loop
         vertex -3.535534e+00 1.568053e+01 1.600000e+01
         vertex -1.913417e+00 1.676440e+01 1.600000e+01
         vertex -3.535534e+00 1.568053e+01 0.000000e+00
      endloop
   endfacet
   facet normal 1.950901e-01 9.807853e-01 1.016152e-09
      outer loop
         vertex -8.333804e-08 1.714500e+01 1.600000e+01
         vertex 1.913417e+00 1.676440e+01 1.600000e+01
         vertex 5.671640e-14 1.714500e+01 0.000000e+00
      endloop
   endfacet
   facet normal 8.314697e-01 5.555702e-01 0.000000e+00
      outer loop
         vertex 3.535534e+00 1.568053e+01 1.600000e+01
         vertex 4.619398e+00 1.405842e+01 1.600000e+01
         vertex 4.619398e+00 1.405842e+01 0.000000e+00
      endloop
   endfacet
   facet normal 9.807853e-01 1.950904e-01 -0.000000e+00
      outer loop
         vertex 5.000000e+00 1.214500e+01 1.600000e+01
         vertex 5.000000e+00 1.214500e+01 1.184238e-15
         vertex 4.619398e+00 1.405842e+01 1.600000e+01
      endloop
   endfacet
   facet normal 5.555704e-01 8.314695e-01 0.000000e+00
      outer loop
         vertex 3.535534e+00 1.568053e+01 0.000000e+00
         vertex 1.913417e+00 1.676440e+01 0.000000e+00
         vertex 3.535534e+00 1.568053e+01 1.600000e+01
      endloop
   endfacet
   facet normal -1.950901e-01 9.807853e-01 -1.016152e-09
      outer loop
         vertex 5.671640e-14 1.714500e+01 0.000000e+00
         vertex -1.913417e+00 1.676440e+01 0.000000e+00
         vertex -8.333804e-08 1.714500e+01 1.600000e+01
      endloop
   endfacet
   facet normal -8.314697e-01 5.555702e-01 -1.238986e-08
      outer loop
         vertex -3.535534e+00 1.568053e+01 0.000000e+00
         vertex -4.619398e+00 1.405842e+01 0.000000e+00
         vertex -3.535534e+00 1.568053e+01 1.600000e+01
      endloop
   endfacet
   facet normal -9.807853e-01 1.950904e-01 0.000000e+00
      outer loop
         vertex -5.000000e+00 1.214500e+01 5.921190e-16
         vertex -4.619398e+00 1.405842e+01 1.600000e+01
         vertex -4.619398e+00 1.405842e+01 0.000000e+00
      endloop
   endfacet
   facet normal 8.314697e-01 5.555702e-01 0.000000e+00
      outer loop
         vertex 3.535534e+00 1.568053e+01 1.600000e+01
         vertex 4.619398e+00 1.405842e+01 0.000000e+00
         vertex 3.535534e+00 1.568053e+01 0.000000e+00
      endloop
   endfacet
   facet normal 5.555704e-01 8.314695e-01 4.139322e-09
      outer loop
         vertex 3.535534e+00 1.568053e+01 1.600000e+01
         vertex 1.913417e+00 1.676440e+01 0.000000e+00
         vertex 1.913417e+00 1.676440e+01 1.600000e+01
      endloop
   endfacet
   facet normal -8.314697e-01 5.555701e-01 0.000000e+00
      outer loop
         vertex -4.619398e+00 1.405842e+01 0.000000e+00
         vertex -4.619398e+00 1.405842e+01 1.600000e+01
         vertex -3.535534e+00 1.568053e+01 1.600000e+01
      endloop
   endfacet
   facet normal -1.950901e-01 9.807853e-01 -1.453534e-09
      outer loop
         vertex -1.913417e+00 1.676440e+01 1.600000e+01
         vertex -8.333804e-08 1.714500e+01 1.600000e+01
         vertex -1.913417e+00 1.676440e+01 0.000000e+00
      endloop
   endfacet
   facet normal 1.950901e-01 9.807853e-01 1.453534e-09
      outer loop
         vertex 1.913417e+00 1.676440e+01 0.000000e+00
         vertex 5.671640e-14 1.714500e+01 0.000000e+00
         vertex 1.913417e+00 1.676440e+01 1.600000e+01
      endloop
   endfacet
   facet normal -5.555704e-01 8.314695e-01 -4.139322e-09
      outer loop
         vertex -3.535534e+00 1.568053e+01 0.000000e+00
         vertex -1.913417e+00 1.676440e+01 1.600000e+01
         vertex -1.913417e+00 1.676440e+01 0.000000e+00
      endloop
   endfacet
   facet normal 9.807853e-01 1.950904e-01 -0.000000e+00
      outer loop
         vertex 5.000000e+00 1.214500e+01 1.184238e-15
         vertex 4.619398e+00 1.405842e+01 0.000000e+00
         vertex 4.619398e+00 1.405842e+01 1.600000e+01
      endloop
   endfacet
   facet normal 9.807853e-01 -1.950904e-01 0.000000e+00
      outer loop
         vertex 4.619398e+00 -1.405842e+01 0.000000e+00
         vertex 5.000000e+00 -1.214500e+01 1.184238e-15
         vertex 5.000000e+00 -1.214500e+01 1.600000e+01
      endloop
   endfacet
   facet normal 5.555704e-01 -8.314695e-01 0.000000e+00
      outer loop
         vertex 3.535534e+00 -1.568053e+01 1.600000e+01
         vertex 1.913417e+00 -1.676440e+01 0.000000e+00
         vertex 3.535534e+00 -1.568053e+01 0.000000e+00
      endloop
   endfacet
   facet normal -1.950901e-01 -9.807853e-01 6.423862e-10
      outer loop
         vertex 5.268426e-08 -1.714500e+01 1.600000e+01
         vertex -1.913417e+00 -1.676440e+01 0.000000e+00
         vertex -7.732045e-15 -1.714500e+01 0.000000e+00
      endloop
   endfacet
   facet normal -8.314697e-01 -5.555702e-01 0.000000e+00
      outer loop
         vertex -3.535534e+00 -1.568053e+01 1.600000e+01
         vertex -4.619398e+00 -1.405842e+01 0.000000e+00
         vertex -3.535534e+00 -1.568053e+01 0.000000e+00
      endloop
   endfacet
   facet normal -9.807853e-01 -1.950904e-01 -0.000000e+00
      outer loop
         vertex -4.619398e+00 -1.405842e+01 1.600000e+01
         vertex -5.000000e+00 -1.214500e+01 1.600000e+01
         vertex -5.000000e+00 -1.214500e+01 5.921190e-16
      endloop
   endfacet
   facet normal -5.555704e-01 -8.314695e-01 0.000000e+00
      outer loop
         vertex -3.535534e+00 -1.568053e+01 0.000000e+00
         vertex -1.913417e+00 -1.676440e+01 1.600000e+01
         vertex -3.535534e+00 -1.568053e+01 1.600000e+01
      endloop
   endfacet
   facet normal 1.950901e-01 -9.807853e-01 -6.423862e-10
      outer loop
         vertex -7.732045e-15 -1.714500e+01 0.000000e+00
         vertex 1.913417e+00 -1.676440e+01 1.600000e+01
         vertex 5.268426e-08 -1.714500e+01 1.600000e+01
      endloop
   endfacet
   facet normal 8.314697e-01 -5.555702e-01 0.000000e+00
      outer loop
         vertex 3.535534e+00 -1.568053e+01 0.000000e+00
         vertex 4.619398e+00 -1.405842e+01 1.600000e+01
         vertex 3.535534e+00 -1.568053e+01 1.600000e+01
      endloop
   endfacet
   facet normal 9.807853e-01 -1.950904e-01 0.000000e+00
      outer loop
         vertex 4.619398e+00 -1.405842e+01 1.600000e+01
         vertex 4.619398e+00 -1.405842e+01 0.000000e+00
         vertex 5.000000e+00 -1.214500e+01 1.600000e+01
      endloop
   endfacet
   facet normal -8.314697e-01 -5.555702e-01 0.000000e+00
      outer loop
         vertex -4.619398e+00 -1.405842e+01 1.600000e+01
         vertex -4.619398e+00 -1.405842e+01 0.000000e+00
         vertex -3.535534e+00 -1.568053e+01 1.600000e+01
      endloop
   endfacet
   facet normal 1.950901e-01 -9.807853e-01 0.000000e+00
      outer loop
         vertex 1.913417e+00 -1.676440e+01 0.000000e+00
         vertex 1.913417e+00 -1.676440e+01 1.600000e+01
         vertex -7.732045e-15 -1.714500e+01 0.000000e+00
      endloop
   endfacet
   facet normal -9.807853e-01 -1.950904e-01 0.000000e+00
      outer loop
         vertex -5.000000e+00 -1.214500e+01 5.921190e-16
         vertex -4.619398e+00 -1.405842e+01 0.000000e+00
         vertex -4.619398e+00 -1.405842e+01 1.600000e+01
      endloop
   endfacet
   facet normal 8.314697e-01 -5.555702e-01 0.000000e+00
      outer loop
         vertex 4.619398e+00 -1.405842e+01 1.600000e+01
         vertex 3.535534e+00 -1.568053e+01 0.000000e+00
         vertex 4.619398e+00 -1.405842e+01 0.000000e+00
      endloop
   endfacet
   facet normal -1.950901e-01 -9.807853e-01 1.453535e-09
      outer loop
         vertex -1.913417e+00 -1.676440e+01 0.000000e+00
         vertex 5.268426e-08 -1.714500e+01 1.600000e+01
         vertex -1.913417e+00 -1.676440e+01 1.600000e+01
      endloop
   endfacet
   facet normal 5.555704e-01 -8.314695e-01 0.000000e+00
      outer loop
         vertex 1.913417e+00 -1.676440e+01 1.600000e+01
         vertex 1.913417e+00 -1.676440e+01 0.000000e+00
         vertex 3.535534e+00 -1.568053e+01 1.600000e+01
      endloop
   endfacet
   facet normal -5.555704e-01 -8.314695e-01 4.139322e-09
      outer loop
         vertex -1.913417e+00 -1.676440e+01 1.600000e+01
         vertex -3.535534e+00 -1.568053e+01 0.000000e+00
         vertex -1.913417e+00 -1.676440e+01 0.000000e+00
      endloop
   endfacet
   facet normal -2.588193e-01 0.000000e+00 9.659258e-01
      outer loop
         vertex -3.500000e+00 -1.214500e+01 1.859808e+01
         vertex -2.000000e+00 -1.214500e+01 1.900000e+01
         vertex -2.000000e+00 1.214500e+01 1.900000e+01
      endloop
   endfacet
   facet normal -7.071066e-01 0.000000e+00 7.071069e-01
      outer loop
         vertex -3.500000e+00 1.214500e+01 1.859808e+01
         vertex -4.598076e+00 1.214500e+01 1.750000e+01
         vertex -3.500000e+00 -1.214500e+01 1.859808e+01
      endloop
   endfacet
   facet normal -9.659258e-01 0.000000e+00 2.588190e-01
      outer loop
         vertex -5.000000e+00 1.214500e+01 1.600000e+01
         vertex -5.000000e+00 -1.214500e+01 1.600000e+01
         vertex -4.598076e+00 1.214500e+01 1.750000e+01
      endloop
   endfacet
   facet normal -2.588193e-01 0.000000e+00 9.659258e-01
      outer loop
         vertex -3.500000e+00 -1.214500e+01 1.859808e+01
         vertex -2.000000e+00 1.214500e+01 1.900000e+01
         vertex -3.500000e+00 1.214500e+01 1.859808e+01
      endloop
   endfacet
   facet normal -9.659258e-01 0.000000e+00 2.588190e-01
      outer loop
         vertex -5.000000e+00 -1.214500e+01 1.600000e+01
         vertex -4.598076e+00 -1.214500e+01 1.750000e+01
         vertex -4.598076e+00 1.214500e+01 1.750000e+01
      endloop
   endfacet
   facet normal -7.071066e-01 0.000000e+00 7.071069e-01
      outer loop
         vertex -3.500000e+00 -1.214500e+01 1.859808e+01
         vertex -4.598076e+00 1.214500e+01 1.750000e+01
         vertex -4.598076e+00 -1.214500e+01 1.750000e+01
      endloop
   endfacet
   facet normal -4.681398e-01 -3.128010e-01 8.264386e-01
      outer loop
         vertex -2.914214e+00 -1.505921e+01 1.812132e+01
         vertex -2.226008e+00 -1.437101e+01 1.877164e+01
         vertex -2.908419e+00 -1.334970e+01 1.877164e+01
      endloop
   endfacet
   facet normal -4.681397e-01 -3.128010e-01 8.264386e-01
      outer loop
         vertex -3.807604e+00 -1.372216e+01 1.812132e+01
         vertex -2.914214e+00 -1.505921e+01 1.812132e+01
         vertex -2.908419e+00 -1.334970e+01 1.877164e+01
      endloop
   endfacet
   facet normal -3.128009e-01 -4.681398e-01 8.264386e-01
      outer loop
         vertex -1.577161e+00 -1.595260e+01 1.812132e+01
         vertex -1.204707e+00 -1.505342e+01 1.877164e+01
         vertex -2.226008e+00 -1.437101e+01 1.877164e+01
      endloop
   endfacet
   facet normal -3.128009e-01 -4.681398e-01 8.264385e-01
      outer loop
         vertex -2.914214e+00 -1.505921e+01 1.812132e+01
         vertex -1.577161e+00 -1.595260e+01 1.812132e+01
         vertex -2.226008e+00 -1.437101e+01 1.877164e+01
      endloop
   endfacet
   facet normal -1.098413e-01 -5.522083e-01 8.264386e-01
      outer loop
         vertex 6.590215e-08 -1.626632e+01 1.812132e+01
         vertex 2.218717e-08 -1.529305e+01 1.877164e+01
         vertex -1.204707e+00 -1.505342e+01 1.877164e+01
      endloop
   endfacet
   facet normal -1.098414e-01 -5.522084e-01 8.264386e-01
      outer loop
         vertex -1.577161e+00 -1.595260e+01 1.812132e+01
         vertex 6.590215e-08 -1.626632e+01 1.812132e+01
         vertex -1.204707e+00 -1.505342e+01 1.877164e+01
      endloop
   endfacet
   facet normal 1.098414e-01 -5.522084e-01 8.264386e-01
      outer loop
         vertex 1.577161e+00 -1.595260e+01 1.812132e+01
         vertex 1.204707e+00 -1.505342e+01 1.877164e+01
         vertex 2.218717e-08 -1.529305e+01 1.877164e+01
      endloop
   endfacet
   facet normal 1.098414e-01 -5.522083e-01 8.264386e-01
      outer loop
         vertex 6.590215e-08 -1.626632e+01 1.812132e+01
         vertex 1.577161e+00 -1.595260e+01 1.812132e+01
         vertex 2.218717e-08 -1.529305e+01 1.877164e+01
      endloop
   endfacet
   facet normal 3.128009e-01 -4.681398e-01 8.264385e-01
      outer loop
         vertex 2.914214e+00 -1.505921e+01 1.812132e+01
         vertex 2.226008e+00 -1.437101e+01 1.877164e+01
         vertex 1.204707e+00 -1.505342e+01 1.877164e+01
      endloop
   endfacet
   facet normal 3.128009e-01 -4.681398e-01 8.264386e-01
      outer loop
         vertex 1.577161e+00 -1.595260e+01 1.812132e+01
         vertex 2.914214e+00 -1.505921e+01 1.812132e+01
         vertex 1.204707e+00 -1.505342e+01 1.877164e+01
      endloop
   endfacet
   facet normal 4.681397e-01 -3.128008e-01 8.264387e-01
      outer loop
         vertex 3.807604e+00 -1.372216e+01 1.812132e+01
         vertex 2.908419e+00 -1.334970e+01 1.877164e+01
         vertex 2.226008e+00 -1.437101e+01 1.877164e+01
      endloop
   endfacet
   facet normal 4.681397e-01 -3.128010e-01 8.264386e-01
      outer loop
         vertex 2.914214e+00 -1.505921e+01 1.812132e+01
         vertex 3.807604e+00 -1.372216e+01 1.812132e+01
         vertex 2.226008e+00 -1.437101e+01 1.877164e+01
      endloop
   endfacet
   facet normal -6.954387e-01 -4.646773e-01 5.481241e-01
      outer loop
         vertex -3.374058e+00 -1.551906e+01 1.714805e+01
         vertex -2.914214e+00 -1.505921e+01 1.812132e+01
         vertex -3.807604e+00 -1.372216e+01 1.812132e+01
      endloop
   endfacet
   facet normal -6.954388e-01 -4.646773e-01 5.481240e-01
      outer loop
         vertex -4.408419e+00 -1.397103e+01 1.714805e+01
         vertex -3.374058e+00 -1.551906e+01 1.714805e+01
         vertex -3.807604e+00 -1.372216e+01 1.812132e+01
      endloop
   endfacet
   facet normal -4.646772e-01 -6.954388e-01 5.481241e-01
      outer loop
         vertex -1.826027e+00 -1.655342e+01 1.714805e+01
         vertex -1.577161e+00 -1.595260e+01 1.812132e+01
         vertex -2.914214e+00 -1.505921e+01 1.812132e+01
      endloop
   endfacet
   facet normal -4.646772e-01 -6.954388e-01 5.481241e-01
      outer loop
         vertex -3.374058e+00 -1.551906e+01 1.714805e+01
         vertex -1.826027e+00 -1.655342e+01 1.714805e+01
         vertex -2.914214e+00 -1.505921e+01 1.812132e+01
      endloop
   endfacet
   facet normal -1.631735e-01 -8.203259e-01 5.481239e-01
      outer loop
         vertex 9.511156e-08 -1.691664e+01 1.714805e+01
         vertex 6.590215e-08 -1.626632e+01 1.812132e+01
         vertex -1.577161e+00 -1.595260e+01 1.812132e+01
      endloop
   endfacet
   facet normal -1.631733e-01 -8.203258e-01 5.481241e-01
      outer loop
         vertex -1.826027e+00 -1.655342e+01 1.714805e+01
         vertex 9.511156e-08 -1.691664e+01 1.714805e+01
         vertex -1.577161e+00 -1.595260e+01 1.812132e+01
      endloop
   endfacet
   facet normal 1.631735e-01 -8.203258e-01 5.481241e-01
      outer loop
         vertex 1.826027e+00 -1.655342e+01 1.714805e+01
         vertex 1.577161e+00 -1.595260e+01 1.812132e+01
         vertex 6.590215e-08 -1.626632e+01 1.812132e+01
      endloop
   endfacet
   facet normal 1.631733e-01 -8.203259e-01 5.481240e-01
      outer loop
         vertex 9.511156e-08 -1.691664e+01 1.714805e+01
         vertex 1.826027e+00 -1.655342e+01 1.714805e+01
         vertex 6.590215e-08 -1.626632e+01 1.812132e+01
      endloop
   endfacet
   facet normal 4.646772e-01 -6.954388e-01 5.481241e-01
      outer loop
         vertex 3.374058e+00 -1.551906e+01 1.714805e+01
         vertex 2.914214e+00 -1.505921e+01 1.812132e+01
         vertex 1.577161e+00 -1.595260e+01 1.812132e+01
      endloop
   endfacet
   facet normal 4.646772e-01 -6.954388e-01 5.481241e-01
      outer loop
         vertex 1.826027e+00 -1.655342e+01 1.714805e+01
         vertex 3.374058e+00 -1.551906e+01 1.714805e+01
         vertex 1.577161e+00 -1.595260e+01 1.812132e+01
      endloop
   endfacet
   facet normal 6.954389e-01 -4.646775e-01 5.481236e-01
      outer loop
         vertex 4.408419e+00 -1.397102e+01 1.714805e+01
         vertex 3.807604e+00 -1.372216e+01 1.812132e+01
         vertex 2.914214e+00 -1.505921e+01 1.812132e+01
      endloop
   endfacet
   facet normal 6.954389e-01 -4.646771e-01 5.481240e-01
      outer loop
         vertex 3.374058e+00 -1.551906e+01 1.714805e+01
         vertex 4.408419e+00 -1.397102e+01 1.714805e+01
         vertex 2.914214e+00 -1.505921e+01 1.812132e+01
      endloop
   endfacet
   facet normal 2.588004e-01 1.206552e-02 9.658555e-01
      outer loop
         vertex 2.908419e+00 -1.334970e+01 1.877164e+01
         vertex 3.500000e+00 -1.214500e+01 1.859808e+01
         vertex 2.000000e+00 -1.214500e+01 1.900000e+01
      endloop
   endfacet
   facet normal 9.552098e-01 -1.485429e-01 2.559476e-01
      outer loop
         vertex 4.408419e+00 -1.397102e+01 1.714805e+01
         vertex 5.000000e+00 -1.214500e+01 1.600000e+01
         vertex 4.598076e+00 -1.214500e+01 1.750000e+01
      endloop
   endfacet
   facet normal 8.160845e-01 -5.452901e-01 1.914806e-01
      outer loop
         vertex 3.374058e+00 -1.551906e+01 1.714805e+01
         vertex 3.535534e+00 -1.568053e+01 1.600000e+01
         vertex 4.619398e+00 -1.405842e+01 1.600000e+01
      endloop
   endfacet
   facet normal 1.914802e-01 -9.626373e-01 1.914802e-01
      outer loop
         vertex 9.511156e-08 -1.691664e+01 1.714805e+01
         vertex 5.268426e-08 -1.714500e+01 1.600000e+01
         vertex 1.913417e+00 -1.676440e+01 1.600000e+01
      endloop
   endfacet
   facet normal -5.452903e-01 -8.160843e-01 1.914806e-01
      outer loop
         vertex -3.374058e+00 -1.551906e+01 1.714805e+01
         vertex -3.535534e+00 -1.568053e+01 1.600000e+01
         vertex -1.913417e+00 -1.676440e+01 1.600000e+01
      endloop
   endfacet
   facet normal -9.626372e-01 -1.914805e-01 1.914805e-01
      outer loop
         vertex -4.408419e+00 -1.397103e+01 1.714805e+01
         vertex -5.000000e+00 -1.214500e+01 1.600000e+01
         vertex -4.619398e+00 -1.405842e+01 1.600000e+01
      endloop
   endfacet
   facet normal -7.050819e-01 -7.562060e-02 7.050822e-01
      outer loop
         vertex -3.807604e+00 -1.372216e+01 1.812132e+01
         vertex -3.500000e+00 -1.214500e+01 1.859808e+01
         vertex -4.598076e+00 -1.214500e+01 1.750000e+01
      endloop
   endfacet
   facet normal -1.727596e-01 -5.613298e-02 9.833632e-01
      outer loop
         vertex -2.908419e+00 -1.334970e+01 1.877164e+01
         vertex -1.618034e+00 -1.332057e+01 1.900000e+01
         vertex -2.000000e+00 -1.214500e+01 1.900000e+01
      endloop
   endfacet
   facet normal 0.000000e+00 -1.802815e-01 9.836151e-01
      outer loop
         vertex 2.218717e-08 -1.529305e+01 1.877164e+01
         vertex 6.180339e-01 -1.404711e+01 1.900000e+01
         vertex -6.180341e-01 -1.404711e+01 1.900000e+01
      endloop
   endfacet
   facet normal 1.727596e-01 -5.613302e-02 9.833632e-01
      outer loop
         vertex 2.908419e+00 -1.334970e+01 1.877164e+01
         vertex 2.000000e+00 -1.214500e+01 1.900000e+01
         vertex 1.618034e+00 -1.332057e+01 1.900000e+01
      endloop
   endfacet
   facet normal -3.960636e-02 -1.991141e-01 9.791756e-01
      outer loop
         vertex -6.180341e-01 -1.404711e+01 1.900000e+01
         vertex -1.204707e+00 -1.505342e+01 1.877164e+01
         vertex 2.218717e-08 -1.529305e+01 1.877164e+01
      endloop
   endfacet
   facet normal 1.706305e-01 -1.140116e-01 9.787168e-01
      outer loop
         vertex 1.618034e+00 -1.332057e+01 1.900000e+01
         vertex 2.226008e+00 -1.437101e+01 1.877164e+01
         vertex 2.908419e+00 -1.334970e+01 1.877164e+01
      endloop
   endfacet
   facet normal 5.395286e-01 -1.454610e-01 8.293069e-01
      outer loop
         vertex 3.500000e+00 -1.214500e+01 1.859808e+01
         vertex 2.908419e+00 -1.334970e+01 1.877164e+01
         vertex 3.807604e+00 -1.372216e+01 1.812132e+01
      endloop
   endfacet
   facet normal 8.128170e-01 -1.905222e-01 5.504815e-01
      outer loop
         vertex 4.598076e+00 -1.214500e+01 1.750000e+01
         vertex 3.807604e+00 -1.372216e+01 1.812132e+01
         vertex 4.408419e+00 -1.397102e+01 1.714805e+01
      endloop
   endfacet
   facet normal -5.452900e-01 -8.160844e-01 1.914811e-01
      outer loop
         vertex -1.913417e+00 -1.676440e+01 1.600000e+01
         vertex -1.826027e+00 -1.655342e+01 1.714805e+01
         vertex -3.374058e+00 -1.551906e+01 1.714805e+01
      endloop
   endfacet
   facet normal 1.914809e-01 -9.626370e-01 1.914813e-01
      outer loop
         vertex 1.913417e+00 -1.676440e+01 1.600000e+01
         vertex 1.826027e+00 -1.655342e+01 1.714805e+01
         vertex 9.511156e-08 -1.691664e+01 1.714805e+01
      endloop
   endfacet
   facet normal 8.160845e-01 -5.452899e-01 1.914809e-01
      outer loop
         vertex 4.619398e+00 -1.405842e+01 1.600000e+01
         vertex 4.408419e+00 -1.397102e+01 1.714805e+01
         vertex 3.374058e+00 -1.551906e+01 1.714805e+01
      endloop
   endfacet
   facet normal 5.452901e-01 -8.160845e-01 1.914806e-01
      outer loop
         vertex 1.826027e+00 -1.655342e+01 1.714805e+01
         vertex 3.535534e+00 -1.568053e+01 1.600000e+01
         vertex 3.374058e+00 -1.551906e+01 1.714805e+01
      endloop
   endfacet
   facet normal -8.160845e-01 -5.452901e-01 1.914804e-01
      outer loop
         vertex -3.535534e+00 -1.568053e+01 1.600000e+01
         vertex -4.408419e+00 -1.397103e+01 1.714805e+01
         vertex -4.619398e+00 -1.405842e+01 1.600000e+01
      endloop
   endfacet
   facet normal -5.395287e-01 -1.454610e-01 8.293069e-01
      outer loop
         vertex -2.908419e+00 -1.334970e+01 1.877164e+01
         vertex -3.500000e+00 -1.214500e+01 1.859808e+01
         vertex -3.807604e+00 -1.372216e+01 1.812132e+01
      endloop
   endfacet
   facet normal 3.960636e-02 -1.991141e-01 9.791756e-01
      outer loop
         vertex 1.204707e+00 -1.505342e+01 1.877164e+01
         vertex 6.180339e-01 -1.404711e+01 1.900000e+01
         vertex 2.218717e-08 -1.529305e+01 1.877164e+01
      endloop
   endfacet
   facet normal 7.050819e-01 -7.562060e-02 7.050822e-01
      outer loop
         vertex 4.598076e+00 -1.214500e+01 1.750000e+01
         vertex 3.500000e+00 -1.214500e+01 1.859808e+01
         vertex 3.807604e+00 -1.372216e+01 1.812132e+01
      endloop
   endfacet
   facet normal 9.626372e-01 -1.914805e-01 1.914806e-01
      outer loop
         vertex 5.000000e+00 -1.214500e+01 1.600000e+01
         vertex 4.408419e+00 -1.397102e+01 1.714805e+01
         vertex 4.619398e+00 -1.405842e+01 1.600000e+01
      endloop
   endfacet
   facet normal 1.070760e-01 -1.602506e-01 9.812515e-01
      outer loop
         vertex 2.226008e+00 -1.437101e+01 1.877164e+01
         vertex 6.180339e-01 -1.404711e+01 1.900000e+01
         vertex 1.204707e+00 -1.505342e+01 1.877164e+01
      endloop
   endfacet
   facet normal 5.452903e-01 -8.160842e-01 1.914811e-01
      outer loop
         vertex 1.826027e+00 -1.655342e+01 1.714805e+01
         vertex 1.913417e+00 -1.676440e+01 1.600000e+01
         vertex 3.535534e+00 -1.568053e+01 1.600000e+01
      endloop
   endfacet
   facet normal -9.552098e-01 -1.485428e-01 2.559476e-01
      outer loop
         vertex -4.408419e+00 -1.397103e+01 1.714805e+01
         vertex -4.598076e+00 -1.214500e+01 1.750000e+01
         vertex -5.000000e+00 -1.214500e+01 1.600000e+01
      endloop
   endfacet
   facet normal -1.092532e-01 -1.503742e-01 9.825738e-01
      outer loop
         vertex -2.226008e+00 -1.437101e+01 1.877164e+01
         vertex -6.180341e-01 -1.404711e+01 1.900000e+01
         vertex -1.618034e+00 -1.332057e+01 1.900000e+01
      endloop
   endfacet
   facet normal -1.706305e-01 -1.140116e-01 9.787168e-01
      outer loop
         vertex -1.618034e+00 -1.332057e+01 1.900000e+01
         vertex -2.908419e+00 -1.334970e+01 1.877164e+01
         vertex -2.226008e+00 -1.437101e+01 1.877164e+01
      endloop
   endfacet
   facet normal -8.128169e-01 -1.905221e-01 5.504816e-01
      outer loop
         vertex -4.598076e+00 -1.214500e+01 1.750000e+01
         vertex -4.408419e+00 -1.397103e+01 1.714805e+01
         vertex -3.807604e+00 -1.372216e+01 1.812132e+01
      endloop
   endfacet
   facet normal -1.914809e-01 -9.626372e-01 1.914802e-01
      outer loop
         vertex 5.268426e-08 -1.714500e+01 1.600000e+01
         vertex 9.511156e-08 -1.691664e+01 1.714805e+01
         vertex -1.826027e+00 -1.655342e+01 1.714805e+01
      endloop
   endfacet
   facet normal -2.588004e-01 1.206557e-02 9.658555e-01
      outer loop
         vertex -3.500000e+00 -1.214500e+01 1.859808e+01
         vertex -2.908419e+00 -1.334970e+01 1.877164e+01
         vertex -2.000000e+00 -1.214500e+01 1.900000e+01
      endloop
   endfacet
   facet normal -1.914802e-01 -9.626371e-01 1.914813e-01
      outer loop
         vertex 5.268426e-08 -1.714500e+01 1.600000e+01
         vertex -1.826027e+00 -1.655342e+01 1.714805e+01
         vertex -1.913417e+00 -1.676440e+01 1.600000e+01
      endloop
   endfacet
   facet normal -1.070760e-01 -1.602506e-01 9.812515e-01
      outer loop
         vertex -1.204707e+00 -1.505342e+01 1.877164e+01
         vertex -6.180341e-01 -1.404711e+01 1.900000e+01
         vertex -2.226008e+00 -1.437101e+01 1.877164e+01
      endloop
   endfacet
   facet normal 1.092532e-01 -1.503742e-01 9.825738e-01
      outer loop
         vertex 2.226008e+00 -1.437101e+01 1.877164e+01
         vertex 1.618034e+00 -1.332057e+01 1.900000e+01
         vertex 6.180339e-01 -1.404711e+01 1.900000e+01
      endloop
   endfacet
   facet normal -8.160844e-01 -5.452902e-01 1.914806e-01
      outer loop
         vertex -4.408419e+00 -1.397103e+01 1.714805e+01
         vertex -3.535534e+00 -1.568053e+01 1.600000e+01
         vertex -3.374058e+00 -1.551906e+01 1.714805e+01
      endloop
   endfacet
   facet normal 2.588193e-01 0.000000e+00 9.659258e-01
      outer loop
         vertex 3.500000e+00 1.214500e+01 1.859808e+01
         vertex 2.000000e+00 1.214500e+01 1.900000e+01
         vertex 2.000000e+00 -1.214500e+01 1.900000e+01
      endloop
   endfacet
   facet normal 7.071066e-01 0.000000e+00 7.071069e-01
      outer loop
         vertex 3.500000e+00 -1.214500e+01 1.859808e+01
         vertex 4.598076e+00 -1.214500e+01 1.750000e+01
         vertex 3.500000e+00 1.214500e+01 1.859808e+01
      endloop
   endfacet
   facet normal 9.659258e-01 0.000000e+00 2.588190e-01
      outer loop
         vertex 5.000000e+00 -1.214500e+01 1.600000e+01
         vertex 5.000000e+00 1.214500e+01 1.600000e+01
         vertex 4.598076e+00 -1.214500e+01 1.750000e+01
      endloop
   endfacet
   facet normal 2.588193e-01 0.000000e+00 9.659258e-01
      outer loop
         vertex 3.500000e+00 1.214500e+01 1.859808e+01
         vertex 2.000000e+00 -1.214500e+01 1.900000e+01
         vertex 3.500000e+00 -1.214500e+01 1.859808e+01
      endloop
   endfacet
   facet normal 9.659258e-01 0.000000e+00 2.588190e-01
      outer loop
         vertex 5.000000e+00 1.214500e+01 1.600000e+01
         vertex 4.598076e+00 1.214500e+01 1.750000e+01
         vertex 4.598076e+00 -1.214500e+01 1.750000e+01
      endloop
   endfacet
   facet normal 7.071066e-01 -0.000000e+00 7.071069e-01
      outer loop
         vertex 3.500000e+00 1.214500e+01 1.859808e+01
         vertex 4.598076e+00 -1.214500e+01 1.750000e+01
         vertex 4.598076e+00 1.214500e+01 1.750000e+01
      endloop
   endfacet
   facet normal 4.681399e-01 3.128010e-01 8.264385e-01
      outer loop
         vertex 2.914213e+00 1.505921e+01 1.812132e+01
         vertex 2.226008e+00 1.437101e+01 1.877164e+01
         vertex 2.908419e+00 1.334970e+01 1.877164e+01
      endloop
   endfacet
   facet normal 4.681397e-01 3.128010e-01 8.264386e-01
      outer loop
         vertex 3.807603e+00 1.372216e+01 1.812132e+01
         vertex 2.914213e+00 1.505921e+01 1.812132e+01
         vertex 2.908419e+00 1.334970e+01 1.877164e+01
      endloop
   endfacet
   facet normal 3.128008e-01 4.681398e-01 8.264386e-01
      outer loop
         vertex 1.577161e+00 1.595260e+01 1.812132e+01
         vertex 1.204707e+00 1.505342e+01 1.877164e+01
         vertex 2.226008e+00 1.437101e+01 1.877164e+01
      endloop
   endfacet
   facet normal 3.128010e-01 4.681399e-01 8.264385e-01
      outer loop
         vertex 2.914213e+00 1.505921e+01 1.812132e+01
         vertex 1.577161e+00 1.595260e+01 1.812132e+01
         vertex 2.226008e+00 1.437101e+01 1.877164e+01
      endloop
   endfacet
   facet normal 1.098413e-01 5.522083e-01 8.264386e-01
      outer loop
         vertex -1.583345e-07 1.626632e+01 1.812132e+01
         vertex -1.490949e-07 1.529305e+01 1.877164e+01
         vertex 1.204707e+00 1.505342e+01 1.877164e+01
      endloop
   endfacet
   facet normal 1.098414e-01 5.522084e-01 8.264386e-01
      outer loop
         vertex 1.577161e+00 1.595260e+01 1.812132e+01
         vertex -1.583345e-07 1.626632e+01 1.812132e+01
         vertex 1.204707e+00 1.505342e+01 1.877164e+01
      endloop
   endfacet
   facet normal -1.098414e-01 5.522084e-01 8.264386e-01
      outer loop
         vertex -1.577161e+00 1.595260e+01 1.812132e+01
         vertex -1.204707e+00 1.505342e+01 1.877164e+01
         vertex -1.490949e-07 1.529305e+01 1.877164e+01
      endloop
   endfacet
   facet normal -1.098414e-01 5.522083e-01 8.264386e-01
      outer loop
         vertex -1.583345e-07 1.626632e+01 1.812132e+01
         vertex -1.577161e+00 1.595260e+01 1.812132e+01
         vertex -1.490949e-07 1.529305e+01 1.877164e+01
      endloop
   endfacet
   facet normal -3.128009e-01 4.681399e-01 8.264385e-01
      outer loop
         vertex -2.914214e+00 1.505921e+01 1.812132e+01
         vertex -2.226008e+00 1.437101e+01 1.877164e+01
         vertex -1.204707e+00 1.505342e+01 1.877164e+01
      endloop
   endfacet
   facet normal -3.128010e-01 4.681398e-01 8.264386e-01
      outer loop
         vertex -1.577161e+00 1.595260e+01 1.812132e+01
         vertex -2.914214e+00 1.505921e+01 1.812132e+01
         vertex -1.204707e+00 1.505342e+01 1.877164e+01
      endloop
   endfacet
   facet normal -4.681398e-01 3.128009e-01 8.264386e-01
      outer loop
         vertex -3.807604e+00 1.372216e+01 1.812132e+01
         vertex -2.908419e+00 1.334970e+01 1.877164e+01
         vertex -2.226008e+00 1.437101e+01 1.877164e+01
      endloop
   endfacet
   facet normal -4.681398e-01 3.128011e-01 8.264385e-01
      outer loop
         vertex -2.914214e+00 1.505921e+01 1.812132e+01
         vertex -3.807604e+00 1.372216e+01 1.812132e+01
         vertex -2.226008e+00 1.437101e+01 1.877164e+01
      endloop
   endfacet
   facet normal 6.954386e-01 4.646773e-01 5.481242e-01
      outer loop
         vertex 3.374058e+00 1.551906e+01 1.714805e+01
         vertex 2.914213e+00 1.505921e+01 1.812132e+01
         vertex 3.807603e+00 1.372216e+01 1.812132e+01
      endloop
   endfacet
   facet normal 6.954387e-01 4.646773e-01 5.481241e-01
      outer loop
         vertex 4.408419e+00 1.397103e+01 1.714805e+01
         vertex 3.374058e+00 1.551906e+01 1.714805e+01
         vertex 3.807603e+00 1.372216e+01 1.812132e+01
      endloop
   endfacet
   facet normal 4.646772e-01 6.954388e-01 5.481241e-01
      outer loop
         vertex 1.826027e+00 1.655342e+01 1.714805e+01
         vertex 1.577161e+00 1.595260e+01 1.812132e+01
         vertex 2.914213e+00 1.505921e+01 1.812132e+01
      endloop
   endfacet
   facet normal 4.646771e-01 6.954388e-01 5.481242e-01
      outer loop
         vertex 3.374058e+00 1.551906e+01 1.714805e+01
         vertex 1.826027e+00 1.655342e+01 1.714805e+01
         vertex 2.914213e+00 1.505921e+01 1.812132e+01
      endloop
   endfacet
   facet normal 1.631735e-01 8.203259e-01 5.481239e-01
      outer loop
         vertex -1.645082e-07 1.691664e+01 1.714805e+01
         vertex -1.583345e-07 1.626632e+01 1.812132e+01
         vertex 1.577161e+00 1.595260e+01 1.812132e+01
      endloop
   endfacet
   facet normal 1.631733e-01 8.203258e-01 5.481241e-01
      outer loop
         vertex 1.826027e+00 1.655342e+01 1.714805e+01
         vertex -1.645082e-07 1.691664e+01 1.714805e+01
         vertex 1.577161e+00 1.595260e+01 1.812132e+01
      endloop
   endfacet
   facet normal -1.631735e-01 8.203258e-01 5.481241e-01
      outer loop
         vertex -1.826027e+00 1.655342e+01 1.714805e+01
         vertex -1.577161e+00 1.595260e+01 1.812132e+01
         vertex -1.583345e-07 1.626632e+01 1.812132e+01
      endloop
   endfacet
   facet normal -1.631733e-01 8.203259e-01 5.481239e-01
      outer loop
         vertex -1.645082e-07 1.691664e+01 1.714805e+01
         vertex -1.826027e+00 1.655342e+01 1.714805e+01
         vertex -1.583345e-07 1.626632e+01 1.812132e+01
      endloop
   endfacet
   facet normal -4.646772e-01 6.954387e-01 5.481242e-01
      outer loop
         vertex -3.374058e+00 1.551906e+01 1.714805e+01
         vertex -2.914214e+00 1.505921e+01 1.812132e+01
         vertex -1.577161e+00 1.595260e+01 1.812132e+01
      endloop
   endfacet
   facet normal -4.646772e-01 6.954388e-01 5.481241e-01
      outer loop
         vertex -1.826027e+00 1.655342e+01 1.714805e+01
         vertex -3.374058e+00 1.551906e+01 1.714805e+01
         vertex -1.577161e+00 1.595260e+01 1.812132e+01
      endloop
   endfacet
   facet normal -6.954386e-01 4.646773e-01 5.481242e-01
      outer loop
         vertex -4.408420e+00 1.397103e+01 1.714805e+01
         vertex -3.807604e+00 1.372216e+01 1.812132e+01
         vertex -2.914214e+00 1.505921e+01 1.812132e+01
      endloop
   endfacet
   facet normal -6.954386e-01 4.646773e-01 5.481242e-01
      outer loop
         vertex -3.374058e+00 1.551906e+01 1.714805e+01
         vertex -4.408420e+00 1.397103e+01 1.714805e+01
         vertex -2.914214e+00 1.505921e+01 1.812132e+01
      endloop
   endfacet
   facet normal -2.588004e-01 -1.206557e-02 9.658555e-01
      outer loop
         vertex -2.908419e+00 1.334970e+01 1.877164e+01
         vertex -3.500000e+00 1.214500e+01 1.859808e+01
         vertex -2.000000e+00 1.214500e+01 1.900000e+01
      endloop
   endfacet
   facet normal -9.552099e-01 1.485425e-01 2.559476e-01
      outer loop
         vertex -4.408420e+00 1.397103e+01 1.714805e+01
         vertex -5.000000e+00 1.214500e+01 1.600000e+01
         vertex -4.598076e+00 1.214500e+01 1.750000e+01
      endloop
   endfacet
   facet normal -8.160846e-01 5.452901e-01 1.914801e-01
      outer loop
         vertex -4.408420e+00 1.397103e+01 1.714805e+01
         vertex -3.535534e+00 1.568053e+01 1.600000e+01
         vertex -4.619398e+00 1.405842e+01 1.600000e+01
      endloop
   endfacet
   facet normal -1.914802e-01 9.626371e-01 1.914813e-01
      outer loop
         vertex -1.826027e+00 1.655342e+01 1.714805e+01
         vertex -8.333804e-08 1.714500e+01 1.600000e+01
         vertex -1.913417e+00 1.676440e+01 1.600000e+01
      endloop
   endfacet
   facet normal 5.452903e-01 8.160843e-01 1.914806e-01
      outer loop
         vertex 3.374058e+00 1.551906e+01 1.714805e+01
         vertex 3.535534e+00 1.568053e+01 1.600000e+01
         vertex 1.913417e+00 1.676440e+01 1.600000e+01
      endloop
   endfacet
   facet normal 9.626372e-01 1.914805e-01 1.914805e-01
      outer loop
         vertex 4.408419e+00 1.397103e+01 1.714805e+01
         vertex 5.000000e+00 1.214500e+01 1.600000e+01
         vertex 4.619398e+00 1.405842e+01 1.600000e+01
      endloop
   endfacet
   facet normal 7.050819e-01 7.562070e-02 7.050822e-01
      outer loop
         vertex 3.807603e+00 1.372216e+01 1.812132e+01
         vertex 3.500000e+00 1.214500e+01 1.859808e+01
         vertex 4.598076e+00 1.214500e+01 1.750000e+01
      endloop
   endfacet
   facet normal 1.727596e-01 5.613302e-02 9.833632e-01
      outer loop
         vertex 2.908419e+00 1.334970e+01 1.877164e+01
         vertex 1.618034e+00 1.332057e+01 1.900000e+01
         vertex 2.000000e+00 1.214500e+01 1.900000e+01
      endloop
   endfacet
   facet normal -0.000000e+00 1.802815e-01 9.836151e-01
      outer loop
         vertex -1.490949e-07 1.529305e+01 1.877164e+01
         vertex -6.180341e-01 1.404711e+01 1.900000e+01
         vertex 6.180339e-01 1.404711e+01 1.900000e+01
      endloop
   endfacet
   facet normal -1.727596e-01 5.613298e-02 9.833632e-01
      outer loop
         vertex -2.908419e+00 1.334970e+01 1.877164e+01
         vertex -2.000000e+00 1.214500e+01 1.900000e+01
         vertex -1.618034e+00 1.332057e+01 1.900000e+01
      endloop
   endfacet
   facet normal 3.960636e-02 1.991141e-01 9.791756e-01
      outer loop
         vertex 6.180339e-01 1.404711e+01 1.900000e+01
         vertex 1.204707e+00 1.505342e+01 1.877164e+01
         vertex -1.490949e-07 1.529305e+01 1.877164e+01
      endloop
   endfacet
   facet normal -1.706305e-01 1.140116e-01 9.787168e-01
      outer loop
         vertex -1.618034e+00 1.332057e+01 1.900000e+01
         vertex -2.226008e+00 1.437101e+01 1.877164e+01
         vertex -2.908419e+00 1.334970e+01 1.877164e+01
      endloop
   endfacet
   facet normal -5.395287e-01 1.454610e-01 8.293069e-01
      outer loop
         vertex -3.500000e+00 1.214500e+01 1.859808e+01
         vertex -2.908419e+00 1.334970e+01 1.877164e+01
         vertex -3.807604e+00 1.372216e+01 1.812132e+01
      endloop
   endfacet
   facet normal -8.128168e-01 1.905219e-01 5.504819e-01
      outer loop
         vertex -4.598076e+00 1.214500e+01 1.750000e+01
         vertex -3.807604e+00 1.372216e+01 1.812132e+01
         vertex -4.408420e+00 1.397103e+01 1.714805e+01
      endloop
   endfacet
   facet normal 5.452900e-01 8.160844e-01 1.914812e-01
      outer loop
         vertex 1.913417e+00 1.676440e+01 1.600000e+01
         vertex 1.826027e+00 1.655342e+01 1.714805e+01
         vertex 3.374058e+00 1.551906e+01 1.714805e+01
      endloop
   endfacet
   facet normal -1.914809e-01 9.626372e-01 1.914802e-01
      outer loop
         vertex -8.333804e-08 1.714500e+01 1.600000e+01
         vertex -1.826027e+00 1.655342e+01 1.714805e+01
         vertex -1.645082e-07 1.691664e+01 1.714805e+01
      endloop
   endfacet
   facet normal -8.160844e-01 5.452903e-01 1.914806e-01
      outer loop
         vertex -3.535534e+00 1.568053e+01 1.600000e+01
         vertex -4.408420e+00 1.397103e+01 1.714805e+01
         vertex -3.374058e+00 1.551906e+01 1.714805e+01
      endloop
   endfacet
   facet normal -9.626373e-01 1.914805e-01 1.914801e-01
      outer loop
         vertex -5.000000e+00 1.214500e+01 1.600000e+01
         vertex -4.408420e+00 1.397103e+01 1.714805e+01
         vertex -4.619398e+00 1.405842e+01 1.600000e+01
      endloop
   endfacet
   facet normal 9.552098e-01 1.485428e-01 2.559476e-01
      outer loop
         vertex 4.598076e+00 1.214500e+01 1.750000e+01
         vertex 5.000000e+00 1.214500e+01 1.600000e+01
         vertex 4.408419e+00 1.397103e+01 1.714805e+01
      endloop
   endfacet
   facet normal 2.588004e-01 -1.206552e-02 9.658555e-01
      outer loop
         vertex 3.500000e+00 1.214500e+01 1.859808e+01
         vertex 2.908419e+00 1.334970e+01 1.877164e+01
         vertex 2.000000e+00 1.214500e+01 1.900000e+01
      endloop
   endfacet
   facet normal 1.070760e-01 1.602506e-01 9.812515e-01
      outer loop
         vertex 2.226008e+00 1.437101e+01 1.877164e+01
         vertex 1.204707e+00 1.505342e+01 1.877164e+01
         vertex 6.180339e-01 1.404711e+01 1.900000e+01
      endloop
   endfacet
   facet normal -7.050819e-01 7.562060e-02 7.050822e-01
      outer loop
         vertex -3.500000e+00 1.214500e+01 1.859808e+01
         vertex -3.807604e+00 1.372216e+01 1.812132e+01
         vertex -4.598076e+00 1.214500e+01 1.750000e+01
      endloop
   endfacet
   facet normal 8.128168e-01 1.905221e-01 5.504818e-01
      outer loop
         vertex 3.807603e+00 1.372216e+01 1.812132e+01
         vertex 4.598076e+00 1.214500e+01 1.750000e+01
         vertex 4.408419e+00 1.397103e+01 1.714805e+01
      endloop
   endfacet
   facet normal -5.452903e-01 8.160843e-01 1.914806e-01
      outer loop
         vertex -3.374058e+00 1.551906e+01 1.714805e+01
         vertex -1.913417e+00 1.676440e+01 1.600000e+01
         vertex -3.535534e+00 1.568053e+01 1.600000e+01
      endloop
   endfacet
   facet normal 8.160845e-01 5.452901e-01 1.914804e-01
      outer loop
         vertex 4.408419e+00 1.397103e+01 1.714805e+01
         vertex 4.619398e+00 1.405842e+01 1.600000e+01
         vertex 3.535534e+00 1.568053e+01 1.600000e+01
      endloop
   endfacet
   facet normal -1.092532e-01 1.503742e-01 9.825738e-01
      outer loop
         vertex -2.226008e+00 1.437101e+01 1.877164e+01
         vertex -1.618034e+00 1.332057e+01 1.900000e+01
         vertex -6.180341e-01 1.404711e+01 1.900000e+01
      endloop
   endfacet
   facet normal -3.960636e-02 1.991141e-01 9.791756e-01
      outer loop
         vertex -6.180341e-01 1.404711e+01 1.900000e+01
         vertex -1.490949e-07 1.529305e+01 1.877164e+01
         vertex -1.204707e+00 1.505342e+01 1.877164e+01
      endloop
   endfacet
   facet normal 5.395287e-01 1.454611e-01 8.293069e-01
      outer loop
         vertex 3.500000e+00 1.214500e+01 1.859808e+01
         vertex 3.807603e+00 1.372216e+01 1.812132e+01
         vertex 2.908419e+00 1.334970e+01 1.877164e+01
      endloop
   endfacet
   facet normal 1.914809e-01 9.626372e-01 1.914802e-01
      outer loop
         vertex -8.333804e-08 1.714500e+01 1.600000e+01
         vertex -1.645082e-07 1.691664e+01 1.714805e+01
         vertex 1.826027e+00 1.655342e+01 1.714805e+01
      endloop
   endfacet
   facet normal -5.452900e-01 8.160844e-01 1.914811e-01
      outer loop
         vertex -3.374058e+00 1.551906e+01 1.714805e+01
         vertex -1.826027e+00 1.655342e+01 1.714805e+01
         vertex -1.913417e+00 1.676440e+01 1.600000e+01
      endloop
   endfacet
   facet normal 1.914802e-01 9.626371e-01 1.914813e-01
      outer loop
         vertex -8.333804e-08 1.714500e+01 1.600000e+01
         vertex 1.826027e+00 1.655342e+01 1.714805e+01
         vertex 1.913417e+00 1.676440e+01 1.600000e+01
      endloop
   endfacet
   facet normal -1.070760e-01 1.602506e-01 9.812515e-01
      outer loop
         vertex -1.204707e+00 1.505342e+01 1.877164e+01
         vertex -2.226008e+00 1.437101e+01 1.877164e+01
         vertex -6.180341e-01 1.404711e+01 1.900000e+01
      endloop
   endfacet
   facet normal 1.092532e-01 1.503742e-01 9.825738e-01
      outer loop
         vertex 2.226008e+00 1.437101e+01 1.877164e+01
         vertex 6.180339e-01 1.404711e+01 1.900000e+01
         vertex 1.618034e+00 1.332057e+01 1.900000e+01
      endloop
   endfacet
   facet normal 8.160844e-01 5.452902e-01 1.914806e-01
      outer loop
         vertex 3.535534e+00 1.568053e+01 1.600000e+01
         vertex 3.374058e+00 1.551906e+01 1.714805e+01
         vertex 4.408419e+00 1.397103e+01 1.714805e+01
      endloop
   endfacet
   facet normal 1.706305e-01 1.140116e-01 9.787168e-01
      outer loop
         vertex 2.908419e+00 1.334970e+01 1.877164e+01
         vertex 2.226008e+00 1.437101e+01 1.877164e+01
         vertex 1.618034e+00 1.332057e+01 1.900000e+01
      endloop
   endfacet
endsolid
